<svg xmlns="http://www.w3.org/2000/svg" xmlns:xlink="http://www.w3.org/1999/xlink" width="600" height="400" viewBox="0 0 2400 1600">
<defs>
  <clipPath id="clip940">
    <rect x="0" y="0" width="2400" height="1600"></rect>
  </clipPath>
</defs>
<path clip-path="url(#clip940)" d="M0 1600 L2400 1600 L2400 0 L0 0  Z" fill="#ffffff" fill-rule="evenodd" fill-opacity="1"></path>
<defs>
  <clipPath id="clip941">
    <rect x="480" y="0" width="1681" height="1600"></rect>
  </clipPath>
</defs>
<path clip-path="url(#clip940)" d="M249.542 1423.18 L2352.76 1423.18 L2352.76 123.472 L249.542 123.472  Z" fill="#ffffff" fill-rule="evenodd" fill-opacity="1"></path>
<defs>
  <clipPath id="clip942">
    <rect x="249" y="123" width="2104" height="1301"></rect>
  </clipPath>
</defs>
<polyline clip-path="url(#clip942)" style="stroke:#000000; stroke-linecap:round; stroke-linejoin:round; stroke-width:2; stroke-opacity:0.1; fill:none" points="309.067,1423.18 309.067,123.472 "></polyline>
<polyline clip-path="url(#clip942)" style="stroke:#000000; stroke-linecap:round; stroke-linejoin:round; stroke-width:2; stroke-opacity:0.1; fill:none" points="805.108,1423.18 805.108,123.472 "></polyline>
<polyline clip-path="url(#clip942)" style="stroke:#000000; stroke-linecap:round; stroke-linejoin:round; stroke-width:2; stroke-opacity:0.1; fill:none" points="1301.15,1423.18 1301.15,123.472 "></polyline>
<polyline clip-path="url(#clip942)" style="stroke:#000000; stroke-linecap:round; stroke-linejoin:round; stroke-width:2; stroke-opacity:0.1; fill:none" points="1797.19,1423.18 1797.19,123.472 "></polyline>
<polyline clip-path="url(#clip942)" style="stroke:#000000; stroke-linecap:round; stroke-linejoin:round; stroke-width:2; stroke-opacity:0.1; fill:none" points="2293.23,1423.18 2293.23,123.472 "></polyline>
<polyline clip-path="url(#clip942)" style="stroke:#000000; stroke-linecap:round; stroke-linejoin:round; stroke-width:2; stroke-opacity:0.1; fill:none" points="249.542,1386.4 2352.76,1386.4 "></polyline>
<polyline clip-path="url(#clip942)" style="stroke:#000000; stroke-linecap:round; stroke-linejoin:round; stroke-width:2; stroke-opacity:0.1; fill:none" points="249.542,1079.86 2352.76,1079.86 "></polyline>
<polyline clip-path="url(#clip942)" style="stroke:#000000; stroke-linecap:round; stroke-linejoin:round; stroke-width:2; stroke-opacity:0.1; fill:none" points="249.542,773.326 2352.76,773.326 "></polyline>
<polyline clip-path="url(#clip942)" style="stroke:#000000; stroke-linecap:round; stroke-linejoin:round; stroke-width:2; stroke-opacity:0.1; fill:none" points="249.542,466.791 2352.76,466.791 "></polyline>
<polyline clip-path="url(#clip942)" style="stroke:#000000; stroke-linecap:round; stroke-linejoin:round; stroke-width:2; stroke-opacity:0.1; fill:none" points="249.542,160.256 2352.76,160.256 "></polyline>
<polyline clip-path="url(#clip940)" style="stroke:#000000; stroke-linecap:round; stroke-linejoin:round; stroke-width:4; stroke-opacity:1; fill:none" points="249.542,1423.18 2352.76,1423.18 "></polyline>
<polyline clip-path="url(#clip940)" style="stroke:#000000; stroke-linecap:round; stroke-linejoin:round; stroke-width:4; stroke-opacity:1; fill:none" points="309.067,1423.18 309.067,1404.28 "></polyline>
<polyline clip-path="url(#clip940)" style="stroke:#000000; stroke-linecap:round; stroke-linejoin:round; stroke-width:4; stroke-opacity:1; fill:none" points="805.108,1423.18 805.108,1404.28 "></polyline>
<polyline clip-path="url(#clip940)" style="stroke:#000000; stroke-linecap:round; stroke-linejoin:round; stroke-width:4; stroke-opacity:1; fill:none" points="1301.15,1423.18 1301.15,1404.28 "></polyline>
<polyline clip-path="url(#clip940)" style="stroke:#000000; stroke-linecap:round; stroke-linejoin:round; stroke-width:4; stroke-opacity:1; fill:none" points="1797.19,1423.18 1797.19,1404.28 "></polyline>
<polyline clip-path="url(#clip940)" style="stroke:#000000; stroke-linecap:round; stroke-linejoin:round; stroke-width:4; stroke-opacity:1; fill:none" points="2293.23,1423.18 2293.23,1404.28 "></polyline>
<path clip-path="url(#clip940)" d="M271.37 1454.1 Q267.759 1454.1 265.931 1457.66 Q264.125 1461.2 264.125 1468.33 Q264.125 1475.44 265.931 1479.01 Q267.759 1482.55 271.37 1482.55 Q275.005 1482.55 276.81 1479.01 Q278.639 1475.44 278.639 1468.33 Q278.639 1461.2 276.81 1457.66 Q275.005 1454.1 271.37 1454.1 M271.37 1450.39 Q277.181 1450.39 280.236 1455 Q283.315 1459.58 283.315 1468.33 Q283.315 1477.06 280.236 1481.67 Q277.181 1486.25 271.37 1486.25 Q265.56 1486.25 262.482 1481.67 Q259.426 1477.06 259.426 1468.33 Q259.426 1459.58 262.482 1455 Q265.56 1450.39 271.37 1450.39 Z" fill="#000000" fill-rule="nonzero" fill-opacity="1"></path><path clip-path="url(#clip940)" d="M291.532 1479.7 L296.417 1479.7 L296.417 1485.58 L291.532 1485.58 L291.532 1479.7 Z" fill="#000000" fill-rule="nonzero" fill-opacity="1"></path><path clip-path="url(#clip940)" d="M316.602 1454.1 Q312.991 1454.1 311.162 1457.66 Q309.356 1461.2 309.356 1468.33 Q309.356 1475.44 311.162 1479.01 Q312.991 1482.55 316.602 1482.55 Q320.236 1482.55 322.041 1479.01 Q323.87 1475.44 323.87 1468.33 Q323.87 1461.2 322.041 1457.66 Q320.236 1454.1 316.602 1454.1 M316.602 1450.39 Q322.412 1450.39 325.467 1455 Q328.546 1459.58 328.546 1468.33 Q328.546 1477.06 325.467 1481.67 Q322.412 1486.25 316.602 1486.25 Q310.791 1486.25 307.713 1481.67 Q304.657 1477.06 304.657 1468.33 Q304.657 1459.58 307.713 1455 Q310.791 1450.39 316.602 1450.39 Z" fill="#000000" fill-rule="nonzero" fill-opacity="1"></path><path clip-path="url(#clip940)" d="M346.764 1454.1 Q343.152 1454.1 341.324 1457.66 Q339.518 1461.2 339.518 1468.33 Q339.518 1475.44 341.324 1479.01 Q343.152 1482.55 346.764 1482.55 Q350.398 1482.55 352.203 1479.01 Q354.032 1475.44 354.032 1468.33 Q354.032 1461.2 352.203 1457.66 Q350.398 1454.1 346.764 1454.1 M346.764 1450.39 Q352.574 1450.39 355.629 1455 Q358.708 1459.58 358.708 1468.33 Q358.708 1477.06 355.629 1481.67 Q352.574 1486.25 346.764 1486.25 Q340.953 1486.25 337.875 1481.67 Q334.819 1477.06 334.819 1468.33 Q334.819 1459.58 337.875 1455 Q340.953 1450.39 346.764 1450.39 Z" fill="#000000" fill-rule="nonzero" fill-opacity="1"></path><path clip-path="url(#clip940)" d="M767.909 1454.1 Q764.298 1454.1 762.469 1457.66 Q760.664 1461.2 760.664 1468.33 Q760.664 1475.44 762.469 1479.01 Q764.298 1482.55 767.909 1482.55 Q771.543 1482.55 773.349 1479.01 Q775.178 1475.44 775.178 1468.33 Q775.178 1461.2 773.349 1457.66 Q771.543 1454.1 767.909 1454.1 M767.909 1450.39 Q773.719 1450.39 776.775 1455 Q779.853 1459.58 779.853 1468.33 Q779.853 1477.06 776.775 1481.67 Q773.719 1486.25 767.909 1486.25 Q762.099 1486.25 759.02 1481.67 Q755.965 1477.06 755.965 1468.33 Q755.965 1459.58 759.02 1455 Q762.099 1450.39 767.909 1450.39 Z" fill="#000000" fill-rule="nonzero" fill-opacity="1"></path><path clip-path="url(#clip940)" d="M788.071 1479.7 L792.955 1479.7 L792.955 1485.58 L788.071 1485.58 L788.071 1479.7 Z" fill="#000000" fill-rule="nonzero" fill-opacity="1"></path><path clip-path="url(#clip940)" d="M807.168 1481.64 L823.487 1481.64 L823.487 1485.58 L801.543 1485.58 L801.543 1481.64 Q804.205 1478.89 808.788 1474.26 Q813.395 1469.61 814.576 1468.27 Q816.821 1465.74 817.7 1464.01 Q818.603 1462.25 818.603 1460.56 Q818.603 1457.8 816.659 1456.07 Q814.738 1454.33 811.636 1454.33 Q809.437 1454.33 806.983 1455.09 Q804.552 1455.86 801.775 1457.41 L801.775 1452.69 Q804.599 1451.55 807.052 1450.97 Q809.506 1450.39 811.543 1450.39 Q816.913 1450.39 820.108 1453.08 Q823.302 1455.77 823.302 1460.26 Q823.302 1462.39 822.492 1464.31 Q821.705 1466.2 819.599 1468.8 Q819.02 1469.47 815.918 1472.69 Q812.816 1475.88 807.168 1481.64 Z" fill="#000000" fill-rule="nonzero" fill-opacity="1"></path><path clip-path="url(#clip940)" d="M833.349 1451.02 L851.705 1451.02 L851.705 1454.96 L837.631 1454.96 L837.631 1463.43 Q838.649 1463.08 839.668 1462.92 Q840.686 1462.73 841.705 1462.73 Q847.492 1462.73 850.872 1465.9 Q854.251 1469.08 854.251 1474.49 Q854.251 1480.07 850.779 1483.17 Q847.307 1486.25 840.987 1486.25 Q838.811 1486.25 836.543 1485.88 Q834.298 1485.51 831.89 1484.77 L831.89 1480.07 Q833.974 1481.2 836.196 1481.76 Q838.418 1482.32 840.895 1482.32 Q844.899 1482.32 847.237 1480.21 Q849.575 1478.1 849.575 1474.49 Q849.575 1470.88 847.237 1468.77 Q844.899 1466.67 840.895 1466.67 Q839.02 1466.67 837.145 1467.08 Q835.293 1467.5 833.349 1468.38 L833.349 1451.02 Z" fill="#000000" fill-rule="nonzero" fill-opacity="1"></path><path clip-path="url(#clip940)" d="M1263.45 1454.1 Q1259.84 1454.1 1258.01 1457.66 Q1256.21 1461.2 1256.21 1468.33 Q1256.21 1475.44 1258.01 1479.01 Q1259.84 1482.55 1263.45 1482.55 Q1267.09 1482.55 1268.89 1479.01 Q1270.72 1475.44 1270.72 1468.33 Q1270.72 1461.2 1268.89 1457.66 Q1267.09 1454.1 1263.45 1454.1 M1263.45 1450.39 Q1269.26 1450.39 1272.32 1455 Q1275.4 1459.58 1275.4 1468.33 Q1275.4 1477.06 1272.32 1481.67 Q1269.26 1486.25 1263.45 1486.25 Q1257.64 1486.25 1254.56 1481.67 Q1251.51 1477.06 1251.51 1468.33 Q1251.51 1459.58 1254.56 1455 Q1257.64 1450.39 1263.45 1450.39 Z" fill="#000000" fill-rule="nonzero" fill-opacity="1"></path><path clip-path="url(#clip940)" d="M1283.61 1479.7 L1288.5 1479.7 L1288.5 1485.58 L1283.61 1485.58 L1283.61 1479.7 Z" fill="#000000" fill-rule="nonzero" fill-opacity="1"></path><path clip-path="url(#clip940)" d="M1298.73 1451.02 L1317.09 1451.02 L1317.09 1454.96 L1303.01 1454.96 L1303.01 1463.43 Q1304.03 1463.08 1305.05 1462.92 Q1306.07 1462.73 1307.09 1462.73 Q1312.87 1462.73 1316.25 1465.9 Q1319.63 1469.08 1319.63 1474.49 Q1319.63 1480.07 1316.16 1483.17 Q1312.69 1486.25 1306.37 1486.25 Q1304.19 1486.25 1301.92 1485.88 Q1299.68 1485.51 1297.27 1484.77 L1297.27 1480.07 Q1299.35 1481.2 1301.58 1481.76 Q1303.8 1482.32 1306.28 1482.32 Q1310.28 1482.32 1312.62 1480.21 Q1314.96 1478.1 1314.96 1474.49 Q1314.96 1470.88 1312.62 1468.77 Q1310.28 1466.67 1306.28 1466.67 Q1304.4 1466.67 1302.53 1467.08 Q1300.67 1467.5 1298.73 1468.38 L1298.73 1451.02 Z" fill="#000000" fill-rule="nonzero" fill-opacity="1"></path><path clip-path="url(#clip940)" d="M1338.85 1454.1 Q1335.23 1454.1 1333.41 1457.66 Q1331.6 1461.2 1331.6 1468.33 Q1331.6 1475.44 1333.41 1479.01 Q1335.23 1482.55 1338.85 1482.55 Q1342.48 1482.55 1344.29 1479.01 Q1346.11 1475.44 1346.11 1468.33 Q1346.11 1461.2 1344.29 1457.66 Q1342.48 1454.1 1338.85 1454.1 M1338.85 1450.39 Q1344.66 1450.39 1347.71 1455 Q1350.79 1459.58 1350.79 1468.33 Q1350.79 1477.06 1347.71 1481.67 Q1344.66 1486.25 1338.85 1486.25 Q1333.04 1486.25 1329.96 1481.67 Q1326.9 1477.06 1326.9 1468.33 Q1326.9 1459.58 1329.96 1455 Q1333.04 1450.39 1338.85 1450.39 Z" fill="#000000" fill-rule="nonzero" fill-opacity="1"></path><path clip-path="url(#clip940)" d="M1759.99 1454.1 Q1756.38 1454.1 1754.55 1457.66 Q1752.75 1461.2 1752.75 1468.33 Q1752.75 1475.44 1754.55 1479.01 Q1756.38 1482.55 1759.99 1482.55 Q1763.63 1482.55 1765.43 1479.01 Q1767.26 1475.44 1767.26 1468.33 Q1767.26 1461.2 1765.43 1457.66 Q1763.63 1454.1 1759.99 1454.1 M1759.99 1450.39 Q1765.8 1450.39 1768.86 1455 Q1771.94 1459.58 1771.94 1468.33 Q1771.94 1477.06 1768.86 1481.67 Q1765.8 1486.25 1759.99 1486.25 Q1754.18 1486.25 1751.1 1481.67 Q1748.05 1477.06 1748.05 1468.33 Q1748.05 1459.58 1751.1 1455 Q1754.18 1450.39 1759.99 1450.39 Z" fill="#000000" fill-rule="nonzero" fill-opacity="1"></path><path clip-path="url(#clip940)" d="M1780.15 1479.7 L1785.04 1479.7 L1785.04 1485.58 L1780.15 1485.58 L1780.15 1479.7 Z" fill="#000000" fill-rule="nonzero" fill-opacity="1"></path><path clip-path="url(#clip940)" d="M1794.04 1451.02 L1816.26 1451.02 L1816.26 1453.01 L1803.72 1485.58 L1798.83 1485.58 L1810.64 1454.96 L1794.04 1454.96 L1794.04 1451.02 Z" fill="#000000" fill-rule="nonzero" fill-opacity="1"></path><path clip-path="url(#clip940)" d="M1825.43 1451.02 L1843.79 1451.02 L1843.79 1454.96 L1829.71 1454.96 L1829.71 1463.43 Q1830.73 1463.08 1831.75 1462.92 Q1832.77 1462.73 1833.79 1462.73 Q1839.57 1462.73 1842.95 1465.9 Q1846.33 1469.08 1846.33 1474.49 Q1846.33 1480.07 1842.86 1483.17 Q1839.39 1486.25 1833.07 1486.25 Q1830.89 1486.25 1828.62 1485.88 Q1826.38 1485.51 1823.97 1484.77 L1823.97 1480.07 Q1826.06 1481.2 1828.28 1481.76 Q1830.5 1482.32 1832.98 1482.32 Q1836.98 1482.32 1839.32 1480.21 Q1841.66 1478.1 1841.66 1474.49 Q1841.66 1470.88 1839.32 1468.77 Q1836.98 1466.67 1832.98 1466.67 Q1831.1 1466.67 1829.23 1467.08 Q1827.38 1467.5 1825.43 1468.38 L1825.43 1451.02 Z" fill="#000000" fill-rule="nonzero" fill-opacity="1"></path><path clip-path="url(#clip940)" d="M2245.3 1481.64 L2252.94 1481.64 L2252.94 1455.28 L2244.63 1456.95 L2244.63 1452.69 L2252.9 1451.02 L2257.57 1451.02 L2257.57 1481.64 L2265.21 1481.64 L2265.21 1485.58 L2245.3 1485.58 L2245.3 1481.64 Z" fill="#000000" fill-rule="nonzero" fill-opacity="1"></path><path clip-path="url(#clip940)" d="M2274.65 1479.7 L2279.54 1479.7 L2279.54 1485.58 L2274.65 1485.58 L2274.65 1479.7 Z" fill="#000000" fill-rule="nonzero" fill-opacity="1"></path><path clip-path="url(#clip940)" d="M2299.72 1454.1 Q2296.11 1454.1 2294.28 1457.66 Q2292.48 1461.2 2292.48 1468.33 Q2292.48 1475.44 2294.28 1479.01 Q2296.11 1482.55 2299.72 1482.55 Q2303.36 1482.55 2305.16 1479.01 Q2306.99 1475.44 2306.99 1468.33 Q2306.99 1461.2 2305.16 1457.66 Q2303.36 1454.1 2299.72 1454.1 M2299.72 1450.39 Q2305.53 1450.39 2308.59 1455 Q2311.67 1459.58 2311.67 1468.33 Q2311.67 1477.06 2308.59 1481.67 Q2305.53 1486.25 2299.72 1486.25 Q2293.91 1486.25 2290.84 1481.67 Q2287.78 1477.06 2287.78 1468.33 Q2287.78 1459.58 2290.84 1455 Q2293.91 1450.39 2299.72 1450.39 Z" fill="#000000" fill-rule="nonzero" fill-opacity="1"></path><path clip-path="url(#clip940)" d="M2329.89 1454.1 Q2326.27 1454.1 2324.45 1457.66 Q2322.64 1461.2 2322.64 1468.33 Q2322.64 1475.44 2324.45 1479.01 Q2326.27 1482.55 2329.89 1482.55 Q2333.52 1482.55 2335.33 1479.01 Q2337.15 1475.44 2337.15 1468.33 Q2337.15 1461.2 2335.33 1457.66 Q2333.52 1454.1 2329.89 1454.1 M2329.89 1450.39 Q2335.7 1450.39 2338.75 1455 Q2341.83 1459.58 2341.83 1468.33 Q2341.83 1477.06 2338.75 1481.67 Q2335.7 1486.25 2329.89 1486.25 Q2324.08 1486.25 2321 1481.67 Q2317.94 1477.06 2317.94 1468.33 Q2317.94 1459.58 2321 1455 Q2324.08 1450.39 2329.89 1450.39 Z" fill="#000000" fill-rule="nonzero" fill-opacity="1"></path><path clip-path="url(#clip940)" d="M1088.26 1520.52 L1115.57 1520.52 L1115.57 1525.93 L1094.69 1525.93 L1094.69 1539.94 L1113.54 1539.94 L1113.54 1545.35 L1094.69 1545.35 L1094.69 1568.04 L1088.26 1568.04 L1088.26 1520.52 Z" fill="#000000" fill-rule="nonzero" fill-opacity="1"></path><path clip-path="url(#clip940)" d="M1135.72 1550.12 Q1128.62 1550.12 1125.89 1551.75 Q1123.15 1553.37 1123.15 1557.29 Q1123.15 1560.4 1125.18 1562.25 Q1127.25 1564.07 1130.79 1564.07 Q1135.66 1564.07 1138.58 1560.63 Q1141.54 1557.16 1141.54 1551.43 L1141.54 1550.12 L1135.72 1550.12 M1147.4 1547.71 L1147.4 1568.04 L1141.54 1568.04 L1141.54 1562.63 Q1139.54 1565.88 1136.55 1567.44 Q1133.56 1568.97 1129.23 1568.97 Q1123.75 1568.97 1120.51 1565.91 Q1117.29 1562.82 1117.29 1557.67 Q1117.29 1551.65 1121.3 1548.6 Q1125.34 1545.54 1133.33 1545.54 L1141.54 1545.54 L1141.54 1544.97 Q1141.54 1540.93 1138.87 1538.73 Q1136.23 1536.5 1131.42 1536.5 Q1128.37 1536.5 1125.47 1537.23 Q1122.57 1537.97 1119.9 1539.43 L1119.9 1534.02 Q1123.12 1532.78 1126.14 1532.17 Q1129.16 1531.54 1132.03 1531.54 Q1139.76 1531.54 1143.58 1535.55 Q1147.4 1539.56 1147.4 1547.71 Z" fill="#000000" fill-rule="nonzero" fill-opacity="1"></path><path clip-path="url(#clip940)" d="M1159.46 1518.52 L1165.32 1518.52 L1165.32 1568.04 L1159.46 1568.04 L1159.46 1518.52 Z" fill="#000000" fill-rule="nonzero" fill-opacity="1"></path><path clip-path="url(#clip940)" d="M1200.3 1533.45 L1200.3 1538.98 Q1197.82 1537.71 1195.14 1537.07 Q1192.47 1536.44 1189.61 1536.44 Q1185.25 1536.44 1183.05 1537.77 Q1180.88 1539.11 1180.88 1541.79 Q1180.88 1543.82 1182.44 1545 Q1184 1546.15 1188.71 1547.2 L1190.72 1547.64 Q1196.96 1548.98 1199.57 1551.43 Q1202.21 1553.85 1202.21 1558.21 Q1202.21 1563.17 1198.26 1566.07 Q1194.35 1568.97 1187.47 1568.97 Q1184.61 1568.97 1181.49 1568.39 Q1178.4 1567.85 1174.96 1566.74 L1174.96 1560.69 Q1178.21 1562.38 1181.36 1563.24 Q1184.51 1564.07 1187.6 1564.07 Q1191.74 1564.07 1193.97 1562.66 Q1196.19 1561.23 1196.19 1558.65 Q1196.19 1556.27 1194.57 1554.99 Q1192.98 1553.72 1187.54 1552.54 L1185.5 1552.07 Q1180.06 1550.92 1177.64 1548.56 Q1175.22 1546.18 1175.22 1542.04 Q1175.22 1537.01 1178.78 1534.27 Q1182.35 1531.54 1188.91 1531.54 Q1192.15 1531.54 1195.02 1532.01 Q1197.88 1532.49 1200.3 1533.45 Z" fill="#000000" fill-rule="nonzero" fill-opacity="1"></path><path clip-path="url(#clip940)" d="M1242.03 1548.76 L1242.03 1551.62 L1215.1 1551.62 Q1215.48 1557.67 1218.73 1560.85 Q1222.01 1564 1227.83 1564 Q1231.21 1564 1234.36 1563.17 Q1237.54 1562.35 1240.66 1560.69 L1240.66 1566.23 Q1237.51 1567.57 1234.2 1568.27 Q1230.89 1568.97 1227.48 1568.97 Q1218.95 1568.97 1213.95 1564 Q1208.99 1559.04 1208.99 1550.57 Q1208.99 1541.82 1213.7 1536.69 Q1218.44 1531.54 1226.46 1531.54 Q1233.66 1531.54 1237.83 1536.18 Q1242.03 1540.8 1242.03 1548.76 M1236.17 1547.04 Q1236.11 1542.23 1233.47 1539.37 Q1230.86 1536.5 1226.53 1536.5 Q1221.63 1536.5 1218.67 1539.27 Q1215.74 1542.04 1215.29 1547.07 L1236.17 1547.04 Z" fill="#000000" fill-rule="nonzero" fill-opacity="1"></path><path clip-path="url(#clip940)" d="M1279.04 1525.81 L1279.04 1543.66 L1287.13 1543.66 Q1291.62 1543.66 1294.07 1541.34 Q1296.52 1539.02 1296.52 1534.72 Q1296.52 1530.45 1294.07 1528.13 Q1291.62 1525.81 1287.13 1525.81 L1279.04 1525.81 M1272.61 1520.52 L1287.13 1520.52 Q1295.12 1520.52 1299.19 1524.15 Q1303.3 1527.75 1303.3 1534.72 Q1303.3 1541.75 1299.19 1545.35 Q1295.12 1548.95 1287.13 1548.95 L1279.04 1548.95 L1279.04 1568.04 L1272.61 1568.04 L1272.61 1520.52 Z" fill="#000000" fill-rule="nonzero" fill-opacity="1"></path><path clip-path="url(#clip940)" d="M1323.16 1536.5 Q1318.45 1536.5 1315.71 1540.19 Q1312.97 1543.85 1312.97 1550.25 Q1312.97 1556.65 1315.68 1560.34 Q1318.42 1564 1323.16 1564 Q1327.84 1564 1330.57 1560.31 Q1333.31 1556.62 1333.31 1550.25 Q1333.31 1543.92 1330.57 1540.23 Q1327.84 1536.5 1323.16 1536.5 M1323.16 1531.54 Q1330.8 1531.54 1335.16 1536.5 Q1339.52 1541.47 1339.52 1550.25 Q1339.52 1559 1335.16 1564 Q1330.8 1568.97 1323.16 1568.97 Q1315.49 1568.97 1311.13 1564 Q1306.8 1559 1306.8 1550.25 Q1306.8 1541.47 1311.13 1536.5 Q1315.49 1531.54 1323.16 1531.54 Z" fill="#000000" fill-rule="nonzero" fill-opacity="1"></path><path clip-path="url(#clip940)" d="M1371.95 1533.45 L1371.95 1538.98 Q1369.47 1537.71 1366.8 1537.07 Q1364.12 1536.44 1361.26 1536.44 Q1356.9 1536.44 1354.7 1537.77 Q1352.54 1539.11 1352.54 1541.79 Q1352.54 1543.82 1354.1 1545 Q1355.66 1546.15 1360.37 1547.2 L1362.37 1547.64 Q1368.61 1548.98 1371.22 1551.43 Q1373.86 1553.85 1373.86 1558.21 Q1373.86 1563.17 1369.91 1566.07 Q1366 1568.97 1359.12 1568.97 Q1356.26 1568.97 1353.14 1568.39 Q1350.05 1567.85 1346.62 1566.74 L1346.62 1560.69 Q1349.86 1562.38 1353.01 1563.24 Q1356.16 1564.07 1359.25 1564.07 Q1363.39 1564.07 1365.62 1562.66 Q1367.85 1561.23 1367.85 1558.65 Q1367.85 1556.27 1366.22 1554.99 Q1364.63 1553.72 1359.19 1552.54 L1357.15 1552.07 Q1351.71 1550.92 1349.29 1548.56 Q1346.87 1546.18 1346.87 1542.04 Q1346.87 1537.01 1350.44 1534.27 Q1354 1531.54 1360.56 1531.54 Q1363.8 1531.54 1366.67 1532.01 Q1369.53 1532.49 1371.95 1533.45 Z" fill="#000000" fill-rule="nonzero" fill-opacity="1"></path><path clip-path="url(#clip940)" d="M1383.19 1532.4 L1389.04 1532.4 L1389.04 1568.04 L1383.19 1568.04 L1383.19 1532.4 M1383.19 1518.52 L1389.04 1518.52 L1389.04 1525.93 L1383.19 1525.93 L1383.19 1518.52 Z" fill="#000000" fill-rule="nonzero" fill-opacity="1"></path><path clip-path="url(#clip940)" d="M1407.09 1522.27 L1407.09 1532.4 L1419.15 1532.4 L1419.15 1536.95 L1407.09 1536.95 L1407.09 1556.3 Q1407.09 1560.66 1408.27 1561.9 Q1409.48 1563.14 1413.14 1563.14 L1419.15 1563.14 L1419.15 1568.04 L1413.14 1568.04 Q1406.36 1568.04 1403.78 1565.53 Q1401.2 1562.98 1401.2 1556.3 L1401.2 1536.95 L1396.91 1536.95 L1396.91 1532.4 L1401.2 1532.4 L1401.2 1522.27 L1407.09 1522.27 Z" fill="#000000" fill-rule="nonzero" fill-opacity="1"></path><path clip-path="url(#clip940)" d="M1426.86 1532.4 L1432.71 1532.4 L1432.71 1568.04 L1426.86 1568.04 L1426.86 1532.4 M1426.86 1518.52 L1432.71 1518.52 L1432.71 1525.93 L1426.86 1525.93 L1426.86 1518.52 Z" fill="#000000" fill-rule="nonzero" fill-opacity="1"></path><path clip-path="url(#clip940)" d="M1440.76 1532.4 L1446.97 1532.4 L1458.11 1562.31 L1469.25 1532.4 L1475.46 1532.4 L1462.09 1568.04 L1454.13 1568.04 L1440.76 1532.4 Z" fill="#000000" fill-rule="nonzero" fill-opacity="1"></path><path clip-path="url(#clip940)" d="M1514.03 1548.76 L1514.03 1551.62 L1487.11 1551.62 Q1487.49 1557.67 1490.74 1560.85 Q1494.01 1564 1499.84 1564 Q1503.21 1564 1506.36 1563.17 Q1509.55 1562.35 1512.67 1560.69 L1512.67 1566.23 Q1509.51 1567.57 1506.2 1568.27 Q1502.89 1568.97 1499.49 1568.97 Q1490.96 1568.97 1485.96 1564 Q1481 1559.04 1481 1550.57 Q1481 1541.82 1485.71 1536.69 Q1490.45 1531.54 1498.47 1531.54 Q1505.66 1531.54 1509.83 1536.18 Q1514.03 1540.8 1514.03 1548.76 M1508.18 1547.04 Q1508.11 1542.23 1505.47 1539.37 Q1502.86 1536.5 1498.53 1536.5 Q1493.63 1536.5 1490.67 1539.27 Q1487.74 1542.04 1487.3 1547.07 L1508.18 1547.04 Z" fill="#000000" fill-rule="nonzero" fill-opacity="1"></path><polyline clip-path="url(#clip940)" style="stroke:#000000; stroke-linecap:round; stroke-linejoin:round; stroke-width:4; stroke-opacity:1; fill:none" points="249.542,1423.18 249.542,123.472 "></polyline>
<polyline clip-path="url(#clip940)" style="stroke:#000000; stroke-linecap:round; stroke-linejoin:round; stroke-width:4; stroke-opacity:1; fill:none" points="249.542,1386.4 268.44,1386.4 "></polyline>
<polyline clip-path="url(#clip940)" style="stroke:#000000; stroke-linecap:round; stroke-linejoin:round; stroke-width:4; stroke-opacity:1; fill:none" points="249.542,1079.86 268.44,1079.86 "></polyline>
<polyline clip-path="url(#clip940)" style="stroke:#000000; stroke-linecap:round; stroke-linejoin:round; stroke-width:4; stroke-opacity:1; fill:none" points="249.542,773.326 268.44,773.326 "></polyline>
<polyline clip-path="url(#clip940)" style="stroke:#000000; stroke-linecap:round; stroke-linejoin:round; stroke-width:4; stroke-opacity:1; fill:none" points="249.542,466.791 268.44,466.791 "></polyline>
<polyline clip-path="url(#clip940)" style="stroke:#000000; stroke-linecap:round; stroke-linejoin:round; stroke-width:4; stroke-opacity:1; fill:none" points="249.542,160.256 268.44,160.256 "></polyline>
<path clip-path="url(#clip940)" d="M126.205 1372.19 Q122.593 1372.19 120.765 1375.76 Q118.959 1379.3 118.959 1386.43 Q118.959 1393.54 120.765 1397.1 Q122.593 1400.64 126.205 1400.64 Q129.839 1400.64 131.644 1397.1 Q133.473 1393.54 133.473 1386.43 Q133.473 1379.3 131.644 1375.76 Q129.839 1372.19 126.205 1372.19 M126.205 1368.49 Q132.015 1368.49 135.07 1373.1 Q138.149 1377.68 138.149 1386.43 Q138.149 1395.16 135.07 1399.76 Q132.015 1404.35 126.205 1404.35 Q120.394 1404.35 117.316 1399.76 Q114.26 1395.16 114.26 1386.43 Q114.26 1377.68 117.316 1373.1 Q120.394 1368.49 126.205 1368.49 Z" fill="#000000" fill-rule="nonzero" fill-opacity="1"></path><path clip-path="url(#clip940)" d="M146.366 1397.8 L151.251 1397.8 L151.251 1403.68 L146.366 1403.68 L146.366 1397.8 Z" fill="#000000" fill-rule="nonzero" fill-opacity="1"></path><path clip-path="url(#clip940)" d="M171.436 1372.19 Q167.825 1372.19 165.996 1375.76 Q164.19 1379.3 164.19 1386.43 Q164.19 1393.54 165.996 1397.1 Q167.825 1400.64 171.436 1400.64 Q175.07 1400.64 176.876 1397.1 Q178.704 1393.54 178.704 1386.43 Q178.704 1379.3 176.876 1375.76 Q175.07 1372.19 171.436 1372.19 M171.436 1368.49 Q177.246 1368.49 180.301 1373.1 Q183.38 1377.68 183.38 1386.43 Q183.38 1395.16 180.301 1399.76 Q177.246 1404.35 171.436 1404.35 Q165.626 1404.35 162.547 1399.76 Q159.491 1395.16 159.491 1386.43 Q159.491 1377.68 162.547 1373.1 Q165.626 1368.49 171.436 1368.49 Z" fill="#000000" fill-rule="nonzero" fill-opacity="1"></path><path clip-path="url(#clip940)" d="M201.598 1372.19 Q197.987 1372.19 196.158 1375.76 Q194.352 1379.3 194.352 1386.43 Q194.352 1393.54 196.158 1397.1 Q197.987 1400.64 201.598 1400.64 Q205.232 1400.64 207.037 1397.1 Q208.866 1393.54 208.866 1386.43 Q208.866 1379.3 207.037 1375.76 Q205.232 1372.19 201.598 1372.19 M201.598 1368.49 Q207.408 1368.49 210.463 1373.1 Q213.542 1377.68 213.542 1386.43 Q213.542 1395.16 210.463 1399.76 Q207.408 1404.35 201.598 1404.35 Q195.787 1404.35 192.709 1399.76 Q189.653 1395.16 189.653 1386.43 Q189.653 1377.68 192.709 1373.1 Q195.787 1368.49 201.598 1368.49 Z" fill="#000000" fill-rule="nonzero" fill-opacity="1"></path><path clip-path="url(#clip940)" d="M127.2 1065.66 Q123.589 1065.66 121.76 1069.22 Q119.955 1072.77 119.955 1079.9 Q119.955 1087 121.76 1090.57 Q123.589 1094.11 127.2 1094.11 Q130.834 1094.11 132.64 1090.57 Q134.468 1087 134.468 1079.9 Q134.468 1072.77 132.64 1069.22 Q130.834 1065.66 127.2 1065.66 M127.2 1061.96 Q133.01 1061.96 136.066 1066.56 Q139.144 1071.15 139.144 1079.9 Q139.144 1088.62 136.066 1093.23 Q133.01 1097.81 127.2 1097.81 Q121.39 1097.81 118.311 1093.23 Q115.256 1088.62 115.256 1079.9 Q115.256 1071.15 118.311 1066.56 Q121.39 1061.96 127.2 1061.96 Z" fill="#000000" fill-rule="nonzero" fill-opacity="1"></path><path clip-path="url(#clip940)" d="M147.362 1091.26 L152.246 1091.26 L152.246 1097.14 L147.362 1097.14 L147.362 1091.26 Z" fill="#000000" fill-rule="nonzero" fill-opacity="1"></path><path clip-path="url(#clip940)" d="M166.459 1093.21 L182.778 1093.21 L182.778 1097.14 L160.834 1097.14 L160.834 1093.21 Q163.496 1090.45 168.079 1085.82 Q172.686 1081.17 173.866 1079.83 Q176.112 1077.3 176.991 1075.57 Q177.894 1073.81 177.894 1072.12 Q177.894 1069.36 175.95 1067.63 Q174.028 1065.89 170.927 1065.89 Q168.727 1065.89 166.274 1066.65 Q163.843 1067.42 161.065 1068.97 L161.065 1064.25 Q163.89 1063.11 166.343 1062.53 Q168.797 1061.96 170.834 1061.96 Q176.204 1061.96 179.399 1064.64 Q182.593 1067.33 182.593 1071.82 Q182.593 1073.95 181.783 1075.87 Q180.996 1077.77 178.889 1080.36 Q178.311 1081.03 175.209 1084.25 Q172.107 1087.44 166.459 1093.21 Z" fill="#000000" fill-rule="nonzero" fill-opacity="1"></path><path clip-path="url(#clip940)" d="M192.639 1062.58 L210.996 1062.58 L210.996 1066.52 L196.922 1066.52 L196.922 1074.99 Q197.94 1074.64 198.959 1074.48 Q199.977 1074.29 200.996 1074.29 Q206.783 1074.29 210.162 1077.47 Q213.542 1080.64 213.542 1086.05 Q213.542 1091.63 210.07 1094.73 Q206.598 1097.81 200.278 1097.81 Q198.102 1097.81 195.834 1097.44 Q193.588 1097.07 191.181 1096.33 L191.181 1091.63 Q193.264 1092.77 195.487 1093.32 Q197.709 1093.88 200.186 1093.88 Q204.19 1093.88 206.528 1091.77 Q208.866 1089.66 208.866 1086.05 Q208.866 1082.44 206.528 1080.34 Q204.19 1078.23 200.186 1078.23 Q198.311 1078.23 196.436 1078.65 Q194.584 1079.06 192.639 1079.94 L192.639 1062.58 Z" fill="#000000" fill-rule="nonzero" fill-opacity="1"></path><path clip-path="url(#clip940)" d="M126.205 759.125 Q122.593 759.125 120.765 762.689 Q118.959 766.231 118.959 773.361 Q118.959 780.467 120.765 784.032 Q122.593 787.574 126.205 787.574 Q129.839 787.574 131.644 784.032 Q133.473 780.467 133.473 773.361 Q133.473 766.231 131.644 762.689 Q129.839 759.125 126.205 759.125 M126.205 755.421 Q132.015 755.421 135.07 760.027 Q138.149 764.611 138.149 773.361 Q138.149 782.088 135.07 786.694 Q132.015 791.277 126.205 791.277 Q120.394 791.277 117.316 786.694 Q114.26 782.088 114.26 773.361 Q114.26 764.611 117.316 760.027 Q120.394 755.421 126.205 755.421 Z" fill="#000000" fill-rule="nonzero" fill-opacity="1"></path><path clip-path="url(#clip940)" d="M146.366 784.726 L151.251 784.726 L151.251 790.606 L146.366 790.606 L146.366 784.726 Z" fill="#000000" fill-rule="nonzero" fill-opacity="1"></path><path clip-path="url(#clip940)" d="M161.482 756.046 L179.839 756.046 L179.839 759.981 L165.765 759.981 L165.765 768.453 Q166.783 768.106 167.802 767.944 Q168.82 767.759 169.839 767.759 Q175.626 767.759 179.005 770.93 Q182.385 774.101 182.385 779.518 Q182.385 785.097 178.913 788.199 Q175.44 791.277 169.121 791.277 Q166.945 791.277 164.677 790.907 Q162.431 790.537 160.024 789.796 L160.024 785.097 Q162.107 786.231 164.329 786.787 Q166.552 787.342 169.028 787.342 Q173.033 787.342 175.371 785.236 Q177.709 783.129 177.709 779.518 Q177.709 775.907 175.371 773.801 Q173.033 771.694 169.028 771.694 Q167.153 771.694 165.278 772.111 Q163.427 772.527 161.482 773.407 L161.482 756.046 Z" fill="#000000" fill-rule="nonzero" fill-opacity="1"></path><path clip-path="url(#clip940)" d="M201.598 759.125 Q197.987 759.125 196.158 762.689 Q194.352 766.231 194.352 773.361 Q194.352 780.467 196.158 784.032 Q197.987 787.574 201.598 787.574 Q205.232 787.574 207.037 784.032 Q208.866 780.467 208.866 773.361 Q208.866 766.231 207.037 762.689 Q205.232 759.125 201.598 759.125 M201.598 755.421 Q207.408 755.421 210.463 760.027 Q213.542 764.611 213.542 773.361 Q213.542 782.088 210.463 786.694 Q207.408 791.277 201.598 791.277 Q195.787 791.277 192.709 786.694 Q189.653 782.088 189.653 773.361 Q189.653 764.611 192.709 760.027 Q195.787 755.421 201.598 755.421 Z" fill="#000000" fill-rule="nonzero" fill-opacity="1"></path><path clip-path="url(#clip940)" d="M127.2 452.59 Q123.589 452.59 121.76 456.155 Q119.955 459.696 119.955 466.826 Q119.955 473.932 121.76 477.497 Q123.589 481.039 127.2 481.039 Q130.834 481.039 132.64 477.497 Q134.468 473.932 134.468 466.826 Q134.468 459.696 132.64 456.155 Q130.834 452.59 127.2 452.59 M127.2 448.886 Q133.01 448.886 136.066 453.493 Q139.144 458.076 139.144 466.826 Q139.144 475.553 136.066 480.159 Q133.01 484.742 127.2 484.742 Q121.39 484.742 118.311 480.159 Q115.256 475.553 115.256 466.826 Q115.256 458.076 118.311 453.493 Q121.39 448.886 127.2 448.886 Z" fill="#000000" fill-rule="nonzero" fill-opacity="1"></path><path clip-path="url(#clip940)" d="M147.362 478.192 L152.246 478.192 L152.246 484.071 L147.362 484.071 L147.362 478.192 Z" fill="#000000" fill-rule="nonzero" fill-opacity="1"></path><path clip-path="url(#clip940)" d="M161.251 449.511 L183.473 449.511 L183.473 451.502 L170.927 484.071 L166.042 484.071 L177.848 453.446 L161.251 453.446 L161.251 449.511 Z" fill="#000000" fill-rule="nonzero" fill-opacity="1"></path><path clip-path="url(#clip940)" d="M192.639 449.511 L210.996 449.511 L210.996 453.446 L196.922 453.446 L196.922 461.918 Q197.94 461.571 198.959 461.409 Q199.977 461.224 200.996 461.224 Q206.783 461.224 210.162 464.395 Q213.542 467.567 213.542 472.983 Q213.542 478.562 210.07 481.664 Q206.598 484.742 200.278 484.742 Q198.102 484.742 195.834 484.372 Q193.588 484.002 191.181 483.261 L191.181 478.562 Q193.264 479.696 195.487 480.252 Q197.709 480.807 200.186 480.807 Q204.19 480.807 206.528 478.701 Q208.866 476.594 208.866 472.983 Q208.866 469.372 206.528 467.266 Q204.19 465.159 200.186 465.159 Q198.311 465.159 196.436 465.576 Q194.584 465.993 192.639 466.872 L192.639 449.511 Z" fill="#000000" fill-rule="nonzero" fill-opacity="1"></path><path clip-path="url(#clip940)" d="M117.015 173.601 L124.654 173.601 L124.654 147.236 L116.343 148.902 L116.343 144.643 L124.607 142.976 L129.283 142.976 L129.283 173.601 L136.922 173.601 L136.922 177.536 L117.015 177.536 L117.015 173.601 Z" fill="#000000" fill-rule="nonzero" fill-opacity="1"></path><path clip-path="url(#clip940)" d="M146.366 171.657 L151.251 171.657 L151.251 177.536 L146.366 177.536 L146.366 171.657 Z" fill="#000000" fill-rule="nonzero" fill-opacity="1"></path><path clip-path="url(#clip940)" d="M171.436 146.055 Q167.825 146.055 165.996 149.62 Q164.19 153.161 164.19 160.291 Q164.19 167.397 165.996 170.962 Q167.825 174.504 171.436 174.504 Q175.07 174.504 176.876 170.962 Q178.704 167.397 178.704 160.291 Q178.704 153.161 176.876 149.62 Q175.07 146.055 171.436 146.055 M171.436 142.351 Q177.246 142.351 180.301 146.958 Q183.38 151.541 183.38 160.291 Q183.38 169.018 180.301 173.624 Q177.246 178.208 171.436 178.208 Q165.626 178.208 162.547 173.624 Q159.491 169.018 159.491 160.291 Q159.491 151.541 162.547 146.958 Q165.626 142.351 171.436 142.351 Z" fill="#000000" fill-rule="nonzero" fill-opacity="1"></path><path clip-path="url(#clip940)" d="M201.598 146.055 Q197.987 146.055 196.158 149.62 Q194.352 153.161 194.352 160.291 Q194.352 167.397 196.158 170.962 Q197.987 174.504 201.598 174.504 Q205.232 174.504 207.037 170.962 Q208.866 167.397 208.866 160.291 Q208.866 153.161 207.037 149.62 Q205.232 146.055 201.598 146.055 M201.598 142.351 Q207.408 142.351 210.463 146.958 Q213.542 151.541 213.542 160.291 Q213.542 169.018 210.463 173.624 Q207.408 178.208 201.598 178.208 Q195.787 178.208 192.709 173.624 Q189.653 169.018 189.653 160.291 Q189.653 151.541 192.709 146.958 Q195.787 142.351 201.598 142.351 Z" fill="#000000" fill-rule="nonzero" fill-opacity="1"></path><path clip-path="url(#clip940)" d="M16.4842 976.917 L16.4842 936.718 L21.895 936.718 L21.895 953.587 L64.0042 953.587 L64.0042 960.048 L21.895 960.048 L21.895 976.917 L16.4842 976.917 Z" fill="#000000" fill-rule="nonzero" fill-opacity="1"></path><path clip-path="url(#clip940)" d="M33.8307 919.689 Q33.2578 920.676 33.0032 921.854 Q32.7167 923 32.7167 924.4 Q32.7167 929.365 35.9632 932.039 Q39.1779 934.681 45.2253 934.681 L64.0042 934.681 L64.0042 940.569 L28.3562 940.569 L28.3562 934.681 L33.8944 934.681 Q30.6479 932.835 29.0883 929.875 Q27.4968 926.915 27.4968 922.681 Q27.4968 922.077 27.5923 921.345 Q27.656 920.613 27.8151 919.721 L33.8307 919.689 Z" fill="#000000" fill-rule="nonzero" fill-opacity="1"></path><path clip-path="url(#clip940)" d="M49.9359 914.151 L28.3562 914.151 L28.3562 908.295 L49.7131 908.295 Q54.7739 908.295 57.3202 906.322 Q59.8346 904.348 59.8346 900.401 Q59.8346 895.659 56.8109 892.922 Q53.7872 890.153 48.5673 890.153 L28.3562 890.153 L28.3562 884.296 L64.0042 884.296 L64.0042 890.153 L58.5296 890.153 Q61.7762 892.285 63.3676 895.118 Q64.9272 897.919 64.9272 901.643 Q64.9272 907.786 61.1078 910.968 Q57.2883 914.151 49.9359 914.151 M27.4968 899.415 L27.4968 899.415 Z" fill="#000000" fill-rule="nonzero" fill-opacity="1"></path><path clip-path="url(#clip940)" d="M44.7161 841.741 L47.5806 841.741 L47.5806 868.668 Q53.6281 868.286 56.8109 865.04 Q59.9619 861.762 59.9619 855.937 Q59.9619 852.563 59.1344 849.412 Q58.3069 846.229 56.6518 843.11 L62.1899 843.11 Q63.5267 846.261 64.227 849.571 Q64.9272 852.881 64.9272 856.287 Q64.9272 864.817 59.9619 869.814 Q54.9967 874.779 46.5303 874.779 Q37.7774 874.779 32.6531 870.069 Q27.4968 865.326 27.4968 857.306 Q27.4968 850.112 32.1438 845.943 Q36.7589 841.741 44.7161 841.741 M42.9973 847.598 Q38.1912 847.662 35.3266 850.303 Q32.4621 852.913 32.4621 857.242 Q32.4621 862.144 35.2312 865.104 Q38.0002 868.032 43.0292 868.477 L42.9973 847.598 Z" fill="#000000" fill-rule="nonzero" fill-opacity="1"></path><path clip-path="url(#clip940)" d="M21.7677 804.725 L39.6235 804.725 L39.6235 796.64 Q39.6235 792.153 37.3 789.702 Q34.9765 787.251 30.6797 787.251 Q26.4147 787.251 24.0912 789.702 Q21.7677 792.153 21.7677 796.64 L21.7677 804.725 M16.4842 811.154 L16.4842 796.64 Q16.4842 788.651 20.1126 784.577 Q23.7092 780.471 30.6797 780.471 Q37.7138 780.471 41.3104 784.577 Q44.907 788.651 44.907 796.64 L44.907 804.725 L64.0042 804.725 L64.0042 811.154 L16.4842 811.154 Z" fill="#000000" fill-rule="nonzero" fill-opacity="1"></path><path clip-path="url(#clip940)" d="M32.4621 760.61 Q32.4621 765.321 36.1542 768.058 Q39.8145 770.796 46.212 770.796 Q52.6095 770.796 56.3017 768.09 Q59.9619 765.353 59.9619 760.61 Q59.9619 755.932 56.2698 753.194 Q52.5777 750.457 46.212 750.457 Q39.8781 750.457 36.186 753.194 Q32.4621 755.932 32.4621 760.61 M27.4968 760.61 Q27.4968 752.972 32.4621 748.611 Q37.4273 744.251 46.212 744.251 Q54.9649 744.251 59.9619 748.611 Q64.9272 752.972 64.9272 760.61 Q64.9272 768.281 59.9619 772.642 Q54.9649 776.97 46.212 776.97 Q37.4273 776.97 32.4621 772.642 Q27.4968 768.281 27.4968 760.61 Z" fill="#000000" fill-rule="nonzero" fill-opacity="1"></path><path clip-path="url(#clip940)" d="M29.4065 711.817 L34.9447 711.817 Q33.6716 714.3 33.035 716.974 Q32.3984 719.647 32.3984 722.512 Q32.3984 726.872 33.7352 729.068 Q35.072 731.233 37.7456 731.233 Q39.7826 731.233 40.9603 729.673 Q42.1061 728.114 43.1565 723.403 L43.6021 721.398 Q44.9389 715.159 47.3897 712.549 Q49.8086 709.908 54.1691 709.908 Q59.1344 709.908 62.0308 713.854 Q64.9272 717.769 64.9272 724.644 Q64.9272 727.509 64.3543 730.628 Q63.8132 733.715 62.6992 737.153 L56.6518 737.153 Q58.3387 733.906 59.198 730.755 Q60.0256 727.604 60.0256 724.517 Q60.0256 720.379 58.6251 718.151 Q57.1929 715.923 54.6147 715.923 Q52.2276 715.923 50.9545 717.546 Q49.6813 719.138 48.5037 724.581 L48.0262 726.618 Q46.8804 732.06 44.5251 734.479 Q42.138 736.898 38.0002 736.898 Q32.9713 736.898 30.2341 733.333 Q27.4968 729.769 27.4968 723.212 Q27.4968 719.965 27.9743 717.101 Q28.4517 714.236 29.4065 711.817 Z" fill="#000000" fill-rule="nonzero" fill-opacity="1"></path><path clip-path="url(#clip940)" d="M28.3562 700.582 L28.3562 694.725 L64.0042 694.725 L64.0042 700.582 L28.3562 700.582 M14.479 700.582 L14.479 694.725 L21.895 694.725 L21.895 700.582 L14.479 700.582 Z" fill="#000000" fill-rule="nonzero" fill-opacity="1"></path><path clip-path="url(#clip940)" d="M18.2347 676.679 L28.3562 676.679 L28.3562 664.616 L32.9077 664.616 L32.9077 676.679 L52.2594 676.679 Q56.6199 676.679 57.8613 675.501 Q59.1026 674.292 59.1026 670.631 L59.1026 664.616 L64.0042 664.616 L64.0042 670.631 Q64.0042 677.411 61.4897 679.989 Q58.9434 682.567 52.2594 682.567 L32.9077 682.567 L32.9077 686.864 L28.3562 686.864 L28.3562 682.567 L18.2347 682.567 L18.2347 676.679 Z" fill="#000000" fill-rule="nonzero" fill-opacity="1"></path><path clip-path="url(#clip940)" d="M28.3562 656.913 L28.3562 651.057 L64.0042 651.057 L64.0042 656.913 L28.3562 656.913 M14.479 656.913 L14.479 651.057 L21.895 651.057 L21.895 656.913 L14.479 656.913 Z" fill="#000000" fill-rule="nonzero" fill-opacity="1"></path><path clip-path="url(#clip940)" d="M28.3562 643.004 L28.3562 636.797 L58.275 625.658 L28.3562 614.518 L28.3562 608.311 L64.0042 621.679 L64.0042 629.636 L28.3562 643.004 Z" fill="#000000" fill-rule="nonzero" fill-opacity="1"></path><path clip-path="url(#clip940)" d="M44.7161 569.735 L47.5806 569.735 L47.5806 596.662 Q53.6281 596.28 56.8109 593.033 Q59.9619 589.755 59.9619 583.93 Q59.9619 580.556 59.1344 577.405 Q58.3069 574.223 56.6518 571.103 L62.1899 571.103 Q63.5267 574.254 64.227 577.565 Q64.9272 580.875 64.9272 584.28 Q64.9272 592.81 59.9619 597.808 Q54.9967 602.773 46.5303 602.773 Q37.7774 602.773 32.6531 598.062 Q27.4968 593.32 27.4968 585.299 Q27.4968 578.106 32.1438 573.936 Q36.7589 569.735 44.7161 569.735 M42.9973 575.591 Q38.1912 575.655 35.3266 578.297 Q32.4621 580.907 32.4621 585.235 Q32.4621 590.137 35.2312 593.097 Q38.0002 596.025 43.0292 596.471 L42.9973 575.591 Z" fill="#000000" fill-rule="nonzero" fill-opacity="1"></path><path clip-path="url(#clip940)" d="M498.807 44.2197 Q501.44 45.1109 503.911 48.0275 Q506.422 50.9442 508.934 56.0483 L517.238 72.576 L508.448 72.576 L500.711 57.061 Q497.713 50.9847 494.877 48.9997 Q492.082 47.0148 487.221 47.0148 L478.309 47.0148 L478.309 72.576 L470.126 72.576 L470.126 12.096 L488.598 12.096 Q498.969 12.096 504.073 16.4305 Q509.177 20.7649 509.177 29.5149 Q509.177 35.2267 506.503 38.994 Q503.87 42.7613 498.807 44.2197 M478.309 18.8205 L478.309 40.2903 L488.598 40.2903 Q494.513 40.2903 497.51 37.5762 Q500.549 34.8216 500.549 29.5149 Q500.549 24.2082 497.51 21.5346 Q494.513 18.8205 488.598 18.8205 L478.309 18.8205 Z" fill="#000000" fill-rule="nonzero" fill-opacity="1"></path><path clip-path="url(#clip940)" d="M562.527 48.0275 L562.527 51.6733 L528.257 51.6733 Q528.743 59.3701 532.875 63.421 Q537.047 67.4314 544.46 67.4314 Q548.754 67.4314 552.765 66.3781 Q556.816 65.3249 560.785 63.2184 L560.785 70.267 Q556.775 71.9684 552.562 72.8596 Q548.349 73.7508 544.015 73.7508 Q533.158 73.7508 526.798 67.4314 Q520.479 61.1119 520.479 50.3365 Q520.479 39.1965 526.474 32.6746 Q532.51 26.1121 542.718 26.1121 Q551.873 26.1121 557.18 32.0264 Q562.527 37.9003 562.527 48.0275 M555.074 45.84 Q554.993 39.7232 551.63 36.0774 Q548.309 32.4315 542.799 32.4315 Q536.561 32.4315 532.794 35.9558 Q529.067 39.4801 528.5 45.8805 L555.074 45.84 Z" fill="#000000" fill-rule="nonzero" fill-opacity="1"></path><path clip-path="url(#clip940)" d="M607.411 28.9478 L607.411 35.9153 Q604.252 34.1734 601.051 33.3227 Q597.892 32.4315 594.651 32.4315 Q587.4 32.4315 583.39 37.0496 Q579.379 41.6271 579.379 49.9314 Q579.379 58.2358 583.39 62.8538 Q587.4 67.4314 594.651 67.4314 Q597.892 67.4314 601.051 66.5807 Q604.252 65.6895 607.411 63.9476 L607.411 70.8341 Q604.292 72.2924 600.93 73.0216 Q597.608 73.7508 593.841 73.7508 Q583.592 73.7508 577.556 67.3098 Q571.52 60.8689 571.52 49.9314 Q571.52 38.832 577.597 32.472 Q583.714 26.1121 594.327 26.1121 Q597.77 26.1121 601.051 26.8413 Q604.333 27.5299 607.411 28.9478 Z" fill="#000000" fill-rule="nonzero" fill-opacity="1"></path><path clip-path="url(#clip940)" d="M659.182 48.0275 L659.182 51.6733 L624.911 51.6733 Q625.397 59.3701 629.529 63.421 Q633.702 67.4314 641.115 67.4314 Q645.409 67.4314 649.419 66.3781 Q653.47 65.3249 657.44 63.2184 L657.44 70.267 Q653.43 71.9684 649.217 72.8596 Q645.004 73.7508 640.669 73.7508 Q629.813 73.7508 623.453 67.4314 Q617.134 61.1119 617.134 50.3365 Q617.134 39.1965 623.129 32.6746 Q629.165 26.1121 639.373 26.1121 Q648.528 26.1121 653.835 32.0264 Q659.182 37.9003 659.182 48.0275 M651.728 45.84 Q651.647 39.7232 648.285 36.0774 Q644.963 32.4315 639.454 32.4315 Q633.216 32.4315 629.448 35.9558 Q625.721 39.4801 625.154 45.8805 L651.728 45.84 Z" fill="#000000" fill-rule="nonzero" fill-opacity="1"></path><path clip-path="url(#clip940)" d="M671.416 27.2059 L678.869 27.2059 L678.869 72.576 L671.416 72.576 L671.416 27.2059 M671.416 9.54393 L678.869 9.54393 L678.869 18.9825 L671.416 18.9825 L671.416 9.54393 Z" fill="#000000" fill-rule="nonzero" fill-opacity="1"></path><path clip-path="url(#clip940)" d="M689.118 27.2059 L697.017 27.2059 L711.196 65.2844 L725.374 27.2059 L733.273 27.2059 L716.259 72.576 L706.132 72.576 L689.118 27.2059 Z" fill="#000000" fill-rule="nonzero" fill-opacity="1"></path><path clip-path="url(#clip940)" d="M782.37 48.0275 L782.37 51.6733 L748.099 51.6733 Q748.585 59.3701 752.717 63.421 Q756.89 67.4314 764.303 67.4314 Q768.597 67.4314 772.607 66.3781 Q776.658 65.3249 780.628 63.2184 L780.628 70.267 Q776.618 71.9684 772.405 72.8596 Q768.192 73.7508 763.857 73.7508 Q753.001 73.7508 746.641 67.4314 Q740.322 61.1119 740.322 50.3365 Q740.322 39.1965 746.317 32.6746 Q752.353 26.1121 762.561 26.1121 Q771.716 26.1121 777.023 32.0264 Q782.37 37.9003 782.37 48.0275 M774.916 45.84 Q774.835 39.7232 771.473 36.0774 Q768.151 32.4315 762.642 32.4315 Q756.404 32.4315 752.636 35.9558 Q748.909 39.4801 748.342 45.8805 L774.916 45.84 Z" fill="#000000" fill-rule="nonzero" fill-opacity="1"></path><path clip-path="url(#clip940)" d="M820.894 34.1734 Q819.638 33.4443 818.139 33.1202 Q816.681 32.7556 814.899 32.7556 Q808.579 32.7556 805.177 36.8875 Q801.814 40.9789 801.814 48.6757 L801.814 72.576 L794.32 72.576 L794.32 27.2059 L801.814 27.2059 L801.814 34.2544 Q804.164 30.1225 807.931 28.1376 Q811.698 26.1121 817.086 26.1121 Q817.856 26.1121 818.788 26.2337 Q819.719 26.3147 820.854 26.5172 L820.894 34.1734 Z" fill="#000000" fill-rule="nonzero" fill-opacity="1"></path><path clip-path="url(#clip940)" d="M879.956 17.6457 Q871.044 17.6457 865.778 24.2892 Q860.552 30.9327 860.552 42.3968 Q860.552 53.8203 865.778 60.4638 Q871.044 67.1073 879.956 67.1073 Q888.868 67.1073 894.053 60.4638 Q899.279 53.8203 899.279 42.3968 Q899.279 30.9327 894.053 24.2892 Q888.868 17.6457 879.956 17.6457 M879.956 11.0023 Q892.676 11.0023 900.292 19.5497 Q907.907 28.0566 907.907 42.3968 Q907.907 56.6965 900.292 65.2439 Q892.676 73.7508 879.956 73.7508 Q867.196 73.7508 859.54 65.2439 Q851.924 56.737 851.924 42.3968 Q851.924 28.0566 859.54 19.5497 Q867.196 11.0023 879.956 11.0023 Z" fill="#000000" fill-rule="nonzero" fill-opacity="1"></path><path clip-path="url(#clip940)" d="M927.595 65.7705 L927.595 89.8329 L920.101 89.8329 L920.101 27.2059 L927.595 27.2059 L927.595 34.0924 Q929.944 30.0415 933.509 28.0971 Q937.114 26.1121 942.097 26.1121 Q950.361 26.1121 955.506 32.6746 Q960.691 39.2371 960.691 49.9314 Q960.691 60.6258 955.506 67.1883 Q950.361 73.7508 942.097 73.7508 Q937.114 73.7508 933.509 71.8063 Q929.944 69.8214 927.595 65.7705 M952.953 49.9314 Q952.953 41.7081 949.551 37.0496 Q946.188 32.3505 940.274 32.3505 Q934.36 32.3505 930.957 37.0496 Q927.595 41.7081 927.595 49.9314 Q927.595 58.1548 930.957 62.8538 Q934.36 67.5124 940.274 67.5124 Q946.188 67.5124 949.551 62.8538 Q952.953 58.1548 952.953 49.9314 Z" fill="#000000" fill-rule="nonzero" fill-opacity="1"></path><path clip-path="url(#clip940)" d="M1011.85 48.0275 L1011.85 51.6733 L977.583 51.6733 Q978.069 59.3701 982.201 63.421 Q986.373 67.4314 993.787 67.4314 Q998.081 67.4314 1002.09 66.3781 Q1006.14 65.3249 1010.11 63.2184 L1010.11 70.267 Q1006.1 71.9684 1001.89 72.8596 Q997.675 73.7508 993.341 73.7508 Q982.485 73.7508 976.125 67.4314 Q969.805 61.1119 969.805 50.3365 Q969.805 39.1965 975.801 32.6746 Q981.836 26.1121 992.045 26.1121 Q1001.2 26.1121 1006.51 32.0264 Q1011.85 37.9003 1011.85 48.0275 M1004.4 45.84 Q1004.32 39.7232 1000.96 36.0774 Q997.635 32.4315 992.126 32.4315 Q985.887 32.4315 982.12 35.9558 Q978.393 39.4801 977.826 45.8805 L1004.4 45.84 Z" fill="#000000" fill-rule="nonzero" fill-opacity="1"></path><path clip-path="url(#clip940)" d="M1050.38 34.1734 Q1049.12 33.4443 1047.62 33.1202 Q1046.16 32.7556 1044.38 32.7556 Q1038.06 32.7556 1034.66 36.8875 Q1031.3 40.9789 1031.3 48.6757 L1031.3 72.576 L1023.8 72.576 L1023.8 27.2059 L1031.3 27.2059 L1031.3 34.2544 Q1033.65 30.1225 1037.41 28.1376 Q1041.18 26.1121 1046.57 26.1121 Q1047.34 26.1121 1048.27 26.2337 Q1049.2 26.3147 1050.34 26.5172 L1050.38 34.1734 Z" fill="#000000" fill-rule="nonzero" fill-opacity="1"></path><path clip-path="url(#clip940)" d="M1078.82 49.7694 Q1069.78 49.7694 1066.3 51.8354 Q1062.81 53.9013 1062.81 58.8839 Q1062.81 62.8538 1065.41 65.2034 Q1068.04 67.5124 1072.54 67.5124 Q1078.73 67.5124 1082.46 63.1374 Q1086.23 58.7219 1086.23 51.4303 L1086.23 49.7694 L1078.82 49.7694 M1093.68 46.6907 L1093.68 72.576 L1086.23 72.576 L1086.23 65.6895 Q1083.68 69.8214 1079.87 71.8063 Q1076.06 73.7508 1070.55 73.7508 Q1063.58 73.7508 1059.45 69.8619 Q1055.36 65.9325 1055.36 59.3701 Q1055.36 51.7138 1060.46 47.825 Q1065.61 43.9361 1075.78 43.9361 L1086.23 43.9361 L1086.23 43.2069 Q1086.23 38.0623 1082.83 35.2672 Q1079.46 32.4315 1073.35 32.4315 Q1069.46 32.4315 1065.77 33.3632 Q1062.08 34.295 1058.68 36.1584 L1058.68 29.2718 Q1062.77 27.692 1066.62 26.9223 Q1070.47 26.1121 1074.12 26.1121 Q1083.96 26.1121 1088.82 31.2163 Q1093.68 36.3204 1093.68 46.6907 Z" fill="#000000" fill-rule="nonzero" fill-opacity="1"></path><path clip-path="url(#clip940)" d="M1116.41 14.324 L1116.41 27.2059 L1131.76 27.2059 L1131.76 32.9987 L1116.41 32.9987 L1116.41 57.6282 Q1116.41 63.1779 1117.91 64.7578 Q1119.45 66.3376 1124.1 66.3376 L1131.76 66.3376 L1131.76 72.576 L1124.1 72.576 Q1115.48 72.576 1112.19 69.3758 Q1108.91 66.1351 1108.91 57.6282 L1108.91 32.9987 L1103.44 32.9987 L1103.44 27.2059 L1108.91 27.2059 L1108.91 14.324 L1116.41 14.324 Z" fill="#000000" fill-rule="nonzero" fill-opacity="1"></path><path clip-path="url(#clip940)" d="M1141.56 27.2059 L1149.02 27.2059 L1149.02 72.576 L1141.56 72.576 L1141.56 27.2059 M1141.56 9.54393 L1149.02 9.54393 L1149.02 18.9825 L1141.56 18.9825 L1141.56 9.54393 Z" fill="#000000" fill-rule="nonzero" fill-opacity="1"></path><path clip-path="url(#clip940)" d="M1202.33 45.1919 L1202.33 72.576 L1194.87 72.576 L1194.87 45.4349 Q1194.87 38.994 1192.36 35.7938 Q1189.85 32.5936 1184.83 32.5936 Q1178.79 32.5936 1175.31 36.4419 Q1171.82 40.2903 1171.82 46.9338 L1171.82 72.576 L1164.33 72.576 L1164.33 27.2059 L1171.82 27.2059 L1171.82 34.2544 Q1174.5 30.163 1178.1 28.1376 Q1181.75 26.1121 1186.49 26.1121 Q1194.31 26.1121 1198.32 30.9732 Q1202.33 35.7938 1202.33 45.1919 Z" fill="#000000" fill-rule="nonzero" fill-opacity="1"></path><path clip-path="url(#clip940)" d="M1247.05 49.3643 Q1247.05 41.2625 1243.69 36.8065 Q1240.37 32.3505 1234.33 32.3505 Q1228.33 32.3505 1224.97 36.8065 Q1221.65 41.2625 1221.65 49.3643 Q1221.65 57.4256 1224.97 61.8816 Q1228.33 66.3376 1234.33 66.3376 Q1240.37 66.3376 1243.69 61.8816 Q1247.05 57.4256 1247.05 49.3643 M1254.5 66.9452 Q1254.5 78.5308 1249.36 84.1616 Q1244.21 89.8329 1233.6 89.8329 Q1229.67 89.8329 1226.19 89.2252 Q1222.7 88.6581 1219.42 87.4428 L1219.42 80.1917 Q1222.7 81.9741 1225.9 82.8248 Q1229.1 83.6755 1232.43 83.6755 Q1239.76 83.6755 1243.4 79.8271 Q1247.05 76.0193 1247.05 68.282 L1247.05 64.5957 Q1244.74 68.6061 1241.13 70.5911 Q1237.53 72.576 1232.51 72.576 Q1224.16 72.576 1219.06 66.2161 Q1213.95 59.8562 1213.95 49.3643 Q1213.95 38.832 1219.06 32.472 Q1224.16 26.1121 1232.51 26.1121 Q1237.53 26.1121 1241.13 28.0971 Q1244.74 30.082 1247.05 34.0924 L1247.05 27.2059 L1254.5 27.2059 L1254.5 66.9452 Z" fill="#000000" fill-rule="nonzero" fill-opacity="1"></path><path clip-path="url(#clip940)" d="M1341.84 16.7545 L1341.84 25.383 Q1337.71 21.5346 1333.01 19.6307 Q1328.35 17.7268 1323.08 17.7268 Q1312.71 17.7268 1307.21 24.0867 Q1301.7 30.4061 1301.7 42.3968 Q1301.7 54.3469 1307.21 60.7069 Q1312.71 67.0263 1323.08 67.0263 Q1328.35 67.0263 1333.01 65.1223 Q1337.71 63.2184 1341.84 59.3701 L1341.84 67.9175 Q1337.55 70.8341 1332.73 72.2924 Q1327.95 73.7508 1322.6 73.7508 Q1308.87 73.7508 1300.97 65.3654 Q1293.07 56.9395 1293.07 42.3968 Q1293.07 27.8135 1300.97 19.4281 Q1308.87 11.0023 1322.6 11.0023 Q1328.03 11.0023 1332.81 12.4606 Q1337.63 13.8784 1341.84 16.7545 Z" fill="#000000" fill-rule="nonzero" fill-opacity="1"></path><path clip-path="url(#clip940)" d="M1391.87 45.1919 L1391.87 72.576 L1384.42 72.576 L1384.42 45.4349 Q1384.42 38.994 1381.9 35.7938 Q1379.39 32.5936 1374.37 32.5936 Q1368.33 32.5936 1364.85 36.4419 Q1361.37 40.2903 1361.37 46.9338 L1361.37 72.576 L1353.87 72.576 L1353.87 9.54393 L1361.37 9.54393 L1361.37 34.2544 Q1364.04 30.163 1367.64 28.1376 Q1371.29 26.1121 1376.03 26.1121 Q1383.85 26.1121 1387.86 30.9732 Q1391.87 35.7938 1391.87 45.1919 Z" fill="#000000" fill-rule="nonzero" fill-opacity="1"></path><path clip-path="url(#clip940)" d="M1427.35 49.7694 Q1418.32 49.7694 1414.84 51.8354 Q1411.35 53.9013 1411.35 58.8839 Q1411.35 62.8538 1413.95 65.2034 Q1416.58 67.5124 1421.08 67.5124 Q1427.27 67.5124 1431 63.1374 Q1434.77 58.7219 1434.77 51.4303 L1434.77 49.7694 L1427.35 49.7694 M1442.22 46.6907 L1442.22 72.576 L1434.77 72.576 L1434.77 65.6895 Q1432.22 69.8214 1428.41 71.8063 Q1424.6 73.7508 1419.09 73.7508 Q1412.12 73.7508 1407.99 69.8619 Q1403.9 65.9325 1403.9 59.3701 Q1403.9 51.7138 1409 47.825 Q1414.15 43.9361 1424.32 43.9361 L1434.77 43.9361 L1434.77 43.2069 Q1434.77 38.0623 1431.37 35.2672 Q1428 32.4315 1421.89 32.4315 Q1418 32.4315 1414.31 33.3632 Q1410.62 34.295 1407.22 36.1584 L1407.22 29.2718 Q1411.31 27.692 1415.16 26.9223 Q1419.01 26.1121 1422.66 26.1121 Q1432.5 26.1121 1437.36 31.2163 Q1442.22 36.3204 1442.22 46.6907 Z" fill="#000000" fill-rule="nonzero" fill-opacity="1"></path><path clip-path="url(#clip940)" d="M1483.87 34.1734 Q1482.61 33.4443 1481.11 33.1202 Q1479.65 32.7556 1477.87 32.7556 Q1471.55 32.7556 1468.15 36.8875 Q1464.79 40.9789 1464.79 48.6757 L1464.79 72.576 L1457.29 72.576 L1457.29 27.2059 L1464.79 27.2059 L1464.79 34.2544 Q1467.13 30.1225 1470.9 28.1376 Q1474.67 26.1121 1480.06 26.1121 Q1480.83 26.1121 1481.76 26.2337 Q1482.69 26.3147 1483.82 26.5172 L1483.87 34.1734 Z" fill="#000000" fill-rule="nonzero" fill-opacity="1"></path><path clip-path="url(#clip940)" d="M1512.3 49.7694 Q1503.27 49.7694 1499.79 51.8354 Q1496.3 53.9013 1496.3 58.8839 Q1496.3 62.8538 1498.89 65.2034 Q1501.53 67.5124 1506.02 67.5124 Q1512.22 67.5124 1515.95 63.1374 Q1519.72 58.7219 1519.72 51.4303 L1519.72 49.7694 L1512.3 49.7694 M1527.17 46.6907 L1527.17 72.576 L1519.72 72.576 L1519.72 65.6895 Q1517.16 69.8214 1513.36 71.8063 Q1509.55 73.7508 1504.04 73.7508 Q1497.07 73.7508 1492.94 69.8619 Q1488.85 65.9325 1488.85 59.3701 Q1488.85 51.7138 1493.95 47.825 Q1499.1 43.9361 1509.26 43.9361 L1519.72 43.9361 L1519.72 43.2069 Q1519.72 38.0623 1516.31 35.2672 Q1512.95 32.4315 1506.83 32.4315 Q1502.94 32.4315 1499.26 33.3632 Q1495.57 34.295 1492.17 36.1584 L1492.17 29.2718 Q1496.26 27.692 1500.11 26.9223 Q1503.96 26.1121 1507.6 26.1121 Q1517.45 26.1121 1522.31 31.2163 Q1527.17 36.3204 1527.17 46.6907 Z" fill="#000000" fill-rule="nonzero" fill-opacity="1"></path><path clip-path="url(#clip940)" d="M1575.17 28.9478 L1575.17 35.9153 Q1572.01 34.1734 1568.81 33.3227 Q1565.65 32.4315 1562.41 32.4315 Q1555.16 32.4315 1551.15 37.0496 Q1547.14 41.6271 1547.14 49.9314 Q1547.14 58.2358 1551.15 62.8538 Q1555.16 67.4314 1562.41 67.4314 Q1565.65 67.4314 1568.81 66.5807 Q1572.01 65.6895 1575.17 63.9476 L1575.17 70.8341 Q1572.05 72.2924 1568.69 73.0216 Q1565.37 73.7508 1561.6 73.7508 Q1551.35 73.7508 1545.32 67.3098 Q1539.28 60.8689 1539.28 49.9314 Q1539.28 38.832 1545.36 32.472 Q1551.47 26.1121 1562.09 26.1121 Q1565.53 26.1121 1568.81 26.8413 Q1572.09 27.5299 1575.17 28.9478 Z" fill="#000000" fill-rule="nonzero" fill-opacity="1"></path><path clip-path="url(#clip940)" d="M1595.51 14.324 L1595.51 27.2059 L1610.86 27.2059 L1610.86 32.9987 L1595.51 32.9987 L1595.51 57.6282 Q1595.51 63.1779 1597.01 64.7578 Q1598.55 66.3376 1603.2 66.3376 L1610.86 66.3376 L1610.86 72.576 L1603.2 72.576 Q1594.58 72.576 1591.29 69.3758 Q1588.01 66.1351 1588.01 57.6282 L1588.01 32.9987 L1582.55 32.9987 L1582.55 27.2059 L1588.01 27.2059 L1588.01 14.324 L1595.51 14.324 Z" fill="#000000" fill-rule="nonzero" fill-opacity="1"></path><path clip-path="url(#clip940)" d="M1659.47 48.0275 L1659.47 51.6733 L1625.2 51.6733 Q1625.69 59.3701 1629.82 63.421 Q1633.99 67.4314 1641.4 67.4314 Q1645.7 67.4314 1649.71 66.3781 Q1653.76 65.3249 1657.73 63.2184 L1657.73 70.267 Q1653.72 71.9684 1649.51 72.8596 Q1645.29 73.7508 1640.96 73.7508 Q1630.1 73.7508 1623.74 67.4314 Q1617.42 61.1119 1617.42 50.3365 Q1617.42 39.1965 1623.42 32.6746 Q1629.45 26.1121 1639.66 26.1121 Q1648.82 26.1121 1654.12 32.0264 Q1659.47 37.9003 1659.47 48.0275 M1652.02 45.84 Q1651.94 39.7232 1648.57 36.0774 Q1645.25 32.4315 1639.74 32.4315 Q1633.51 32.4315 1629.74 35.9558 Q1626.01 39.4801 1625.44 45.8805 L1652.02 45.84 Z" fill="#000000" fill-rule="nonzero" fill-opacity="1"></path><path clip-path="url(#clip940)" d="M1698 34.1734 Q1696.74 33.4443 1695.24 33.1202 Q1693.78 32.7556 1692 32.7556 Q1685.68 32.7556 1682.28 36.8875 Q1678.92 40.9789 1678.92 48.6757 L1678.92 72.576 L1671.42 72.576 L1671.42 27.2059 L1678.92 27.2059 L1678.92 34.2544 Q1681.27 30.1225 1685.03 28.1376 Q1688.8 26.1121 1694.19 26.1121 Q1694.96 26.1121 1695.89 26.2337 Q1696.82 26.3147 1697.96 26.5172 L1698 34.1734 Z" fill="#000000" fill-rule="nonzero" fill-opacity="1"></path><path clip-path="url(#clip940)" d="M1705.81 27.2059 L1713.27 27.2059 L1713.27 72.576 L1705.81 72.576 L1705.81 27.2059 M1705.81 9.54393 L1713.27 9.54393 L1713.27 18.9825 L1705.81 18.9825 L1705.81 9.54393 Z" fill="#000000" fill-rule="nonzero" fill-opacity="1"></path><path clip-path="url(#clip940)" d="M1757.79 28.5427 L1757.79 35.5912 Q1754.63 33.9709 1751.22 33.1607 Q1747.82 32.3505 1744.18 32.3505 Q1738.63 32.3505 1735.83 34.0519 Q1733.08 35.7533 1733.08 39.156 Q1733.08 41.7486 1735.06 43.2475 Q1737.05 44.7058 1743.04 46.0426 L1745.59 46.6097 Q1753.53 48.3111 1756.86 51.4303 Q1760.22 54.509 1760.22 60.0587 Q1760.22 66.3781 1755.19 70.0644 Q1750.21 73.7508 1741.46 73.7508 Q1737.82 73.7508 1733.85 73.0216 Q1729.92 72.3329 1725.54 70.9151 L1725.54 63.2184 Q1729.67 65.3654 1733.68 66.4591 Q1737.69 67.5124 1741.62 67.5124 Q1746.89 67.5124 1749.73 65.73 Q1752.56 63.9071 1752.56 60.6258 Q1752.56 57.5877 1750.5 55.9673 Q1748.47 54.3469 1741.54 52.8481 L1738.95 52.2405 Q1732.02 50.7821 1728.94 47.7845 Q1725.87 44.7463 1725.87 39.4801 Q1725.87 33.0797 1730.4 29.5959 Q1734.94 26.1121 1743.28 26.1121 Q1747.42 26.1121 1751.06 26.7198 Q1754.71 27.3274 1757.79 28.5427 Z" fill="#000000" fill-rule="nonzero" fill-opacity="1"></path><path clip-path="url(#clip940)" d="M1779.46 14.324 L1779.46 27.2059 L1794.81 27.2059 L1794.81 32.9987 L1779.46 32.9987 L1779.46 57.6282 Q1779.46 63.1779 1780.96 64.7578 Q1782.5 66.3376 1787.16 66.3376 L1794.81 66.3376 L1794.81 72.576 L1787.16 72.576 Q1778.53 72.576 1775.25 69.3758 Q1771.97 66.1351 1771.97 57.6282 L1771.97 32.9987 L1766.5 32.9987 L1766.5 27.2059 L1771.97 27.2059 L1771.97 14.324 L1779.46 14.324 Z" fill="#000000" fill-rule="nonzero" fill-opacity="1"></path><path clip-path="url(#clip940)" d="M1804.62 27.2059 L1812.07 27.2059 L1812.07 72.576 L1804.62 72.576 L1804.62 27.2059 M1804.62 9.54393 L1812.07 9.54393 L1812.07 18.9825 L1804.62 18.9825 L1804.62 9.54393 Z" fill="#000000" fill-rule="nonzero" fill-opacity="1"></path><path clip-path="url(#clip940)" d="M1860.32 28.9478 L1860.32 35.9153 Q1857.16 34.1734 1853.96 33.3227 Q1850.8 32.4315 1847.56 32.4315 Q1840.3 32.4315 1836.29 37.0496 Q1832.28 41.6271 1832.28 49.9314 Q1832.28 58.2358 1836.29 62.8538 Q1840.3 67.4314 1847.56 67.4314 Q1850.8 67.4314 1853.96 66.5807 Q1857.16 65.6895 1860.32 63.9476 L1860.32 70.8341 Q1857.2 72.2924 1853.83 73.0216 Q1850.51 73.7508 1846.75 73.7508 Q1836.5 73.7508 1830.46 67.3098 Q1824.42 60.8689 1824.42 49.9314 Q1824.42 38.832 1830.5 32.472 Q1836.62 26.1121 1847.23 26.1121 Q1850.67 26.1121 1853.96 26.8413 Q1857.24 27.5299 1860.32 28.9478 Z" fill="#000000" fill-rule="nonzero" fill-opacity="1"></path><path clip-path="url(#clip940)" d="M1945.26 16.7545 L1945.26 25.383 Q1941.13 21.5346 1936.43 19.6307 Q1931.77 17.7268 1926.51 17.7268 Q1916.14 17.7268 1910.63 24.0867 Q1905.12 30.4061 1905.12 42.3968 Q1905.12 54.3469 1910.63 60.7069 Q1916.14 67.0263 1926.51 67.0263 Q1931.77 67.0263 1936.43 65.1223 Q1941.13 63.2184 1945.26 59.3701 L1945.26 67.9175 Q1940.97 70.8341 1936.15 72.2924 Q1931.37 73.7508 1926.02 73.7508 Q1912.29 73.7508 1904.39 65.3654 Q1896.49 56.9395 1896.49 42.3968 Q1896.49 27.8135 1904.39 19.4281 Q1912.29 11.0023 1926.02 11.0023 Q1931.45 11.0023 1936.23 12.4606 Q1941.05 13.8784 1945.26 16.7545 Z" fill="#000000" fill-rule="nonzero" fill-opacity="1"></path><path clip-path="url(#clip940)" d="M1956.81 54.671 L1956.81 27.2059 L1964.26 27.2059 L1964.26 54.3874 Q1964.26 60.8284 1966.77 64.0691 Q1969.28 67.2693 1974.31 67.2693 Q1980.34 67.2693 1983.83 63.421 Q1987.35 59.5726 1987.35 52.9291 L1987.35 27.2059 L1994.81 27.2059 L1994.81 72.576 L1987.35 72.576 L1987.35 65.6084 Q1984.64 69.7404 1981.03 71.7658 Q1977.47 73.7508 1972.73 73.7508 Q1964.91 73.7508 1960.86 68.8897 Q1956.81 64.0286 1956.81 54.671 M1975.56 26.1121 L1975.56 26.1121 Z" fill="#000000" fill-rule="nonzero" fill-opacity="1"></path><path clip-path="url(#clip940)" d="M2036.45 34.1734 Q2035.19 33.4443 2033.69 33.1202 Q2032.24 32.7556 2030.45 32.7556 Q2024.13 32.7556 2020.73 36.8875 Q2017.37 40.9789 2017.37 48.6757 L2017.37 72.576 L2009.87 72.576 L2009.87 27.2059 L2017.37 27.2059 L2017.37 34.2544 Q2019.72 30.1225 2023.49 28.1376 Q2027.25 26.1121 2032.64 26.1121 Q2033.41 26.1121 2034.34 26.2337 Q2035.27 26.3147 2036.41 26.5172 L2036.45 34.1734 Z" fill="#000000" fill-rule="nonzero" fill-opacity="1"></path><path clip-path="url(#clip940)" d="M2038.92 27.2059 L2046.82 27.2059 L2061 65.2844 L2075.18 27.2059 L2083.07 27.2059 L2066.06 72.576 L2055.93 72.576 L2038.92 27.2059 Z" fill="#000000" fill-rule="nonzero" fill-opacity="1"></path><path clip-path="url(#clip940)" d="M2132.17 48.0275 L2132.17 51.6733 L2097.9 51.6733 Q2098.39 59.3701 2102.52 63.421 Q2106.69 67.4314 2114.1 67.4314 Q2118.4 67.4314 2122.41 66.3781 Q2126.46 65.3249 2130.43 63.2184 L2130.43 70.267 Q2126.42 71.9684 2122.21 72.8596 Q2117.99 73.7508 2113.66 73.7508 Q2102.8 73.7508 2096.44 67.4314 Q2090.12 61.1119 2090.12 50.3365 Q2090.12 39.1965 2096.12 32.6746 Q2102.15 26.1121 2112.36 26.1121 Q2121.52 26.1121 2126.82 32.0264 Q2132.17 37.9003 2132.17 48.0275 M2124.72 45.84 Q2124.64 39.7232 2121.27 36.0774 Q2117.95 32.4315 2112.44 32.4315 Q2106.21 32.4315 2102.44 35.9558 Q2098.71 39.4801 2098.14 45.8805 L2124.72 45.84 Z" fill="#000000" fill-rule="nonzero" fill-opacity="1"></path><polyline clip-path="url(#clip942)" style="stroke:#0000ff; stroke-linecap:round; stroke-linejoin:round; stroke-width:4; stroke-opacity:1; fill:none" points="309.067,1386.4 309.067,1357.2 309.067,1328.01 309.067,1298.81 309.067,1269.62 309.067,1240.43 309.067,1211.23 309.067,1182.04 309.067,1152.85 309.067,1123.65 309.067,1094.46 309.067,1065.26 309.067,1036.07 309.067,1006.88 309.067,977.683 309.067,948.489 309.067,919.295 309.067,890.101 309.067,860.907 309.067,831.714 309.067,802.52 309.067,773.326 309.067,744.132 309.067,714.938 309.067,685.745 309.067,656.551 309.067,627.357 309.067,598.163 309.067,568.969 309.067,539.776 309.067,510.582 309.067,481.388 309.067,452.194 309.067,423 309.067,393.807 309.067,364.613 309.067,335.419 336.625,335.419 336.625,306.225 336.625,277.031 336.625,247.838 336.625,218.644 336.625,189.45 364.183,189.45 391.74,189.45 419.298,189.45 446.856,189.45 474.414,189.45 501.972,189.45 529.53,189.45 557.087,189.45 584.645,189.45 612.203,189.45 639.761,189.45 667.319,189.45 694.877,189.45 722.434,189.45 749.992,189.45 777.55,189.45 805.108,189.45 805.108,160.256 832.666,160.256 860.224,160.256 887.781,160.256 915.339,160.256 942.897,160.256 970.455,160.256 998.013,160.256 1025.57,160.256 1053.13,160.256 1080.69,160.256 1108.24,160.256 1135.8,160.256 1163.36,160.256 1190.92,160.256 1218.48,160.256 1246.03,160.256 1273.59,160.256 1301.15,160.256 1328.71,160.256 1356.26,160.256 1383.82,160.256 1411.38,160.256 1438.94,160.256 1466.5,160.256 1494.05,160.256 1521.61,160.256 1549.17,160.256 1576.73,160.256 1604.29,160.256 1631.84,160.256 1659.4,160.256 1686.96,160.256 1714.52,160.256 1742.07,160.256 1769.63,160.256 1797.19,160.256 1824.75,160.256 1852.31,160.256 1879.86,160.256 1907.42,160.256 1934.98,160.256 1962.54,160.256 1990.09,160.256 2017.65,160.256 2045.21,160.256 2072.77,160.256 2100.33,160.256 2127.88,160.256 2155.44,160.256 2183,160.256 2210.56,160.256 2238.12,160.256 2265.67,160.256 2293.23,160.256 "></polyline>
<polyline clip-path="url(#clip942)" style="stroke:#808080; stroke-linecap:round; stroke-linejoin:round; stroke-width:8; stroke-opacity:1; fill:none" stroke-dasharray="32, 20" points="309.067,1386.4 2293.23,160.256 "></polyline>
<path clip-path="url(#clip940)" d="M1313.67 1379.86 L2282.65 1379.86 L2282.65 1224.34 L1313.67 1224.34  Z" fill="#ffffff" fill-rule="evenodd" fill-opacity="1"></path>
<polyline clip-path="url(#clip940)" style="stroke:#000000; stroke-linecap:round; stroke-linejoin:round; stroke-width:4; stroke-opacity:1; fill:none" points="1313.67,1379.86 2282.65,1379.86 2282.65,1224.34 1313.67,1224.34 1313.67,1379.86 "></polyline>
<polyline clip-path="url(#clip940)" style="stroke:#0000ff; stroke-linecap:round; stroke-linejoin:round; stroke-width:4; stroke-opacity:1; fill:none" points="1337.04,1276.18 1477.26,1276.18 "></polyline>
<path clip-path="url(#clip940)" d="M1500.63 1258.9 L1505.3 1258.9 L1505.3 1289.52 L1522.13 1289.52 L1522.13 1293.46 L1500.63 1293.46 L1500.63 1258.9 Z" fill="#000000" fill-rule="nonzero" fill-opacity="1"></path><path clip-path="url(#clip940)" d="M1536.07 1270.52 Q1532.64 1270.52 1530.65 1273.2 Q1528.66 1275.86 1528.66 1280.52 Q1528.66 1285.17 1530.63 1287.85 Q1532.62 1290.52 1536.07 1290.52 Q1539.47 1290.52 1541.46 1287.83 Q1543.45 1285.15 1543.45 1280.52 Q1543.45 1275.91 1541.46 1273.22 Q1539.47 1270.52 1536.07 1270.52 M1536.07 1266.91 Q1541.62 1266.91 1544.79 1270.52 Q1547.96 1274.13 1547.96 1280.52 Q1547.96 1286.88 1544.79 1290.52 Q1541.62 1294.13 1536.07 1294.13 Q1530.49 1294.13 1527.32 1290.52 Q1524.17 1286.88 1524.17 1280.52 Q1524.17 1274.13 1527.32 1270.52 Q1530.49 1266.91 1536.07 1266.91 Z" fill="#000000" fill-rule="nonzero" fill-opacity="1"></path><path clip-path="url(#clip940)" d="M1572.08 1280.19 Q1572.08 1275.56 1570.16 1273.02 Q1568.26 1270.47 1564.82 1270.47 Q1561.39 1270.47 1559.47 1273.02 Q1557.57 1275.56 1557.57 1280.19 Q1557.57 1284.8 1559.47 1287.35 Q1561.39 1289.89 1564.82 1289.89 Q1568.26 1289.89 1570.16 1287.35 Q1572.08 1284.8 1572.08 1280.19 M1576.34 1290.24 Q1576.34 1296.86 1573.4 1300.08 Q1570.46 1303.32 1564.4 1303.32 Q1562.15 1303.32 1560.16 1302.97 Q1558.17 1302.65 1556.3 1301.95 L1556.3 1297.81 Q1558.17 1298.83 1560 1299.31 Q1561.83 1299.8 1563.73 1299.8 Q1567.92 1299.8 1570 1297.6 Q1572.08 1295.42 1572.08 1291 L1572.08 1288.9 Q1570.76 1291.19 1568.7 1292.32 Q1566.64 1293.46 1563.77 1293.46 Q1559.01 1293.46 1556.09 1289.82 Q1553.17 1286.19 1553.17 1280.19 Q1553.17 1274.17 1556.09 1270.54 Q1559.01 1266.91 1563.77 1266.91 Q1566.64 1266.91 1568.7 1268.04 Q1570.76 1269.17 1572.08 1271.47 L1572.08 1267.53 L1576.34 1267.53 L1576.34 1290.24 Z" fill="#000000" fill-rule="nonzero" fill-opacity="1"></path><path clip-path="url(#clip940)" d="M1585.12 1267.53 L1589.38 1267.53 L1589.38 1293.46 L1585.12 1293.46 L1585.12 1267.53 M1585.12 1257.44 L1589.38 1257.44 L1589.38 1262.83 L1585.12 1262.83 L1585.12 1257.44 Z" fill="#000000" fill-rule="nonzero" fill-opacity="1"></path><path clip-path="url(#clip940)" d="M1614.82 1268.29 L1614.82 1272.32 Q1613.01 1271.4 1611.07 1270.93 Q1609.12 1270.47 1607.04 1270.47 Q1603.87 1270.47 1602.27 1271.44 Q1600.7 1272.41 1600.7 1274.36 Q1600.7 1275.84 1601.83 1276.7 Q1602.96 1277.53 1606.39 1278.29 L1607.85 1278.62 Q1612.39 1279.59 1614.28 1281.37 Q1616.2 1283.13 1616.2 1286.3 Q1616.2 1289.91 1613.33 1292.02 Q1610.49 1294.13 1605.49 1294.13 Q1603.4 1294.13 1601.14 1293.71 Q1598.89 1293.32 1596.39 1292.51 L1596.39 1288.11 Q1598.75 1289.34 1601.04 1289.96 Q1603.33 1290.56 1605.58 1290.56 Q1608.59 1290.56 1610.21 1289.54 Q1611.83 1288.5 1611.83 1286.63 Q1611.83 1284.89 1610.65 1283.97 Q1609.49 1283.04 1605.53 1282.18 L1604.05 1281.84 Q1600.09 1281 1598.33 1279.29 Q1596.57 1277.55 1596.57 1274.54 Q1596.57 1270.89 1599.17 1268.9 Q1601.76 1266.91 1606.53 1266.91 Q1608.89 1266.91 1610.97 1267.25 Q1613.06 1267.6 1614.82 1268.29 Z" fill="#000000" fill-rule="nonzero" fill-opacity="1"></path><path clip-path="url(#clip940)" d="M1627.2 1260.17 L1627.2 1267.53 L1635.97 1267.53 L1635.97 1270.84 L1627.2 1270.84 L1627.2 1284.91 Q1627.2 1288.09 1628.06 1288.99 Q1628.94 1289.89 1631.6 1289.89 L1635.97 1289.89 L1635.97 1293.46 L1631.6 1293.46 Q1626.67 1293.46 1624.79 1291.63 Q1622.92 1289.78 1622.92 1284.91 L1622.92 1270.84 L1619.79 1270.84 L1619.79 1267.53 L1622.92 1267.53 L1622.92 1260.17 L1627.2 1260.17 Z" fill="#000000" fill-rule="nonzero" fill-opacity="1"></path><path clip-path="url(#clip940)" d="M1641.57 1267.53 L1645.83 1267.53 L1645.83 1293.46 L1641.57 1293.46 L1641.57 1267.53 M1641.57 1257.44 L1645.83 1257.44 L1645.83 1262.83 L1641.57 1262.83 L1641.57 1257.44 Z" fill="#000000" fill-rule="nonzero" fill-opacity="1"></path><path clip-path="url(#clip940)" d="M1673.4 1268.53 L1673.4 1272.51 Q1671.6 1271.51 1669.77 1271.03 Q1667.96 1270.52 1666.11 1270.52 Q1661.97 1270.52 1659.68 1273.16 Q1657.38 1275.77 1657.38 1280.52 Q1657.38 1285.26 1659.68 1287.9 Q1661.97 1290.52 1666.11 1290.52 Q1667.96 1290.52 1669.77 1290.03 Q1671.6 1289.52 1673.4 1288.53 L1673.4 1292.46 Q1671.62 1293.29 1669.7 1293.71 Q1667.8 1294.13 1665.65 1294.13 Q1659.79 1294.13 1656.34 1290.45 Q1652.89 1286.77 1652.89 1280.52 Q1652.89 1274.17 1656.37 1270.54 Q1659.86 1266.91 1665.93 1266.91 Q1667.89 1266.91 1669.77 1267.32 Q1671.64 1267.72 1673.4 1268.53 Z" fill="#000000" fill-rule="nonzero" fill-opacity="1"></path><path clip-path="url(#clip940)" d="M1712.45 1277.25 Q1713.96 1277.76 1715.37 1279.43 Q1716.81 1281.1 1718.24 1284.01 L1722.99 1293.46 L1717.96 1293.46 L1713.54 1284.59 Q1711.83 1281.12 1710.21 1279.98 Q1708.61 1278.85 1705.83 1278.85 L1700.74 1278.85 L1700.74 1293.46 L1696.07 1293.46 L1696.07 1258.9 L1706.62 1258.9 Q1712.55 1258.9 1715.46 1261.37 Q1718.38 1263.85 1718.38 1268.85 Q1718.38 1272.11 1716.85 1274.27 Q1715.35 1276.42 1712.45 1277.25 M1700.74 1262.74 L1700.74 1275.01 L1706.62 1275.01 Q1710 1275.01 1711.71 1273.46 Q1713.45 1271.88 1713.45 1268.85 Q1713.45 1265.82 1711.71 1264.29 Q1710 1262.74 1706.62 1262.74 L1700.74 1262.74 Z" fill="#000000" fill-rule="nonzero" fill-opacity="1"></path><path clip-path="url(#clip940)" d="M1748.87 1279.43 L1748.87 1281.51 L1729.28 1281.51 Q1729.56 1285.91 1731.92 1288.22 Q1734.31 1290.52 1738.54 1290.52 Q1741 1290.52 1743.29 1289.91 Q1745.6 1289.31 1747.87 1288.11 L1747.87 1292.14 Q1745.58 1293.11 1743.17 1293.62 Q1740.76 1294.13 1738.29 1294.13 Q1732.08 1294.13 1728.45 1290.52 Q1724.84 1286.91 1724.84 1280.75 Q1724.84 1274.38 1728.26 1270.66 Q1731.71 1266.91 1737.55 1266.91 Q1742.78 1266.91 1745.81 1270.29 Q1748.87 1273.64 1748.87 1279.43 M1744.61 1278.18 Q1744.56 1274.68 1742.64 1272.6 Q1740.74 1270.52 1737.59 1270.52 Q1734.03 1270.52 1731.88 1272.53 Q1729.75 1274.54 1729.42 1278.2 L1744.61 1278.18 Z" fill="#000000" fill-rule="nonzero" fill-opacity="1"></path><path clip-path="url(#clip940)" d="M1772.92 1280.19 Q1772.92 1275.56 1771 1273.02 Q1769.1 1270.47 1765.65 1270.47 Q1762.22 1270.47 1760.3 1273.02 Q1758.4 1275.56 1758.4 1280.19 Q1758.4 1284.8 1760.3 1287.35 Q1762.22 1289.89 1765.65 1289.89 Q1769.1 1289.89 1771 1287.35 Q1772.92 1284.8 1772.92 1280.19 M1777.18 1290.24 Q1777.18 1296.86 1774.24 1300.08 Q1771.3 1303.32 1765.23 1303.32 Q1762.99 1303.32 1761 1302.97 Q1759 1302.65 1757.13 1301.95 L1757.13 1297.81 Q1759 1298.83 1760.83 1299.31 Q1762.66 1299.8 1764.56 1299.8 Q1768.75 1299.8 1770.83 1297.6 Q1772.92 1295.42 1772.92 1291 L1772.92 1288.9 Q1771.6 1291.19 1769.54 1292.32 Q1767.48 1293.46 1764.61 1293.46 Q1759.84 1293.46 1756.92 1289.82 Q1754 1286.19 1754 1280.19 Q1754 1274.17 1756.92 1270.54 Q1759.84 1266.91 1764.61 1266.91 Q1767.48 1266.91 1769.54 1268.04 Q1771.6 1269.17 1772.92 1271.47 L1772.92 1267.53 L1777.18 1267.53 L1777.18 1290.24 Z" fill="#000000" fill-rule="nonzero" fill-opacity="1"></path><path clip-path="url(#clip940)" d="M1800.97 1271.51 Q1800.25 1271.1 1799.4 1270.91 Q1798.56 1270.7 1797.55 1270.7 Q1793.94 1270.7 1791.99 1273.06 Q1790.07 1275.4 1790.07 1279.8 L1790.07 1293.46 L1785.79 1293.46 L1785.79 1267.53 L1790.07 1267.53 L1790.07 1271.56 Q1791.41 1269.2 1793.56 1268.06 Q1795.72 1266.91 1798.8 1266.91 Q1799.24 1266.91 1799.77 1266.97 Q1800.3 1267.02 1800.95 1267.14 L1800.97 1271.51 Z" fill="#000000" fill-rule="nonzero" fill-opacity="1"></path><path clip-path="url(#clip940)" d="M1826.57 1279.43 L1826.57 1281.51 L1806.99 1281.51 Q1807.27 1285.91 1809.63 1288.22 Q1812.01 1290.52 1816.25 1290.52 Q1818.7 1290.52 1821 1289.91 Q1823.31 1289.31 1825.58 1288.11 L1825.58 1292.14 Q1823.29 1293.11 1820.88 1293.62 Q1818.47 1294.13 1816 1294.13 Q1809.79 1294.13 1806.16 1290.52 Q1802.55 1286.91 1802.55 1280.75 Q1802.55 1274.38 1805.97 1270.66 Q1809.42 1266.91 1815.25 1266.91 Q1820.49 1266.91 1823.52 1270.29 Q1826.57 1273.64 1826.57 1279.43 M1822.31 1278.18 Q1822.27 1274.68 1820.35 1272.6 Q1818.45 1270.52 1815.3 1270.52 Q1811.74 1270.52 1809.58 1272.53 Q1807.45 1274.54 1807.13 1278.2 L1822.31 1278.18 Z" fill="#000000" fill-rule="nonzero" fill-opacity="1"></path><path clip-path="url(#clip940)" d="M1850.09 1268.29 L1850.09 1272.32 Q1848.29 1271.4 1846.34 1270.93 Q1844.4 1270.47 1842.31 1270.47 Q1839.14 1270.47 1837.55 1271.44 Q1835.97 1272.41 1835.97 1274.36 Q1835.97 1275.84 1837.11 1276.7 Q1838.24 1277.53 1841.67 1278.29 L1843.12 1278.62 Q1847.66 1279.59 1849.56 1281.37 Q1851.48 1283.13 1851.48 1286.3 Q1851.48 1289.91 1848.61 1292.02 Q1845.76 1294.13 1840.76 1294.13 Q1838.68 1294.13 1836.41 1293.71 Q1834.17 1293.32 1831.67 1292.51 L1831.67 1288.11 Q1834.03 1289.34 1836.32 1289.96 Q1838.61 1290.56 1840.86 1290.56 Q1843.87 1290.56 1845.49 1289.54 Q1847.11 1288.5 1847.11 1286.63 Q1847.11 1284.89 1845.93 1283.97 Q1844.77 1283.04 1840.81 1282.18 L1839.33 1281.84 Q1835.37 1281 1833.61 1279.29 Q1831.85 1277.55 1831.85 1274.54 Q1831.85 1270.89 1834.44 1268.9 Q1837.04 1266.91 1841.81 1266.91 Q1844.17 1266.91 1846.25 1267.25 Q1848.33 1267.6 1850.09 1268.29 Z" fill="#000000" fill-rule="nonzero" fill-opacity="1"></path><path clip-path="url(#clip940)" d="M1874.79 1268.29 L1874.79 1272.32 Q1872.99 1271.4 1871.04 1270.93 Q1869.1 1270.47 1867.01 1270.47 Q1863.84 1270.47 1862.24 1271.44 Q1860.67 1272.41 1860.67 1274.36 Q1860.67 1275.84 1861.81 1276.7 Q1862.94 1277.53 1866.37 1278.29 L1867.82 1278.62 Q1872.36 1279.59 1874.26 1281.37 Q1876.18 1283.13 1876.18 1286.3 Q1876.18 1289.91 1873.31 1292.02 Q1870.46 1294.13 1865.46 1294.13 Q1863.38 1294.13 1861.11 1293.71 Q1858.87 1293.32 1856.37 1292.51 L1856.37 1288.11 Q1858.73 1289.34 1861.02 1289.96 Q1863.31 1290.56 1865.55 1290.56 Q1868.56 1290.56 1870.18 1289.54 Q1871.8 1288.5 1871.8 1286.63 Q1871.8 1284.89 1870.62 1283.97 Q1869.47 1283.04 1865.51 1282.18 L1864.03 1281.84 Q1860.07 1281 1858.31 1279.29 Q1856.55 1277.55 1856.55 1274.54 Q1856.55 1270.89 1859.14 1268.9 Q1861.74 1266.91 1866.5 1266.91 Q1868.87 1266.91 1870.95 1267.25 Q1873.03 1267.6 1874.79 1268.29 Z" fill="#000000" fill-rule="nonzero" fill-opacity="1"></path><path clip-path="url(#clip940)" d="M1882.96 1267.53 L1887.22 1267.53 L1887.22 1293.46 L1882.96 1293.46 L1882.96 1267.53 M1882.96 1257.44 L1887.22 1257.44 L1887.22 1262.83 L1882.96 1262.83 L1882.96 1257.44 Z" fill="#000000" fill-rule="nonzero" fill-opacity="1"></path><path clip-path="url(#clip940)" d="M1906.18 1270.52 Q1902.75 1270.52 1900.76 1273.2 Q1898.77 1275.86 1898.77 1280.52 Q1898.77 1285.17 1900.74 1287.85 Q1902.73 1290.52 1906.18 1290.52 Q1909.58 1290.52 1911.57 1287.83 Q1913.56 1285.15 1913.56 1280.52 Q1913.56 1275.91 1911.57 1273.22 Q1909.58 1270.52 1906.18 1270.52 M1906.18 1266.91 Q1911.74 1266.91 1914.91 1270.52 Q1918.08 1274.13 1918.08 1280.52 Q1918.08 1286.88 1914.91 1290.52 Q1911.74 1294.13 1906.18 1294.13 Q1900.6 1294.13 1897.43 1290.52 Q1894.28 1286.88 1894.28 1280.52 Q1894.28 1274.13 1897.43 1270.52 Q1900.6 1266.91 1906.18 1266.91 Z" fill="#000000" fill-rule="nonzero" fill-opacity="1"></path><path clip-path="url(#clip940)" d="M1946.69 1277.81 L1946.69 1293.46 L1942.43 1293.46 L1942.43 1277.95 Q1942.43 1274.27 1940.99 1272.44 Q1939.56 1270.61 1936.69 1270.61 Q1933.24 1270.61 1931.25 1272.81 Q1929.26 1275.01 1929.26 1278.8 L1929.26 1293.46 L1924.98 1293.46 L1924.98 1267.53 L1929.26 1267.53 L1929.26 1271.56 Q1930.79 1269.22 1932.85 1268.06 Q1934.93 1266.91 1937.64 1266.91 Q1942.11 1266.91 1944.4 1269.68 Q1946.69 1272.44 1946.69 1277.81 Z" fill="#000000" fill-rule="nonzero" fill-opacity="1"></path><path clip-path="url(#clip940)" d="M1980.48 1257.48 Q1977.38 1262.81 1975.88 1268.02 Q1974.37 1273.22 1974.37 1278.57 Q1974.37 1283.92 1975.88 1289.17 Q1977.41 1294.41 1980.48 1299.71 L1976.78 1299.71 Q1973.31 1294.27 1971.57 1289.01 Q1969.86 1283.76 1969.86 1278.57 Q1969.86 1273.41 1971.57 1268.18 Q1973.29 1262.95 1976.78 1257.48 L1980.48 1257.48 Z" fill="#000000" fill-rule="nonzero" fill-opacity="1"></path><path clip-path="url(#clip940)" d="M2000.53 1280.42 Q1995.37 1280.42 1993.38 1281.6 Q1991.39 1282.79 1991.39 1285.63 Q1991.39 1287.9 1992.87 1289.24 Q1994.37 1290.56 1996.94 1290.56 Q2000.48 1290.56 2002.61 1288.06 Q2004.77 1285.54 2004.77 1281.37 L2004.77 1280.42 L2000.53 1280.42 M2009.03 1278.66 L2009.03 1293.46 L2004.77 1293.46 L2004.77 1289.52 Q2003.31 1291.88 2001.13 1293.02 Q1998.96 1294.13 1995.81 1294.13 Q1991.83 1294.13 1989.47 1291.91 Q1987.13 1289.66 1987.13 1285.91 Q1987.13 1281.54 1990.05 1279.31 Q1992.98 1277.09 1998.8 1277.09 L2004.77 1277.09 L2004.77 1276.67 Q2004.77 1273.73 2002.82 1272.14 Q2000.9 1270.52 1997.41 1270.52 Q1995.18 1270.52 1993.08 1271.05 Q1990.97 1271.58 1989.03 1272.65 L1989.03 1268.71 Q1991.36 1267.81 1993.56 1267.37 Q1995.76 1266.91 1997.85 1266.91 Q2003.47 1266.91 2006.25 1269.82 Q2009.03 1272.74 2009.03 1278.66 Z" fill="#000000" fill-rule="nonzero" fill-opacity="1"></path><path clip-path="url(#clip940)" d="M2017.36 1283.22 L2017.36 1267.53 L2021.62 1267.53 L2021.62 1283.06 Q2021.62 1286.74 2023.05 1288.6 Q2024.49 1290.42 2027.36 1290.42 Q2030.81 1290.42 2032.8 1288.22 Q2034.81 1286.03 2034.81 1282.23 L2034.81 1267.53 L2039.07 1267.53 L2039.07 1293.46 L2034.81 1293.46 L2034.81 1289.47 Q2033.26 1291.84 2031.2 1292.99 Q2029.17 1294.13 2026.46 1294.13 Q2021.99 1294.13 2019.67 1291.35 Q2017.36 1288.57 2017.36 1283.22 M2028.08 1266.91 L2028.08 1266.91 Z" fill="#000000" fill-rule="nonzero" fill-opacity="1"></path><path clip-path="url(#clip940)" d="M2066.5 1268.53 L2066.5 1272.51 Q2064.7 1271.51 2062.87 1271.03 Q2061.06 1270.52 2059.21 1270.52 Q2055.07 1270.52 2052.78 1273.16 Q2050.48 1275.77 2050.48 1280.52 Q2050.48 1285.26 2052.78 1287.9 Q2055.07 1290.52 2059.21 1290.52 Q2061.06 1290.52 2062.87 1290.03 Q2064.7 1289.52 2066.5 1288.53 L2066.5 1292.46 Q2064.72 1293.29 2062.8 1293.71 Q2060.9 1294.13 2058.75 1294.13 Q2052.89 1294.13 2049.44 1290.45 Q2045.99 1286.77 2045.99 1280.52 Q2045.99 1274.17 2049.47 1270.54 Q2052.96 1266.91 2059.03 1266.91 Q2060.99 1266.91 2062.87 1267.32 Q2064.74 1267.72 2066.5 1268.53 Z" fill="#000000" fill-rule="nonzero" fill-opacity="1"></path><path clip-path="url(#clip940)" d="M2089.54 1271.93 L2119.21 1271.93 L2119.21 1275.82 L2089.54 1275.82 L2089.54 1271.93 M2089.54 1281.37 L2119.21 1281.37 L2119.21 1285.31 L2089.54 1285.31 L2089.54 1281.37 Z" fill="#000000" fill-rule="nonzero" fill-opacity="1"></path><path clip-path="url(#clip940)" d="M2154.37 1261.97 Q2150.76 1261.97 2148.93 1265.54 Q2147.13 1269.08 2147.13 1276.21 Q2147.13 1283.32 2148.93 1286.88 Q2150.76 1290.42 2154.37 1290.42 Q2158.01 1290.42 2159.81 1286.88 Q2161.64 1283.32 2161.64 1276.21 Q2161.64 1269.08 2159.81 1265.54 Q2158.01 1261.97 2154.37 1261.97 M2154.37 1258.27 Q2160.18 1258.27 2163.24 1262.88 Q2166.32 1267.46 2166.32 1276.21 Q2166.32 1284.94 2163.24 1289.54 Q2160.18 1294.13 2154.37 1294.13 Q2148.56 1294.13 2145.48 1289.54 Q2142.43 1284.94 2142.43 1276.21 Q2142.43 1267.46 2145.48 1262.88 Q2148.56 1258.27 2154.37 1258.27 Z" fill="#000000" fill-rule="nonzero" fill-opacity="1"></path><path clip-path="url(#clip940)" d="M2174.53 1287.58 L2179.42 1287.58 L2179.42 1293.46 L2174.53 1293.46 L2174.53 1287.58 Z" fill="#000000" fill-rule="nonzero" fill-opacity="1"></path><path clip-path="url(#clip940)" d="M2189.74 1292.74 L2189.74 1288.48 Q2191.5 1289.31 2193.31 1289.75 Q2195.11 1290.19 2196.85 1290.19 Q2201.48 1290.19 2203.91 1287.09 Q2206.36 1283.97 2206.71 1277.62 Q2205.37 1279.61 2203.31 1280.68 Q2201.25 1281.74 2198.75 1281.74 Q2193.56 1281.74 2190.53 1278.62 Q2187.52 1275.47 2187.52 1270.03 Q2187.52 1264.71 2190.67 1261.49 Q2193.82 1258.27 2199.05 1258.27 Q2205.04 1258.27 2208.19 1262.88 Q2211.36 1267.46 2211.36 1276.21 Q2211.36 1284.38 2207.47 1289.27 Q2203.61 1294.13 2197.06 1294.13 Q2195.3 1294.13 2193.49 1293.78 Q2191.69 1293.43 2189.74 1292.74 M2199.05 1278.09 Q2202.2 1278.09 2204.03 1275.93 Q2205.88 1273.78 2205.88 1270.03 Q2205.88 1266.3 2204.03 1264.15 Q2202.2 1261.97 2199.05 1261.97 Q2195.9 1261.97 2194.05 1264.15 Q2192.22 1266.3 2192.22 1270.03 Q2192.22 1273.78 2194.05 1275.93 Q2195.9 1278.09 2199.05 1278.09 Z" fill="#000000" fill-rule="nonzero" fill-opacity="1"></path><path clip-path="url(#clip940)" d="M2219.9 1292.74 L2219.9 1288.48 Q2221.66 1289.31 2223.47 1289.75 Q2225.28 1290.19 2227.01 1290.19 Q2231.64 1290.19 2234.07 1287.09 Q2236.53 1283.97 2236.87 1277.62 Q2235.53 1279.61 2233.47 1280.68 Q2231.41 1281.74 2228.91 1281.74 Q2223.72 1281.74 2220.69 1278.62 Q2217.68 1275.47 2217.68 1270.03 Q2217.68 1264.71 2220.83 1261.49 Q2223.98 1258.27 2229.21 1258.27 Q2235.21 1258.27 2238.35 1262.88 Q2241.53 1267.46 2241.53 1276.21 Q2241.53 1284.38 2237.64 1289.27 Q2233.77 1294.13 2227.22 1294.13 Q2225.46 1294.13 2223.65 1293.78 Q2221.85 1293.43 2219.9 1292.74 M2229.21 1278.09 Q2232.36 1278.09 2234.19 1275.93 Q2236.04 1273.78 2236.04 1270.03 Q2236.04 1266.3 2234.19 1264.15 Q2232.36 1261.97 2229.21 1261.97 Q2226.06 1261.97 2224.21 1264.15 Q2222.38 1266.3 2222.38 1270.03 Q2222.38 1273.78 2224.21 1275.93 Q2226.06 1278.09 2229.21 1278.09 Z" fill="#000000" fill-rule="nonzero" fill-opacity="1"></path><path clip-path="url(#clip940)" d="M2248.65 1257.48 L2252.36 1257.48 Q2255.83 1262.95 2257.54 1268.18 Q2259.28 1273.41 2259.28 1278.57 Q2259.28 1283.76 2257.54 1289.01 Q2255.83 1294.27 2252.36 1299.71 L2248.65 1299.71 Q2251.73 1294.41 2253.24 1289.17 Q2254.77 1283.92 2254.77 1278.57 Q2254.77 1273.22 2253.24 1268.02 Q2251.73 1262.81 2248.65 1257.48 Z" fill="#000000" fill-rule="nonzero" fill-opacity="1"></path><polyline clip-path="url(#clip940)" style="stroke:#808080; stroke-linecap:round; stroke-linejoin:round; stroke-width:8; stroke-opacity:1; fill:none" stroke-dasharray="32, 20" points="1337.04,1328.02 1477.26,1328.02 "></polyline>
<path clip-path="url(#clip940)" d="M1517.02 1329.09 Q1518.52 1329.6 1519.93 1331.27 Q1521.37 1332.94 1522.8 1335.85 L1527.55 1345.3 L1522.52 1345.3 L1518.1 1336.43 Q1516.39 1332.96 1514.77 1331.82 Q1513.17 1330.69 1510.39 1330.69 L1505.3 1330.69 L1505.3 1345.3 L1500.63 1345.3 L1500.63 1310.74 L1511.18 1310.74 Q1517.11 1310.74 1520.02 1313.21 Q1522.94 1315.69 1522.94 1320.69 Q1522.94 1323.95 1521.41 1326.11 Q1519.91 1328.26 1517.02 1329.09 M1505.3 1314.58 L1505.3 1326.85 L1511.18 1326.85 Q1514.56 1326.85 1516.27 1325.3 Q1518.01 1323.72 1518.01 1320.69 Q1518.01 1317.66 1516.27 1316.13 Q1514.56 1314.58 1511.18 1314.58 L1505.3 1314.58 Z" fill="#000000" fill-rule="nonzero" fill-opacity="1"></path><path clip-path="url(#clip940)" d="M1544.12 1332.26 Q1538.96 1332.26 1536.97 1333.44 Q1534.98 1334.63 1534.98 1337.47 Q1534.98 1339.74 1536.46 1341.08 Q1537.96 1342.4 1540.53 1342.4 Q1544.08 1342.4 1546.2 1339.9 Q1548.36 1337.38 1548.36 1333.21 L1548.36 1332.26 L1544.12 1332.26 M1552.62 1330.5 L1552.62 1345.3 L1548.36 1345.3 L1548.36 1341.36 Q1546.9 1343.72 1544.72 1344.86 Q1542.55 1345.97 1539.4 1345.97 Q1535.42 1345.97 1533.06 1343.75 Q1530.72 1341.5 1530.72 1337.75 Q1530.72 1333.38 1533.64 1331.15 Q1536.58 1328.93 1542.39 1328.93 L1548.36 1328.93 L1548.36 1328.51 Q1548.36 1325.57 1546.41 1323.98 Q1544.49 1322.36 1541 1322.36 Q1538.77 1322.36 1536.67 1322.89 Q1534.56 1323.42 1532.62 1324.49 L1532.62 1320.55 Q1534.95 1319.65 1537.15 1319.21 Q1539.35 1318.75 1541.44 1318.75 Q1547.06 1318.75 1549.84 1321.66 Q1552.62 1324.58 1552.62 1330.5 Z" fill="#000000" fill-rule="nonzero" fill-opacity="1"></path><path clip-path="url(#clip940)" d="M1582.94 1329.65 L1582.94 1345.3 L1578.68 1345.3 L1578.68 1329.79 Q1578.68 1326.11 1577.25 1324.28 Q1575.81 1322.45 1572.94 1322.45 Q1569.49 1322.45 1567.5 1324.65 Q1565.51 1326.85 1565.51 1330.64 L1565.51 1345.3 L1561.23 1345.3 L1561.23 1319.37 L1565.51 1319.37 L1565.51 1323.4 Q1567.04 1321.06 1569.1 1319.9 Q1571.18 1318.75 1573.89 1318.75 Q1578.36 1318.75 1580.65 1321.52 Q1582.94 1324.28 1582.94 1329.65 Z" fill="#000000" fill-rule="nonzero" fill-opacity="1"></path><path clip-path="url(#clip940)" d="M1608.5 1323.31 L1608.5 1309.28 L1612.76 1309.28 L1612.76 1345.3 L1608.5 1345.3 L1608.5 1341.41 Q1607.15 1343.72 1605.09 1344.86 Q1603.06 1345.97 1600.19 1345.97 Q1595.49 1345.97 1592.52 1342.22 Q1589.58 1338.47 1589.58 1332.36 Q1589.58 1326.25 1592.52 1322.5 Q1595.49 1318.75 1600.19 1318.75 Q1603.06 1318.75 1605.09 1319.88 Q1607.15 1320.99 1608.5 1323.31 M1593.98 1332.36 Q1593.98 1337.06 1595.9 1339.74 Q1597.85 1342.4 1601.23 1342.4 Q1604.61 1342.4 1606.55 1339.74 Q1608.5 1337.06 1608.5 1332.36 Q1608.5 1327.66 1606.55 1325 Q1604.61 1322.31 1601.23 1322.31 Q1597.85 1322.31 1595.9 1325 Q1593.98 1327.66 1593.98 1332.36 Z" fill="#000000" fill-rule="nonzero" fill-opacity="1"></path><path clip-path="url(#clip940)" d="M1631.57 1322.36 Q1628.15 1322.36 1626.16 1325.04 Q1624.17 1327.7 1624.17 1332.36 Q1624.17 1337.01 1626.13 1339.69 Q1628.13 1342.36 1631.57 1342.36 Q1634.98 1342.36 1636.97 1339.67 Q1638.96 1336.99 1638.96 1332.36 Q1638.96 1327.75 1636.97 1325.06 Q1634.98 1322.36 1631.57 1322.36 M1631.57 1318.75 Q1637.13 1318.75 1640.3 1322.36 Q1643.47 1325.97 1643.47 1332.36 Q1643.47 1338.72 1640.3 1342.36 Q1637.13 1345.97 1631.57 1345.97 Q1626 1345.97 1622.82 1342.36 Q1619.68 1338.72 1619.68 1332.36 Q1619.68 1325.97 1622.82 1322.36 Q1626 1318.75 1631.57 1318.75 Z" fill="#000000" fill-rule="nonzero" fill-opacity="1"></path><path clip-path="url(#clip940)" d="M1670.72 1324.35 Q1672.32 1321.48 1674.54 1320.11 Q1676.76 1318.75 1679.77 1318.75 Q1683.82 1318.75 1686.02 1321.59 Q1688.22 1324.42 1688.22 1329.65 L1688.22 1345.3 L1683.94 1345.3 L1683.94 1329.79 Q1683.94 1326.06 1682.62 1324.25 Q1681.3 1322.45 1678.59 1322.45 Q1675.28 1322.45 1673.36 1324.65 Q1671.44 1326.85 1671.44 1330.64 L1671.44 1345.3 L1667.15 1345.3 L1667.15 1329.79 Q1667.15 1326.04 1665.83 1324.25 Q1664.51 1322.45 1661.76 1322.45 Q1658.5 1322.45 1656.57 1324.67 Q1654.65 1326.87 1654.65 1330.64 L1654.65 1345.3 L1650.37 1345.3 L1650.37 1319.37 L1654.65 1319.37 L1654.65 1323.4 Q1656.11 1321.01 1658.15 1319.88 Q1660.19 1318.75 1662.99 1318.75 Q1665.81 1318.75 1667.78 1320.18 Q1669.77 1321.62 1670.72 1324.35 Z" fill="#000000" fill-rule="nonzero" fill-opacity="1"></path></svg>