<svg xmlns="http://www.w3.org/2000/svg" xmlns:xlink="http://www.w3.org/1999/xlink" width="600" height="400" viewBox="0 0 2400 1600">
<defs>
  <clipPath id="clip150">
    <rect x="0" y="0" width="2400" height="1600"></rect>
  </clipPath>
</defs>
<path clip-path="url(#clip150)" d="M0 1600 L2400 1600 L2400 0 L0 0  Z" fill="#ffffff" fill-rule="evenodd" fill-opacity="1"></path>
<defs>
  <clipPath id="clip151">
    <rect x="480" y="0" width="1681" height="1600"></rect>
  </clipPath>
</defs>
<path clip-path="url(#clip150)" d="M173.015 1423.18 L2352.76 1423.18 L2352.76 123.472 L173.015 123.472  Z" fill="#ffffff" fill-rule="evenodd" fill-opacity="1"></path>
<defs>
  <clipPath id="clip152">
    <rect x="173" y="123" width="2181" height="1301"></rect>
  </clipPath>
</defs>
<polyline clip-path="url(#clip152)" style="stroke:#000000; stroke-linecap:round; stroke-linejoin:round; stroke-width:2; stroke-opacity:0.1; fill:none" points="173.015,1423.18 173.015,123.472 "></polyline>
<polyline clip-path="url(#clip152)" style="stroke:#000000; stroke-linecap:round; stroke-linejoin:round; stroke-width:2; stroke-opacity:0.1; fill:none" points="608.963,1423.18 608.963,123.472 "></polyline>
<polyline clip-path="url(#clip152)" style="stroke:#000000; stroke-linecap:round; stroke-linejoin:round; stroke-width:2; stroke-opacity:0.1; fill:none" points="1044.91,1423.18 1044.91,123.472 "></polyline>
<polyline clip-path="url(#clip152)" style="stroke:#000000; stroke-linecap:round; stroke-linejoin:round; stroke-width:2; stroke-opacity:0.1; fill:none" points="1480.86,1423.18 1480.86,123.472 "></polyline>
<polyline clip-path="url(#clip152)" style="stroke:#000000; stroke-linecap:round; stroke-linejoin:round; stroke-width:2; stroke-opacity:0.1; fill:none" points="1916.81,1423.18 1916.81,123.472 "></polyline>
<polyline clip-path="url(#clip152)" style="stroke:#000000; stroke-linecap:round; stroke-linejoin:round; stroke-width:2; stroke-opacity:0.1; fill:none" points="2352.76,1423.18 2352.76,123.472 "></polyline>
<polyline clip-path="url(#clip152)" style="stroke:#000000; stroke-linecap:round; stroke-linejoin:round; stroke-width:2; stroke-opacity:0.1; fill:none" points="173.015,1232.05 2352.76,1232.05 "></polyline>
<polyline clip-path="url(#clip152)" style="stroke:#000000; stroke-linecap:round; stroke-linejoin:round; stroke-width:2; stroke-opacity:0.1; fill:none" points="173.015,811.553 2352.76,811.553 "></polyline>
<polyline clip-path="url(#clip152)" style="stroke:#000000; stroke-linecap:round; stroke-linejoin:round; stroke-width:2; stroke-opacity:0.1; fill:none" points="173.015,391.059 2352.76,391.059 "></polyline>
<polyline clip-path="url(#clip150)" style="stroke:#000000; stroke-linecap:round; stroke-linejoin:round; stroke-width:4; stroke-opacity:1; fill:none" points="173.015,1423.18 2352.76,1423.18 "></polyline>
<polyline clip-path="url(#clip150)" style="stroke:#000000; stroke-linecap:round; stroke-linejoin:round; stroke-width:4; stroke-opacity:1; fill:none" points="173.015,1423.18 173.015,1404.28 "></polyline>
<polyline clip-path="url(#clip150)" style="stroke:#000000; stroke-linecap:round; stroke-linejoin:round; stroke-width:4; stroke-opacity:1; fill:none" points="608.963,1423.18 608.963,1404.28 "></polyline>
<polyline clip-path="url(#clip150)" style="stroke:#000000; stroke-linecap:round; stroke-linejoin:round; stroke-width:4; stroke-opacity:1; fill:none" points="1044.91,1423.18 1044.91,1404.28 "></polyline>
<polyline clip-path="url(#clip150)" style="stroke:#000000; stroke-linecap:round; stroke-linejoin:round; stroke-width:4; stroke-opacity:1; fill:none" points="1480.86,1423.18 1480.86,1404.28 "></polyline>
<polyline clip-path="url(#clip150)" style="stroke:#000000; stroke-linecap:round; stroke-linejoin:round; stroke-width:4; stroke-opacity:1; fill:none" points="1916.81,1423.18 1916.81,1404.28 "></polyline>
<polyline clip-path="url(#clip150)" style="stroke:#000000; stroke-linecap:round; stroke-linejoin:round; stroke-width:4; stroke-opacity:1; fill:none" points="2352.76,1423.18 2352.76,1404.28 "></polyline>
<path clip-path="url(#clip150)" d="M150.399 1454.1 Q146.788 1454.1 144.959 1457.66 Q143.154 1461.2 143.154 1468.33 Q143.154 1475.44 144.959 1479.01 Q146.788 1482.55 150.399 1482.55 Q154.033 1482.55 155.839 1479.01 Q157.668 1475.44 157.668 1468.33 Q157.668 1461.2 155.839 1457.66 Q154.033 1454.1 150.399 1454.1 M150.399 1450.39 Q156.209 1450.39 159.265 1455 Q162.343 1459.58 162.343 1468.33 Q162.343 1477.06 159.265 1481.67 Q156.209 1486.25 150.399 1486.25 Q144.589 1486.25 141.51 1481.67 Q138.455 1477.06 138.455 1468.33 Q138.455 1459.58 141.51 1455 Q144.589 1450.39 150.399 1450.39 Z" fill="#000000" fill-rule="nonzero" fill-opacity="1"></path><path clip-path="url(#clip150)" d="M170.561 1479.7 L175.445 1479.7 L175.445 1485.58 L170.561 1485.58 L170.561 1479.7 Z" fill="#000000" fill-rule="nonzero" fill-opacity="1"></path><path clip-path="url(#clip150)" d="M195.63 1454.1 Q192.019 1454.1 190.19 1457.66 Q188.385 1461.2 188.385 1468.33 Q188.385 1475.44 190.19 1479.01 Q192.019 1482.55 195.63 1482.55 Q199.265 1482.55 201.07 1479.01 Q202.899 1475.44 202.899 1468.33 Q202.899 1461.2 201.07 1457.66 Q199.265 1454.1 195.63 1454.1 M195.63 1450.39 Q201.44 1450.39 204.496 1455 Q207.575 1459.58 207.575 1468.33 Q207.575 1477.06 204.496 1481.67 Q201.44 1486.25 195.63 1486.25 Q189.82 1486.25 186.741 1481.67 Q183.686 1477.06 183.686 1468.33 Q183.686 1459.58 186.741 1455 Q189.82 1450.39 195.63 1450.39 Z" fill="#000000" fill-rule="nonzero" fill-opacity="1"></path><path clip-path="url(#clip150)" d="M587.146 1454.1 Q583.535 1454.1 581.706 1457.66 Q579.901 1461.2 579.901 1468.33 Q579.901 1475.44 581.706 1479.01 Q583.535 1482.55 587.146 1482.55 Q590.78 1482.55 592.586 1479.01 Q594.414 1475.44 594.414 1468.33 Q594.414 1461.2 592.586 1457.66 Q590.78 1454.1 587.146 1454.1 M587.146 1450.39 Q592.956 1450.39 596.012 1455 Q599.09 1459.58 599.09 1468.33 Q599.09 1477.06 596.012 1481.67 Q592.956 1486.25 587.146 1486.25 Q581.336 1486.25 578.257 1481.67 Q575.202 1477.06 575.202 1468.33 Q575.202 1459.58 578.257 1455 Q581.336 1450.39 587.146 1450.39 Z" fill="#000000" fill-rule="nonzero" fill-opacity="1"></path><path clip-path="url(#clip150)" d="M607.308 1479.7 L612.192 1479.7 L612.192 1485.58 L607.308 1485.58 L607.308 1479.7 Z" fill="#000000" fill-rule="nonzero" fill-opacity="1"></path><path clip-path="url(#clip150)" d="M626.405 1481.64 L642.724 1481.64 L642.724 1485.58 L620.78 1485.58 L620.78 1481.64 Q623.442 1478.89 628.025 1474.26 Q632.632 1469.61 633.812 1468.27 Q636.058 1465.74 636.937 1464.01 Q637.84 1462.25 637.84 1460.56 Q637.84 1457.8 635.896 1456.07 Q633.974 1454.33 630.873 1454.33 Q628.673 1454.33 626.22 1455.09 Q623.789 1455.86 621.011 1457.41 L621.011 1452.69 Q623.836 1451.55 626.289 1450.97 Q628.743 1450.39 630.78 1450.39 Q636.15 1450.39 639.345 1453.08 Q642.539 1455.77 642.539 1460.26 Q642.539 1462.39 641.729 1464.31 Q640.942 1466.2 638.835 1468.8 Q638.257 1469.47 635.155 1472.69 Q632.053 1475.88 626.405 1481.64 Z" fill="#000000" fill-rule="nonzero" fill-opacity="1"></path><path clip-path="url(#clip150)" d="M1022.05 1454.1 Q1018.44 1454.1 1016.61 1457.66 Q1014.81 1461.2 1014.81 1468.33 Q1014.81 1475.44 1016.61 1479.01 Q1018.44 1482.55 1022.05 1482.55 Q1025.69 1482.55 1027.49 1479.01 Q1029.32 1475.44 1029.32 1468.33 Q1029.32 1461.2 1027.49 1457.66 Q1025.69 1454.1 1022.05 1454.1 M1022.05 1450.39 Q1027.86 1450.39 1030.92 1455 Q1034 1459.58 1034 1468.33 Q1034 1477.06 1030.92 1481.67 Q1027.86 1486.25 1022.05 1486.25 Q1016.24 1486.25 1013.16 1481.67 Q1010.11 1477.06 1010.11 1468.33 Q1010.11 1459.58 1013.16 1455 Q1016.24 1450.39 1022.05 1450.39 Z" fill="#000000" fill-rule="nonzero" fill-opacity="1"></path><path clip-path="url(#clip150)" d="M1042.21 1479.7 L1047.1 1479.7 L1047.1 1485.58 L1042.21 1485.58 L1042.21 1479.7 Z" fill="#000000" fill-rule="nonzero" fill-opacity="1"></path><path clip-path="url(#clip150)" d="M1070.13 1455.09 L1058.33 1473.54 L1070.13 1473.54 L1070.13 1455.09 M1068.9 1451.02 L1074.78 1451.02 L1074.78 1473.54 L1079.71 1473.54 L1079.71 1477.43 L1074.78 1477.43 L1074.78 1485.58 L1070.13 1485.58 L1070.13 1477.43 L1054.53 1477.43 L1054.53 1472.92 L1068.9 1451.02 Z" fill="#000000" fill-rule="nonzero" fill-opacity="1"></path><path clip-path="url(#clip150)" d="M1458.16 1454.1 Q1454.55 1454.1 1452.72 1457.66 Q1450.92 1461.2 1450.92 1468.33 Q1450.92 1475.44 1452.72 1479.01 Q1454.55 1482.55 1458.16 1482.55 Q1461.8 1482.55 1463.6 1479.01 Q1465.43 1475.44 1465.43 1468.33 Q1465.43 1461.2 1463.6 1457.66 Q1461.8 1454.1 1458.16 1454.1 M1458.16 1450.39 Q1463.97 1450.39 1467.03 1455 Q1470.11 1459.58 1470.11 1468.33 Q1470.11 1477.06 1467.03 1481.67 Q1463.97 1486.25 1458.16 1486.25 Q1452.35 1486.25 1449.27 1481.67 Q1446.22 1477.06 1446.22 1468.33 Q1446.22 1459.58 1449.27 1455 Q1452.35 1450.39 1458.16 1450.39 Z" fill="#000000" fill-rule="nonzero" fill-opacity="1"></path><path clip-path="url(#clip150)" d="M1478.32 1479.7 L1483.21 1479.7 L1483.21 1485.58 L1478.32 1485.58 L1478.32 1479.7 Z" fill="#000000" fill-rule="nonzero" fill-opacity="1"></path><path clip-path="url(#clip150)" d="M1503.97 1466.44 Q1500.82 1466.44 1498.97 1468.59 Q1497.14 1470.74 1497.14 1474.49 Q1497.14 1478.22 1498.97 1480.39 Q1500.82 1482.55 1503.97 1482.55 Q1507.12 1482.55 1508.95 1480.39 Q1510.8 1478.22 1510.8 1474.49 Q1510.8 1470.74 1508.95 1468.59 Q1507.12 1466.44 1503.97 1466.44 M1513.26 1451.78 L1513.26 1456.04 Q1511.5 1455.21 1509.69 1454.77 Q1507.91 1454.33 1506.15 1454.33 Q1501.52 1454.33 1499.07 1457.45 Q1496.63 1460.58 1496.29 1466.9 Q1497.65 1464.89 1499.71 1463.82 Q1501.77 1462.73 1504.25 1462.73 Q1509.46 1462.73 1512.47 1465.9 Q1515.5 1469.05 1515.5 1474.49 Q1515.5 1479.82 1512.35 1483.03 Q1509.2 1486.25 1503.97 1486.25 Q1497.98 1486.25 1494.81 1481.67 Q1491.63 1477.06 1491.63 1468.33 Q1491.63 1460.14 1495.52 1455.28 Q1499.41 1450.39 1505.96 1450.39 Q1507.72 1450.39 1509.51 1450.74 Q1511.31 1451.09 1513.26 1451.78 Z" fill="#000000" fill-rule="nonzero" fill-opacity="1"></path><path clip-path="url(#clip150)" d="M1894.24 1454.1 Q1890.63 1454.1 1888.8 1457.66 Q1886.99 1461.2 1886.99 1468.33 Q1886.99 1475.44 1888.8 1479.01 Q1890.63 1482.55 1894.24 1482.55 Q1897.87 1482.55 1899.68 1479.01 Q1901.51 1475.44 1901.51 1468.33 Q1901.51 1461.2 1899.68 1457.66 Q1897.87 1454.1 1894.24 1454.1 M1894.24 1450.39 Q1900.05 1450.39 1903.1 1455 Q1906.18 1459.58 1906.18 1468.33 Q1906.18 1477.06 1903.1 1481.67 Q1900.05 1486.25 1894.24 1486.25 Q1888.43 1486.25 1885.35 1481.67 Q1882.29 1477.06 1882.29 1468.33 Q1882.29 1459.58 1885.35 1455 Q1888.43 1450.39 1894.24 1450.39 Z" fill="#000000" fill-rule="nonzero" fill-opacity="1"></path><path clip-path="url(#clip150)" d="M1914.4 1479.7 L1919.28 1479.7 L1919.28 1485.58 L1914.4 1485.58 L1914.4 1479.7 Z" fill="#000000" fill-rule="nonzero" fill-opacity="1"></path><path clip-path="url(#clip150)" d="M1939.47 1469.17 Q1936.14 1469.17 1934.21 1470.95 Q1932.32 1472.73 1932.32 1475.86 Q1932.32 1478.98 1934.21 1480.77 Q1936.14 1482.55 1939.47 1482.55 Q1942.8 1482.55 1944.72 1480.77 Q1946.65 1478.96 1946.65 1475.86 Q1946.65 1472.73 1944.72 1470.95 Q1942.83 1469.17 1939.47 1469.17 M1934.79 1467.18 Q1931.78 1466.44 1930.09 1464.38 Q1928.43 1462.32 1928.43 1459.35 Q1928.43 1455.21 1931.37 1452.8 Q1934.33 1450.39 1939.47 1450.39 Q1944.63 1450.39 1947.57 1452.8 Q1950.51 1455.21 1950.51 1459.35 Q1950.51 1462.32 1948.82 1464.38 Q1947.15 1466.44 1944.17 1467.18 Q1947.55 1467.96 1949.42 1470.26 Q1951.32 1472.55 1951.32 1475.86 Q1951.32 1480.88 1948.24 1483.57 Q1945.19 1486.25 1939.47 1486.25 Q1933.75 1486.25 1930.67 1483.57 Q1927.62 1480.88 1927.62 1475.86 Q1927.62 1472.55 1929.52 1470.26 Q1931.41 1467.96 1934.79 1467.18 M1933.08 1459.79 Q1933.08 1462.48 1934.75 1463.98 Q1936.44 1465.49 1939.47 1465.49 Q1942.48 1465.49 1944.17 1463.98 Q1945.88 1462.48 1945.88 1459.79 Q1945.88 1457.11 1944.17 1455.6 Q1942.48 1454.1 1939.47 1454.1 Q1936.44 1454.1 1934.75 1455.6 Q1933.08 1457.11 1933.08 1459.79 Z" fill="#000000" fill-rule="nonzero" fill-opacity="1"></path><path clip-path="url(#clip150)" d="M2319.91 1481.64 L2327.55 1481.64 L2327.55 1455.28 L2319.24 1456.95 L2319.24 1452.69 L2327.5 1451.02 L2332.18 1451.02 L2332.18 1481.64 L2339.82 1481.64 L2339.82 1485.58 L2319.91 1485.58 L2319.91 1481.64 Z" fill="#000000" fill-rule="nonzero" fill-opacity="1"></path><path clip-path="url(#clip150)" d="M2349.26 1479.7 L2354.14 1479.7 L2354.14 1485.58 L2349.26 1485.58 L2349.26 1479.7 Z" fill="#000000" fill-rule="nonzero" fill-opacity="1"></path><path clip-path="url(#clip150)" d="M2374.33 1454.1 Q2370.72 1454.1 2368.89 1457.66 Q2367.08 1461.2 2367.08 1468.33 Q2367.08 1475.44 2368.89 1479.01 Q2370.72 1482.55 2374.33 1482.55 Q2377.96 1482.55 2379.77 1479.01 Q2381.6 1475.44 2381.6 1468.33 Q2381.6 1461.2 2379.77 1457.66 Q2377.96 1454.1 2374.33 1454.1 M2374.33 1450.39 Q2380.14 1450.39 2383.2 1455 Q2386.27 1459.58 2386.27 1468.33 Q2386.27 1477.06 2383.2 1481.67 Q2380.14 1486.25 2374.33 1486.25 Q2368.52 1486.25 2365.44 1481.67 Q2362.39 1477.06 2362.39 1468.33 Q2362.39 1459.58 2365.44 1455 Q2368.52 1450.39 2374.33 1450.39 Z" fill="#000000" fill-rule="nonzero" fill-opacity="1"></path><path clip-path="url(#clip150)" d="M949.947 1522.08 L949.947 1528.35 Q946.287 1526.6 943.04 1525.74 Q939.794 1524.88 936.77 1524.88 Q931.518 1524.88 928.654 1526.92 Q925.821 1528.96 925.821 1532.71 Q925.821 1535.87 927.699 1537.49 Q929.609 1539.08 934.892 1540.07 L938.775 1540.86 Q945.969 1542.23 949.374 1545.7 Q952.812 1549.14 952.812 1554.93 Q952.812 1561.84 948.165 1565.4 Q943.55 1568.97 934.606 1568.97 Q931.232 1568.97 927.413 1568.2 Q923.625 1567.44 919.551 1565.94 L919.551 1559.32 Q923.466 1561.52 927.222 1562.63 Q930.977 1563.75 934.606 1563.75 Q940.112 1563.75 943.104 1561.58 Q946.096 1559.42 946.096 1555.41 Q946.096 1551.91 943.932 1549.93 Q941.799 1547.96 936.897 1546.97 L932.983 1546.21 Q925.789 1544.78 922.575 1541.72 Q919.36 1538.67 919.36 1533.22 Q919.36 1526.92 923.784 1523.29 Q928.24 1519.66 936.038 1519.66 Q939.38 1519.66 942.849 1520.27 Q946.319 1520.87 949.947 1522.08 Z" fill="#000000" fill-rule="nonzero" fill-opacity="1"></path><path clip-path="url(#clip150)" d="M962.583 1532.4 L968.44 1532.4 L968.44 1568.04 L962.583 1568.04 L962.583 1532.4 M962.583 1518.52 L968.44 1518.52 L968.44 1525.93 L962.583 1525.93 L962.583 1518.52 Z" fill="#000000" fill-rule="nonzero" fill-opacity="1"></path><path clip-path="url(#clip150)" d="M980.694 1518.52 L986.55 1518.52 L986.55 1568.04 L980.694 1568.04 L980.694 1518.52 Z" fill="#000000" fill-rule="nonzero" fill-opacity="1"></path><path clip-path="url(#clip150)" d="M1028.44 1546.53 L1028.44 1568.04 L1022.58 1568.04 L1022.58 1546.72 Q1022.58 1541.66 1020.61 1539.14 Q1018.63 1536.63 1014.69 1536.63 Q1009.94 1536.63 1007.21 1539.65 Q1004.47 1542.68 1004.47 1547.9 L1004.47 1568.04 L998.581 1568.04 L998.581 1518.52 L1004.47 1518.52 L1004.47 1537.93 Q1006.57 1534.72 1009.4 1533.13 Q1012.27 1531.54 1015.99 1531.54 Q1022.13 1531.54 1025.29 1535.36 Q1028.44 1539.14 1028.44 1546.53 Z" fill="#000000" fill-rule="nonzero" fill-opacity="1"></path><path clip-path="url(#clip150)" d="M1053.93 1536.5 Q1049.22 1536.5 1046.48 1540.19 Q1043.75 1543.85 1043.75 1550.25 Q1043.75 1556.65 1046.45 1560.34 Q1049.19 1564 1053.93 1564 Q1058.61 1564 1061.35 1560.31 Q1064.08 1556.62 1064.08 1550.25 Q1064.08 1543.92 1061.35 1540.23 Q1058.61 1536.5 1053.93 1536.5 M1053.93 1531.54 Q1061.57 1531.54 1065.93 1536.5 Q1070.29 1541.47 1070.29 1550.25 Q1070.29 1559 1065.93 1564 Q1061.57 1568.97 1053.93 1568.97 Q1046.26 1568.97 1041.9 1564 Q1037.57 1559 1037.57 1550.25 Q1037.57 1541.47 1041.9 1536.5 Q1046.26 1531.54 1053.93 1531.54 Z" fill="#000000" fill-rule="nonzero" fill-opacity="1"></path><path clip-path="url(#clip150)" d="M1079.39 1553.98 L1079.39 1532.4 L1085.25 1532.4 L1085.25 1553.75 Q1085.25 1558.81 1087.22 1561.36 Q1089.2 1563.87 1093.14 1563.87 Q1097.89 1563.87 1100.62 1560.85 Q1103.39 1557.83 1103.39 1552.61 L1103.39 1532.4 L1109.25 1532.4 L1109.25 1568.04 L1103.39 1568.04 L1103.39 1562.57 Q1101.26 1565.82 1098.43 1567.41 Q1095.63 1568.97 1091.9 1568.97 Q1085.76 1568.97 1082.58 1565.15 Q1079.39 1561.33 1079.39 1553.98 M1094.13 1531.54 L1094.13 1531.54 Z" fill="#000000" fill-rule="nonzero" fill-opacity="1"></path><path clip-path="url(#clip150)" d="M1151.8 1548.76 L1151.8 1551.62 L1124.88 1551.62 Q1125.26 1557.67 1128.51 1560.85 Q1131.78 1564 1137.61 1564 Q1140.98 1564 1144.13 1563.17 Q1147.32 1562.35 1150.44 1560.69 L1150.44 1566.23 Q1147.28 1567.57 1143.97 1568.27 Q1140.66 1568.97 1137.26 1568.97 Q1128.73 1568.97 1123.73 1564 Q1118.77 1559.04 1118.77 1550.57 Q1118.77 1541.82 1123.48 1536.69 Q1128.22 1531.54 1136.24 1531.54 Q1143.43 1531.54 1147.6 1536.18 Q1151.8 1540.8 1151.8 1548.76 M1145.95 1547.04 Q1145.88 1542.23 1143.24 1539.37 Q1140.63 1536.5 1136.3 1536.5 Q1131.4 1536.5 1128.44 1539.27 Q1125.51 1542.04 1125.07 1547.07 L1145.95 1547.04 Z" fill="#000000" fill-rule="nonzero" fill-opacity="1"></path><path clip-path="url(#clip150)" d="M1167.21 1522.27 L1167.21 1532.4 L1179.27 1532.4 L1179.27 1536.95 L1167.21 1536.95 L1167.21 1556.3 Q1167.21 1560.66 1168.39 1561.9 Q1169.6 1563.14 1173.26 1563.14 L1179.27 1563.14 L1179.27 1568.04 L1173.26 1568.04 Q1166.48 1568.04 1163.9 1565.53 Q1161.32 1562.98 1161.32 1556.3 L1161.32 1536.95 L1157.02 1536.95 L1157.02 1532.4 L1161.32 1532.4 L1161.32 1522.27 L1167.21 1522.27 Z" fill="#000000" fill-rule="nonzero" fill-opacity="1"></path><path clip-path="url(#clip150)" d="M1192.77 1522.27 L1192.77 1532.4 L1204.83 1532.4 L1204.83 1536.95 L1192.77 1536.95 L1192.77 1556.3 Q1192.77 1560.66 1193.94 1561.9 Q1195.15 1563.14 1198.81 1563.14 L1204.83 1563.14 L1204.83 1568.04 L1198.81 1568.04 Q1192.03 1568.04 1189.46 1565.53 Q1186.88 1562.98 1186.88 1556.3 L1186.88 1536.95 L1182.58 1536.95 L1182.58 1532.4 L1186.88 1532.4 L1186.88 1522.27 L1192.77 1522.27 Z" fill="#000000" fill-rule="nonzero" fill-opacity="1"></path><path clip-path="url(#clip150)" d="M1243.02 1548.76 L1243.02 1551.62 L1216.1 1551.62 Q1216.48 1557.67 1219.73 1560.85 Q1223 1564 1228.83 1564 Q1232.2 1564 1235.35 1563.17 Q1238.54 1562.35 1241.66 1560.69 L1241.66 1566.23 Q1238.5 1567.57 1235.19 1568.27 Q1231.88 1568.97 1228.48 1568.97 Q1219.95 1568.97 1214.95 1564 Q1209.99 1559.04 1209.99 1550.57 Q1209.99 1541.82 1214.7 1536.69 Q1219.44 1531.54 1227.46 1531.54 Q1234.65 1531.54 1238.82 1536.18 Q1243.02 1540.8 1243.02 1548.76 M1237.17 1547.04 Q1237.1 1542.23 1234.46 1539.37 Q1231.85 1536.5 1227.52 1536.5 Q1222.62 1536.5 1219.66 1539.27 Q1216.73 1542.04 1216.29 1547.07 L1237.17 1547.04 Z" fill="#000000" fill-rule="nonzero" fill-opacity="1"></path><path clip-path="url(#clip150)" d="M1299.01 1533.76 L1299.01 1539.24 Q1296.53 1537.87 1294.01 1537.2 Q1291.53 1536.5 1288.98 1536.5 Q1283.29 1536.5 1280.14 1540.13 Q1276.99 1543.73 1276.99 1550.25 Q1276.99 1556.78 1280.14 1560.4 Q1283.29 1564 1288.98 1564 Q1291.53 1564 1294.01 1563.33 Q1296.53 1562.63 1299.01 1561.26 L1299.01 1566.68 Q1296.56 1567.82 1293.92 1568.39 Q1291.31 1568.97 1288.35 1568.97 Q1280.3 1568.97 1275.55 1563.91 Q1270.81 1558.85 1270.81 1550.25 Q1270.81 1541.53 1275.58 1536.53 Q1280.39 1531.54 1288.73 1531.54 Q1291.44 1531.54 1294.01 1532.11 Q1296.59 1532.65 1299.01 1533.76 Z" fill="#000000" fill-rule="nonzero" fill-opacity="1"></path><path clip-path="url(#clip150)" d="M1323.01 1536.5 Q1318.3 1536.5 1315.56 1540.19 Q1312.82 1543.85 1312.82 1550.25 Q1312.82 1556.65 1315.53 1560.34 Q1318.27 1564 1323.01 1564 Q1327.69 1564 1330.43 1560.31 Q1333.16 1556.62 1333.16 1550.25 Q1333.16 1543.92 1330.43 1540.23 Q1327.69 1536.5 1323.01 1536.5 M1323.01 1531.54 Q1330.65 1531.54 1335.01 1536.5 Q1339.37 1541.47 1339.37 1550.25 Q1339.37 1559 1335.01 1564 Q1330.65 1568.97 1323.01 1568.97 Q1315.34 1568.97 1310.98 1564 Q1306.65 1559 1306.65 1550.25 Q1306.65 1541.47 1310.98 1536.5 Q1315.34 1531.54 1323.01 1531.54 Z" fill="#000000" fill-rule="nonzero" fill-opacity="1"></path><path clip-path="url(#clip150)" d="M1379.57 1548.76 L1379.57 1551.62 L1352.64 1551.62 Q1353.02 1557.67 1356.27 1560.85 Q1359.55 1564 1365.37 1564 Q1368.75 1564 1371.9 1563.17 Q1375.08 1562.35 1378.2 1560.69 L1378.2 1566.23 Q1375.05 1567.57 1371.74 1568.27 Q1368.43 1568.97 1365.02 1568.97 Q1356.49 1568.97 1351.5 1564 Q1346.53 1559.04 1346.53 1550.57 Q1346.53 1541.82 1351.24 1536.69 Q1355.98 1531.54 1364 1531.54 Q1371.2 1531.54 1375.37 1536.18 Q1379.57 1540.8 1379.57 1548.76 M1373.71 1547.04 Q1373.65 1542.23 1371.01 1539.37 Q1368.4 1536.5 1364.07 1536.5 Q1359.17 1536.5 1356.21 1539.27 Q1353.28 1542.04 1352.83 1547.07 L1373.71 1547.04 Z" fill="#000000" fill-rule="nonzero" fill-opacity="1"></path><path clip-path="url(#clip150)" d="M1407.23 1518.52 L1407.23 1523.39 L1401.63 1523.39 Q1398.47 1523.39 1397.23 1524.66 Q1396.02 1525.93 1396.02 1529.24 L1396.02 1532.4 L1405.67 1532.4 L1405.67 1536.95 L1396.02 1536.95 L1396.02 1568.04 L1390.14 1568.04 L1390.14 1536.95 L1384.53 1536.95 L1384.53 1532.4 L1390.14 1532.4 L1390.14 1529.91 Q1390.14 1523.96 1392.9 1521.26 Q1395.67 1518.52 1401.69 1518.52 L1407.23 1518.52 Z" fill="#000000" fill-rule="nonzero" fill-opacity="1"></path><path clip-path="url(#clip150)" d="M1430.18 1518.52 L1430.18 1523.39 L1424.57 1523.39 Q1421.42 1523.39 1420.18 1524.66 Q1418.97 1525.93 1418.97 1529.24 L1418.97 1532.4 L1428.62 1532.4 L1428.62 1536.95 L1418.97 1536.95 L1418.97 1568.04 L1413.08 1568.04 L1413.08 1536.95 L1407.48 1536.95 L1407.48 1532.4 L1413.08 1532.4 L1413.08 1529.91 Q1413.08 1523.96 1415.85 1521.26 Q1418.62 1518.52 1424.64 1518.52 L1430.18 1518.52 Z" fill="#000000" fill-rule="nonzero" fill-opacity="1"></path><path clip-path="url(#clip150)" d="M1435.08 1532.4 L1440.93 1532.4 L1440.93 1568.04 L1435.08 1568.04 L1435.08 1532.4 M1435.08 1518.52 L1440.93 1518.52 L1440.93 1525.93 L1435.08 1525.93 L1435.08 1518.52 Z" fill="#000000" fill-rule="nonzero" fill-opacity="1"></path><path clip-path="url(#clip150)" d="M1478.84 1533.76 L1478.84 1539.24 Q1476.36 1537.87 1473.84 1537.2 Q1471.36 1536.5 1468.82 1536.5 Q1463.12 1536.5 1459.97 1540.13 Q1456.82 1543.73 1456.82 1550.25 Q1456.82 1556.78 1459.97 1560.4 Q1463.12 1564 1468.82 1564 Q1471.36 1564 1473.84 1563.33 Q1476.36 1562.63 1478.84 1561.26 L1478.84 1566.68 Q1476.39 1567.82 1473.75 1568.39 Q1471.14 1568.97 1468.18 1568.97 Q1460.13 1568.97 1455.38 1563.91 Q1450.64 1558.85 1450.64 1550.25 Q1450.64 1541.53 1455.42 1536.53 Q1460.22 1531.54 1468.56 1531.54 Q1471.27 1531.54 1473.84 1532.11 Q1476.42 1532.65 1478.84 1533.76 Z" fill="#000000" fill-rule="nonzero" fill-opacity="1"></path><path clip-path="url(#clip150)" d="M1489.03 1532.4 L1494.88 1532.4 L1494.88 1568.04 L1489.03 1568.04 L1489.03 1532.4 M1489.03 1518.52 L1494.88 1518.52 L1494.88 1525.93 L1489.03 1525.93 L1489.03 1518.52 Z" fill="#000000" fill-rule="nonzero" fill-opacity="1"></path><path clip-path="url(#clip150)" d="M1537.63 1548.76 L1537.63 1551.62 L1510.7 1551.62 Q1511.08 1557.67 1514.33 1560.85 Q1517.61 1564 1523.43 1564 Q1526.81 1564 1529.96 1563.17 Q1533.14 1562.35 1536.26 1560.69 L1536.26 1566.23 Q1533.11 1567.57 1529.8 1568.27 Q1526.49 1568.97 1523.08 1568.97 Q1514.55 1568.97 1509.56 1564 Q1504.59 1559.04 1504.59 1550.57 Q1504.59 1541.82 1509.3 1536.69 Q1514.04 1531.54 1522.07 1531.54 Q1529.26 1531.54 1533.43 1536.18 Q1537.63 1540.8 1537.63 1548.76 M1531.77 1547.04 Q1531.71 1542.23 1529.07 1539.37 Q1526.46 1536.5 1522.13 1536.5 Q1517.23 1536.5 1514.27 1539.27 Q1511.34 1542.04 1510.89 1547.07 L1531.77 1547.04 Z" fill="#000000" fill-rule="nonzero" fill-opacity="1"></path><path clip-path="url(#clip150)" d="M1576.87 1546.53 L1576.87 1568.04 L1571.02 1568.04 L1571.02 1546.72 Q1571.02 1541.66 1569.04 1539.14 Q1567.07 1536.63 1563.12 1536.63 Q1558.38 1536.63 1555.64 1539.65 Q1552.91 1542.68 1552.91 1547.9 L1552.91 1568.04 L1547.02 1568.04 L1547.02 1532.4 L1552.91 1532.4 L1552.91 1537.93 Q1555.01 1534.72 1557.84 1533.13 Q1560.7 1531.54 1564.43 1531.54 Q1570.57 1531.54 1573.72 1535.36 Q1576.87 1539.14 1576.87 1546.53 Z" fill="#000000" fill-rule="nonzero" fill-opacity="1"></path><path clip-path="url(#clip150)" d="M1594.35 1522.27 L1594.35 1532.4 L1606.41 1532.4 L1606.41 1536.95 L1594.35 1536.95 L1594.35 1556.3 Q1594.35 1560.66 1595.53 1561.9 Q1596.73 1563.14 1600.4 1563.14 L1606.41 1563.14 L1606.41 1568.04 L1600.4 1568.04 Q1593.62 1568.04 1591.04 1565.53 Q1588.46 1562.98 1588.46 1556.3 L1588.46 1536.95 L1584.16 1536.95 L1584.16 1532.4 L1588.46 1532.4 L1588.46 1522.27 L1594.35 1522.27 Z" fill="#000000" fill-rule="nonzero" fill-opacity="1"></path><polyline clip-path="url(#clip150)" style="stroke:#000000; stroke-linecap:round; stroke-linejoin:round; stroke-width:4; stroke-opacity:1; fill:none" points="173.015,1423.18 173.015,123.472 "></polyline>
<polyline clip-path="url(#clip150)" style="stroke:#000000; stroke-linecap:round; stroke-linejoin:round; stroke-width:4; stroke-opacity:1; fill:none" points="173.015,1232.05 191.912,1232.05 "></polyline>
<polyline clip-path="url(#clip150)" style="stroke:#000000; stroke-linecap:round; stroke-linejoin:round; stroke-width:4; stroke-opacity:1; fill:none" points="173.015,811.553 191.912,811.553 "></polyline>
<polyline clip-path="url(#clip150)" style="stroke:#000000; stroke-linecap:round; stroke-linejoin:round; stroke-width:4; stroke-opacity:1; fill:none" points="173.015,391.059 191.912,391.059 "></polyline>
<path clip-path="url(#clip150)" d="M117.107 1245.39 L124.746 1245.39 L124.746 1219.03 L116.436 1220.69 L116.436 1216.43 L124.7 1214.77 L129.376 1214.77 L129.376 1245.39 L137.015 1245.39 L137.015 1249.33 L117.107 1249.33 L117.107 1245.39 Z" fill="#000000" fill-rule="nonzero" fill-opacity="1"></path><path clip-path="url(#clip150)" d="M120.695 824.898 L137.015 824.898 L137.015 828.833 L115.07 828.833 L115.07 824.898 Q117.732 822.143 122.316 817.513 Q126.922 812.861 128.103 811.518 Q130.348 808.995 131.228 807.259 Q132.13 805.499 132.13 803.81 Q132.13 801.055 130.186 799.319 Q128.265 797.583 125.163 797.583 Q122.964 797.583 120.51 798.347 Q118.08 799.111 115.302 800.662 L115.302 795.939 Q118.126 794.805 120.58 794.226 Q123.033 793.648 125.07 793.648 Q130.441 793.648 133.635 796.333 Q136.829 799.018 136.829 803.509 Q136.829 805.638 136.019 807.56 Q135.232 809.458 133.126 812.05 Q132.547 812.722 129.445 815.939 Q126.343 819.134 120.695 824.898 Z" fill="#000000" fill-rule="nonzero" fill-opacity="1"></path><path clip-path="url(#clip150)" d="M129.885 389.705 Q133.242 390.422 135.117 392.691 Q137.015 394.959 137.015 398.293 Q137.015 403.408 133.496 406.209 Q129.978 409.01 123.496 409.01 Q121.32 409.01 119.006 408.57 Q116.714 408.154 114.26 407.297 L114.26 402.783 Q116.205 403.918 118.519 404.496 Q120.834 405.075 123.357 405.075 Q127.755 405.075 130.047 403.339 Q132.362 401.603 132.362 398.293 Q132.362 395.237 130.209 393.524 Q128.08 391.788 124.26 391.788 L120.232 391.788 L120.232 387.946 L124.445 387.946 Q127.894 387.946 129.723 386.58 Q131.552 385.191 131.552 382.598 Q131.552 379.936 129.654 378.524 Q127.779 377.089 124.26 377.089 Q122.339 377.089 120.14 377.506 Q117.941 377.923 115.302 378.802 L115.302 374.635 Q117.964 373.895 120.279 373.524 Q122.617 373.154 124.677 373.154 Q130.001 373.154 133.103 375.585 Q136.204 377.992 136.204 382.112 Q136.204 384.983 134.561 386.973 Q132.917 388.941 129.885 389.705 Z" fill="#000000" fill-rule="nonzero" fill-opacity="1"></path><path clip-path="url(#clip150)" d="M20.1444 848.855 L26.9239 848.855 Q23.9002 852.102 22.4043 855.794 Q20.9083 859.454 20.9083 863.592 Q20.9083 871.74 25.9054 876.068 Q30.8707 880.397 40.2919 880.397 Q49.6813 880.397 54.6784 876.068 Q59.6436 871.74 59.6436 863.592 Q59.6436 859.454 58.1477 855.794 Q56.6518 852.102 53.6281 848.855 L60.3439 848.855 Q62.6355 852.229 63.7814 856.017 Q64.9272 859.772 64.9272 863.974 Q64.9272 874.764 58.3387 880.97 Q51.7183 887.177 40.2919 887.177 Q28.8336 887.177 22.2451 880.97 Q15.6248 874.764 15.6248 863.974 Q15.6248 859.709 16.7706 855.953 Q17.8846 852.165 20.1444 848.855 Z" fill="#000000" fill-rule="nonzero" fill-opacity="1"></path><path clip-path="url(#clip150)" d="M14.479 839.179 L14.479 833.323 L64.0042 833.323 L64.0042 839.179 L14.479 839.179 Z" fill="#000000" fill-rule="nonzero" fill-opacity="1"></path><path clip-path="url(#clip150)" d="M49.9359 821.674 L28.3562 821.674 L28.3562 815.817 L49.7131 815.817 Q54.7739 815.817 57.3202 813.844 Q59.8346 811.87 59.8346 807.924 Q59.8346 803.181 56.8109 800.444 Q53.7872 797.675 48.5673 797.675 L28.3562 797.675 L28.3562 791.818 L64.0042 791.818 L64.0042 797.675 L58.5296 797.675 Q61.7762 799.807 63.3676 802.64 Q64.9272 805.441 64.9272 809.165 Q64.9272 815.308 61.1078 818.491 Q57.2883 821.674 49.9359 821.674 M27.4968 806.937 L27.4968 806.937 Z" fill="#000000" fill-rule="nonzero" fill-opacity="1"></path><path clip-path="url(#clip150)" d="M29.4065 757.03 L34.9447 757.03 Q33.6716 759.512 33.035 762.186 Q32.3984 764.86 32.3984 767.724 Q32.3984 772.085 33.7352 774.281 Q35.072 776.445 37.7456 776.445 Q39.7826 776.445 40.9603 774.886 Q42.1061 773.326 43.1565 768.615 L43.6021 766.61 Q44.9389 760.372 47.3897 757.762 Q49.8086 755.12 54.1691 755.12 Q59.1344 755.12 62.0308 759.067 Q64.9272 762.982 64.9272 769.857 Q64.9272 772.721 64.3543 775.84 Q63.8132 778.928 62.6992 782.365 L56.6518 782.365 Q58.3387 779.119 59.198 775.968 Q60.0256 772.817 60.0256 769.729 Q60.0256 765.592 58.6251 763.364 Q57.1929 761.136 54.6147 761.136 Q52.2276 761.136 50.9545 762.759 Q49.6813 764.35 48.5037 769.793 L48.0262 771.83 Q46.8804 777.273 44.5251 779.692 Q42.138 782.111 38.0002 782.111 Q32.9713 782.111 30.2341 778.546 Q27.4968 774.981 27.4968 768.424 Q27.4968 765.178 27.9743 762.313 Q28.4517 759.449 29.4065 757.03 Z" fill="#000000" fill-rule="nonzero" fill-opacity="1"></path><path clip-path="url(#clip150)" d="M18.2347 740.002 L28.3562 740.002 L28.3562 727.938 L32.9077 727.938 L32.9077 740.002 L52.2594 740.002 Q56.6199 740.002 57.8613 738.824 Q59.1026 737.614 59.1026 733.954 L59.1026 727.938 L64.0042 727.938 L64.0042 733.954 Q64.0042 740.734 61.4897 743.312 Q58.9434 745.89 52.2594 745.89 L32.9077 745.89 L32.9077 750.187 L28.3562 750.187 L28.3562 745.89 L18.2347 745.89 L18.2347 740.002 Z" fill="#000000" fill-rule="nonzero" fill-opacity="1"></path><path clip-path="url(#clip150)" d="M44.7161 689.744 L47.5806 689.744 L47.5806 716.671 Q53.6281 716.289 56.8109 713.043 Q59.9619 709.764 59.9619 703.94 Q59.9619 700.566 59.1344 697.415 Q58.3069 694.232 56.6518 691.113 L62.1899 691.113 Q63.5267 694.264 64.227 697.574 Q64.9272 700.884 64.9272 704.29 Q64.9272 712.82 59.9619 717.817 Q54.9967 722.782 46.5303 722.782 Q37.7774 722.782 32.6531 718.072 Q27.4968 713.329 27.4968 705.308 Q27.4968 698.115 32.1438 693.946 Q36.7589 689.744 44.7161 689.744 M42.9973 695.601 Q38.1912 695.664 35.3266 698.306 Q32.4621 700.916 32.4621 705.245 Q32.4621 710.146 35.2312 713.106 Q38.0002 716.035 43.0292 716.48 L42.9973 695.601 Z" fill="#000000" fill-rule="nonzero" fill-opacity="1"></path><path clip-path="url(#clip150)" d="M33.8307 659.475 Q33.2578 660.462 33.0032 661.64 Q32.7167 662.785 32.7167 664.186 Q32.7167 669.151 35.9632 671.825 Q39.1779 674.467 45.2253 674.467 L64.0042 674.467 L64.0042 680.355 L28.3562 680.355 L28.3562 674.467 L33.8944 674.467 Q30.6479 672.621 29.0883 669.66 Q27.4968 666.7 27.4968 662.467 Q27.4968 661.862 27.5923 661.13 Q27.656 660.398 27.8151 659.507 L33.8307 659.475 Z" fill="#000000" fill-rule="nonzero" fill-opacity="1"></path><path clip-path="url(#clip150)" d="M1003.26 14.0809 L1003.26 22.0612 Q998.604 19.8332 994.472 18.7395 Q990.34 17.6457 986.492 17.6457 Q979.808 17.6457 976.162 20.2383 Q972.557 22.8309 972.557 27.611 Q972.557 31.6214 974.947 33.6873 Q977.378 35.7128 984.102 36.9686 L989.044 37.9813 Q998.199 39.7232 1002.53 44.1387 Q1006.91 48.5136 1006.91 55.8863 Q1006.91 64.6767 1000.99 69.2137 Q995.121 73.7508 983.737 73.7508 Q979.444 73.7508 974.582 72.7785 Q969.762 71.8063 964.577 69.9024 L964.577 61.4765 Q969.559 64.2716 974.339 65.6895 Q979.119 67.1073 983.737 67.1073 Q990.746 67.1073 994.553 64.3527 Q998.361 61.598 998.361 56.4939 Q998.361 52.0379 995.607 49.5264 Q992.893 47.0148 986.654 45.759 L981.672 44.7868 Q972.516 42.9639 968.425 39.075 Q964.334 35.1862 964.334 28.2591 Q964.334 20.2383 969.964 15.6203 Q975.636 11.0023 985.56 11.0023 Q989.814 11.0023 994.229 11.7719 Q998.645 12.5416 1003.26 14.0809 Z" fill="#000000" fill-rule="nonzero" fill-opacity="1"></path><path clip-path="url(#clip150)" d="M1019.34 27.2059 L1026.8 27.2059 L1026.8 72.576 L1019.34 72.576 L1019.34 27.2059 M1019.34 9.54393 L1026.8 9.54393 L1026.8 18.9825 L1019.34 18.9825 L1019.34 9.54393 Z" fill="#000000" fill-rule="nonzero" fill-opacity="1"></path><path clip-path="url(#clip150)" d="M1042.39 9.54393 L1049.85 9.54393 L1049.85 72.576 L1042.39 72.576 L1042.39 9.54393 Z" fill="#000000" fill-rule="nonzero" fill-opacity="1"></path><path clip-path="url(#clip150)" d="M1103.16 45.1919 L1103.16 72.576 L1095.7 72.576 L1095.7 45.4349 Q1095.7 38.994 1093.19 35.7938 Q1090.68 32.5936 1085.66 32.5936 Q1079.62 32.5936 1076.14 36.4419 Q1072.65 40.2903 1072.65 46.9338 L1072.65 72.576 L1065.16 72.576 L1065.16 9.54393 L1072.65 9.54393 L1072.65 34.2544 Q1075.33 30.163 1078.93 28.1376 Q1082.58 26.1121 1087.32 26.1121 Q1095.14 26.1121 1099.15 30.9732 Q1103.16 35.7938 1103.16 45.1919 Z" fill="#000000" fill-rule="nonzero" fill-opacity="1"></path><path clip-path="url(#clip150)" d="M1135.61 32.4315 Q1129.61 32.4315 1126.13 37.1306 Q1122.64 41.7891 1122.64 49.9314 Q1122.64 58.0738 1126.09 62.7728 Q1129.57 67.4314 1135.61 67.4314 Q1141.56 67.4314 1145.04 62.7323 Q1148.53 58.0333 1148.53 49.9314 Q1148.53 41.8701 1145.04 37.1711 Q1141.56 32.4315 1135.61 32.4315 M1135.61 26.1121 Q1145.33 26.1121 1150.88 32.4315 Q1156.43 38.7509 1156.43 49.9314 Q1156.43 61.0714 1150.88 67.4314 Q1145.33 73.7508 1135.61 73.7508 Q1125.84 73.7508 1120.29 67.4314 Q1114.78 61.0714 1114.78 49.9314 Q1114.78 38.7509 1120.29 32.4315 Q1125.84 26.1121 1135.61 26.1121 Z" fill="#000000" fill-rule="nonzero" fill-opacity="1"></path><path clip-path="url(#clip150)" d="M1168.01 54.671 L1168.01 27.2059 L1175.47 27.2059 L1175.47 54.3874 Q1175.47 60.8284 1177.98 64.0691 Q1180.49 67.2693 1185.51 67.2693 Q1191.55 67.2693 1195.03 63.421 Q1198.56 59.5726 1198.56 52.9291 L1198.56 27.2059 L1206.01 27.2059 L1206.01 72.576 L1198.56 72.576 L1198.56 65.6084 Q1195.84 69.7404 1192.24 71.7658 Q1188.67 73.7508 1183.93 73.7508 Q1176.11 73.7508 1172.06 68.8897 Q1168.01 64.0286 1168.01 54.671 M1186.77 26.1121 L1186.77 26.1121 Z" fill="#000000" fill-rule="nonzero" fill-opacity="1"></path><path clip-path="url(#clip150)" d="M1260.17 48.0275 L1260.17 51.6733 L1225.9 51.6733 Q1226.39 59.3701 1230.52 63.421 Q1234.69 67.4314 1242.1 67.4314 Q1246.4 67.4314 1250.41 66.3781 Q1254.46 65.3249 1258.43 63.2184 L1258.43 70.267 Q1254.42 71.9684 1250.21 72.8596 Q1245.99 73.7508 1241.66 73.7508 Q1230.8 73.7508 1224.44 67.4314 Q1218.12 61.1119 1218.12 50.3365 Q1218.12 39.1965 1224.12 32.6746 Q1230.15 26.1121 1240.36 26.1121 Q1249.52 26.1121 1254.82 32.0264 Q1260.17 37.9003 1260.17 48.0275 M1252.72 45.84 Q1252.64 39.7232 1249.27 36.0774 Q1245.95 32.4315 1240.44 32.4315 Q1234.2 32.4315 1230.44 35.9558 Q1226.71 39.4801 1226.14 45.8805 L1252.72 45.84 Z" fill="#000000" fill-rule="nonzero" fill-opacity="1"></path><path clip-path="url(#clip150)" d="M1279.78 14.324 L1279.78 27.2059 L1295.13 27.2059 L1295.13 32.9987 L1279.78 32.9987 L1279.78 57.6282 Q1279.78 63.1779 1281.28 64.7578 Q1282.82 66.3376 1287.47 66.3376 L1295.13 66.3376 L1295.13 72.576 L1287.47 72.576 Q1278.85 72.576 1275.56 69.3758 Q1272.28 66.1351 1272.28 57.6282 L1272.28 32.9987 L1266.81 32.9987 L1266.81 27.2059 L1272.28 27.2059 L1272.28 14.324 L1279.78 14.324 Z" fill="#000000" fill-rule="nonzero" fill-opacity="1"></path><path clip-path="url(#clip150)" d="M1312.31 14.324 L1312.31 27.2059 L1327.66 27.2059 L1327.66 32.9987 L1312.31 32.9987 L1312.31 57.6282 Q1312.31 63.1779 1313.81 64.7578 Q1315.34 66.3376 1320 66.3376 L1327.66 66.3376 L1327.66 72.576 L1320 72.576 Q1311.37 72.576 1308.09 69.3758 Q1304.81 66.1351 1304.81 57.6282 L1304.81 32.9987 L1299.34 32.9987 L1299.34 27.2059 L1304.81 27.2059 L1304.81 14.324 L1312.31 14.324 Z" fill="#000000" fill-rule="nonzero" fill-opacity="1"></path><path clip-path="url(#clip150)" d="M1376.27 48.0275 L1376.27 51.6733 L1342 51.6733 Q1342.49 59.3701 1346.62 63.421 Q1350.79 67.4314 1358.2 67.4314 Q1362.5 67.4314 1366.51 66.3781 Q1370.56 65.3249 1374.53 63.2184 L1374.53 70.267 Q1370.52 71.9684 1366.3 72.8596 Q1362.09 73.7508 1357.76 73.7508 Q1346.9 73.7508 1340.54 67.4314 Q1334.22 61.1119 1334.22 50.3365 Q1334.22 39.1965 1340.22 32.6746 Q1346.25 26.1121 1356.46 26.1121 Q1365.62 26.1121 1370.92 32.0264 Q1376.27 37.9003 1376.27 48.0275 M1368.82 45.84 Q1368.74 39.7232 1365.37 36.0774 Q1362.05 32.4315 1356.54 32.4315 Q1350.3 32.4315 1346.54 35.9558 Q1342.81 39.4801 1342.24 45.8805 L1368.82 45.84 Z" fill="#000000" fill-rule="nonzero" fill-opacity="1"></path><path clip-path="url(#clip150)" d="M1423.38 18.8205 L1423.38 41.5461 L1433.67 41.5461 Q1439.38 41.5461 1442.5 38.5889 Q1445.62 35.6318 1445.62 30.163 Q1445.62 24.7348 1442.5 21.7777 Q1439.38 18.8205 1433.67 18.8205 L1423.38 18.8205 M1415.2 12.096 L1433.67 12.096 Q1443.84 12.096 1449.02 16.714 Q1454.25 21.2916 1454.25 30.163 Q1454.25 39.1155 1449.02 43.6931 Q1443.84 48.2706 1433.67 48.2706 L1423.38 48.2706 L1423.38 72.576 L1415.2 72.576 L1415.2 12.096 Z" fill="#000000" fill-rule="nonzero" fill-opacity="1"></path><path clip-path="url(#clip150)" d="M1464.9 9.54393 L1472.36 9.54393 L1472.36 72.576 L1464.9 72.576 L1464.9 9.54393 Z" fill="#000000" fill-rule="nonzero" fill-opacity="1"></path><path clip-path="url(#clip150)" d="M1505.53 32.4315 Q1499.54 32.4315 1496.06 37.1306 Q1492.57 41.7891 1492.57 49.9314 Q1492.57 58.0738 1496.01 62.7728 Q1499.5 67.4314 1505.53 67.4314 Q1511.49 67.4314 1514.97 62.7323 Q1518.46 58.0333 1518.46 49.9314 Q1518.46 41.8701 1514.97 37.1711 Q1511.49 32.4315 1505.53 32.4315 M1505.53 26.1121 Q1515.26 26.1121 1520.81 32.4315 Q1526.36 38.7509 1526.36 49.9314 Q1526.36 61.0714 1520.81 67.4314 Q1515.26 73.7508 1505.53 73.7508 Q1495.77 73.7508 1490.22 67.4314 Q1484.71 61.0714 1484.71 49.9314 Q1484.71 38.7509 1490.22 32.4315 Q1495.77 26.1121 1505.53 26.1121 Z" fill="#000000" fill-rule="nonzero" fill-opacity="1"></path><path clip-path="url(#clip150)" d="M1546.08 14.324 L1546.08 27.2059 L1561.44 27.2059 L1561.44 32.9987 L1546.08 32.9987 L1546.08 57.6282 Q1546.08 63.1779 1547.58 64.7578 Q1549.12 66.3376 1553.78 66.3376 L1561.44 66.3376 L1561.44 72.576 L1553.78 72.576 Q1545.15 72.576 1541.87 69.3758 Q1538.59 66.1351 1538.59 57.6282 L1538.59 32.9987 L1533.12 32.9987 L1533.12 27.2059 L1538.59 27.2059 L1538.59 14.324 L1546.08 14.324 Z" fill="#000000" fill-rule="nonzero" fill-opacity="1"></path><polyline clip-path="url(#clip152)" style="stroke:#00d4ff; stroke-linecap:round; stroke-linejoin:round; stroke-width:4; stroke-opacity:1; fill:none" points="173.015,1346.73 1954.48,1346.73 "></polyline>
<polyline clip-path="url(#clip152)" style="stroke:#00d4ff; stroke-linecap:round; stroke-linejoin:round; stroke-width:4; stroke-opacity:1; fill:none" points="173.015,1339.08 1987.47,1339.08 "></polyline>
<polyline clip-path="url(#clip152)" style="stroke:#00d4ff; stroke-linecap:round; stroke-linejoin:round; stroke-width:4; stroke-opacity:1; fill:none" points="173.015,1331.44 2005.4,1331.44 "></polyline>
<polyline clip-path="url(#clip152)" style="stroke:#00d4ff; stroke-linecap:round; stroke-linejoin:round; stroke-width:4; stroke-opacity:1; fill:none" points="173.015,1323.79 2010.46,1323.79 "></polyline>
<polyline clip-path="url(#clip152)" style="stroke:#00d4ff; stroke-linecap:round; stroke-linejoin:round; stroke-width:4; stroke-opacity:1; fill:none" points="173.015,1316.15 2027.86,1316.15 "></polyline>
<polyline clip-path="url(#clip152)" style="stroke:#00d4ff; stroke-linecap:round; stroke-linejoin:round; stroke-width:4; stroke-opacity:1; fill:none" points="173.015,1308.5 2038.45,1308.5 "></polyline>
<polyline clip-path="url(#clip152)" style="stroke:#00d4ff; stroke-linecap:round; stroke-linejoin:round; stroke-width:4; stroke-opacity:1; fill:none" points="173.015,1300.85 2060.66,1300.85 "></polyline>
<polyline clip-path="url(#clip152)" style="stroke:#00d4ff; stroke-linecap:round; stroke-linejoin:round; stroke-width:4; stroke-opacity:1; fill:none" points="173.015,1293.21 2062.56,1293.21 "></polyline>
<polyline clip-path="url(#clip152)" style="stroke:#00d4ff; stroke-linecap:round; stroke-linejoin:round; stroke-width:4; stroke-opacity:1; fill:none" points="173.015,1285.56 2066.72,1285.56 "></polyline>
<polyline clip-path="url(#clip152)" style="stroke:#00d4ff; stroke-linecap:round; stroke-linejoin:round; stroke-width:4; stroke-opacity:1; fill:none" points="173.015,1277.92 2068.08,1277.92 "></polyline>
<polyline clip-path="url(#clip152)" style="stroke:#00d4ff; stroke-linecap:round; stroke-linejoin:round; stroke-width:4; stroke-opacity:1; fill:none" points="173.015,1270.27 2068.95,1270.27 "></polyline>
<polyline clip-path="url(#clip152)" style="stroke:#00d4ff; stroke-linecap:round; stroke-linejoin:round; stroke-width:4; stroke-opacity:1; fill:none" points="173.015,1262.63 2071.03,1262.63 "></polyline>
<polyline clip-path="url(#clip152)" style="stroke:#00d4ff; stroke-linecap:round; stroke-linejoin:round; stroke-width:4; stroke-opacity:1; fill:none" points="173.015,1254.98 2072.33,1254.98 "></polyline>
<polyline clip-path="url(#clip152)" style="stroke:#00d4ff; stroke-linecap:round; stroke-linejoin:round; stroke-width:4; stroke-opacity:1; fill:none" points="173.015,1247.34 2089.66,1247.34 "></polyline>
<polyline clip-path="url(#clip152)" style="stroke:#00d4ff; stroke-linecap:round; stroke-linejoin:round; stroke-width:4; stroke-opacity:1; fill:none" points="173.015,1239.69 2107.33,1239.69 "></polyline>
<polyline clip-path="url(#clip152)" style="stroke:#00d4ff; stroke-linecap:round; stroke-linejoin:round; stroke-width:4; stroke-opacity:1; fill:none" points="173.015,1232.05 2108.14,1232.05 "></polyline>
<polyline clip-path="url(#clip152)" style="stroke:#00d4ff; stroke-linecap:round; stroke-linejoin:round; stroke-width:4; stroke-opacity:1; fill:none" points="173.015,1224.4 2109.6,1224.4 "></polyline>
<polyline clip-path="url(#clip152)" style="stroke:#00d4ff; stroke-linecap:round; stroke-linejoin:round; stroke-width:4; stroke-opacity:1; fill:none" points="173.015,1216.76 2110.34,1216.76 "></polyline>
<polyline clip-path="url(#clip152)" style="stroke:#00d4ff; stroke-linecap:round; stroke-linejoin:round; stroke-width:4; stroke-opacity:1; fill:none" points="173.015,1209.11 2113.85,1209.11 "></polyline>
<polyline clip-path="url(#clip152)" style="stroke:#00d4ff; stroke-linecap:round; stroke-linejoin:round; stroke-width:4; stroke-opacity:1; fill:none" points="173.015,1201.46 2135.03,1201.46 "></polyline>
<polyline clip-path="url(#clip152)" style="stroke:#00d4ff; stroke-linecap:round; stroke-linejoin:round; stroke-width:4; stroke-opacity:1; fill:none" points="173.015,1193.82 2136.87,1193.82 "></polyline>
<polyline clip-path="url(#clip152)" style="stroke:#00d4ff; stroke-linecap:round; stroke-linejoin:round; stroke-width:4; stroke-opacity:1; fill:none" points="173.015,1186.17 2137.36,1186.17 "></polyline>
<polyline clip-path="url(#clip152)" style="stroke:#00d4ff; stroke-linecap:round; stroke-linejoin:round; stroke-width:4; stroke-opacity:1; fill:none" points="173.015,1178.53 2138.01,1178.53 "></polyline>
<polyline clip-path="url(#clip152)" style="stroke:#00d4ff; stroke-linecap:round; stroke-linejoin:round; stroke-width:4; stroke-opacity:1; fill:none" points="173.015,1170.88 2138.08,1170.88 "></polyline>
<polyline clip-path="url(#clip152)" style="stroke:#00d4ff; stroke-linecap:round; stroke-linejoin:round; stroke-width:4; stroke-opacity:1; fill:none" points="173.015,1163.24 2147.05,1163.24 "></polyline>
<polyline clip-path="url(#clip152)" style="stroke:#00d4ff; stroke-linecap:round; stroke-linejoin:round; stroke-width:4; stroke-opacity:1; fill:none" points="173.015,1155.59 2150.04,1155.59 "></polyline>
<polyline clip-path="url(#clip152)" style="stroke:#00d4ff; stroke-linecap:round; stroke-linejoin:round; stroke-width:4; stroke-opacity:1; fill:none" points="173.015,1147.95 2151.77,1147.95 "></polyline>
<polyline clip-path="url(#clip152)" style="stroke:#00d4ff; stroke-linecap:round; stroke-linejoin:round; stroke-width:4; stroke-opacity:1; fill:none" points="173.015,1140.3 2152.5,1140.3 "></polyline>
<polyline clip-path="url(#clip152)" style="stroke:#00d4ff; stroke-linecap:round; stroke-linejoin:round; stroke-width:4; stroke-opacity:1; fill:none" points="173.015,1132.66 2154.49,1132.66 "></polyline>
<polyline clip-path="url(#clip152)" style="stroke:#00d4ff; stroke-linecap:round; stroke-linejoin:round; stroke-width:4; stroke-opacity:1; fill:none" points="173.015,1125.01 2156.01,1125.01 "></polyline>
<polyline clip-path="url(#clip152)" style="stroke:#00d4ff; stroke-linecap:round; stroke-linejoin:round; stroke-width:4; stroke-opacity:1; fill:none" points="173.015,1117.37 2156.51,1117.37 "></polyline>
<polyline clip-path="url(#clip152)" style="stroke:#00d4ff; stroke-linecap:round; stroke-linejoin:round; stroke-width:4; stroke-opacity:1; fill:none" points="173.015,1109.72 2156.8,1109.72 "></polyline>
<polyline clip-path="url(#clip152)" style="stroke:#00d4ff; stroke-linecap:round; stroke-linejoin:round; stroke-width:4; stroke-opacity:1; fill:none" points="173.015,1102.08 2157.86,1102.08 "></polyline>
<polyline clip-path="url(#clip152)" style="stroke:#00d4ff; stroke-linecap:round; stroke-linejoin:round; stroke-width:4; stroke-opacity:1; fill:none" points="173.015,1094.43 2158.8,1094.43 "></polyline>
<polyline clip-path="url(#clip152)" style="stroke:#00d4ff; stroke-linecap:round; stroke-linejoin:round; stroke-width:4; stroke-opacity:1; fill:none" points="173.015,1086.78 2160.17,1086.78 "></polyline>
<polyline clip-path="url(#clip152)" style="stroke:#00d4ff; stroke-linecap:round; stroke-linejoin:round; stroke-width:4; stroke-opacity:1; fill:none" points="173.015,1079.14 2164.78,1079.14 "></polyline>
<polyline clip-path="url(#clip152)" style="stroke:#00d4ff; stroke-linecap:round; stroke-linejoin:round; stroke-width:4; stroke-opacity:1; fill:none" points="173.015,1071.49 2166.21,1071.49 "></polyline>
<polyline clip-path="url(#clip152)" style="stroke:#00d4ff; stroke-linecap:round; stroke-linejoin:round; stroke-width:4; stroke-opacity:1; fill:none" points="173.015,1063.85 2167.74,1063.85 "></polyline>
<polyline clip-path="url(#clip152)" style="stroke:#00d4ff; stroke-linecap:round; stroke-linejoin:round; stroke-width:4; stroke-opacity:1; fill:none" points="173.015,1056.2 2169.59,1056.2 "></polyline>
<polyline clip-path="url(#clip152)" style="stroke:#00d4ff; stroke-linecap:round; stroke-linejoin:round; stroke-width:4; stroke-opacity:1; fill:none" points="173.015,1048.56 2170.7,1048.56 "></polyline>
<polyline clip-path="url(#clip152)" style="stroke:#00d4ff; stroke-linecap:round; stroke-linejoin:round; stroke-width:4; stroke-opacity:1; fill:none" points="173.015,1040.91 2172.2,1040.91 "></polyline>
<polyline clip-path="url(#clip152)" style="stroke:#00d4ff; stroke-linecap:round; stroke-linejoin:round; stroke-width:4; stroke-opacity:1; fill:none" points="173.015,1033.27 2177.7,1033.27 "></polyline>
<polyline clip-path="url(#clip152)" style="stroke:#00d4ff; stroke-linecap:round; stroke-linejoin:round; stroke-width:4; stroke-opacity:1; fill:none" points="173.015,1025.62 2180.82,1025.62 "></polyline>
<polyline clip-path="url(#clip152)" style="stroke:#00d4ff; stroke-linecap:round; stroke-linejoin:round; stroke-width:4; stroke-opacity:1; fill:none" points="173.015,1017.98 2181.43,1017.98 "></polyline>
<polyline clip-path="url(#clip152)" style="stroke:#00d4ff; stroke-linecap:round; stroke-linejoin:round; stroke-width:4; stroke-opacity:1; fill:none" points="173.015,1010.33 2183.39,1010.33 "></polyline>
<polyline clip-path="url(#clip152)" style="stroke:#00d4ff; stroke-linecap:round; stroke-linejoin:round; stroke-width:4; stroke-opacity:1; fill:none" points="173.015,1002.69 2184.28,1002.69 "></polyline>
<polyline clip-path="url(#clip152)" style="stroke:#00d4ff; stroke-linecap:round; stroke-linejoin:round; stroke-width:4; stroke-opacity:1; fill:none" points="173.015,995.041 2186.65,995.041 "></polyline>
<polyline clip-path="url(#clip152)" style="stroke:#00d4ff; stroke-linecap:round; stroke-linejoin:round; stroke-width:4; stroke-opacity:1; fill:none" points="173.015,987.395 2186.78,987.395 "></polyline>
<polyline clip-path="url(#clip152)" style="stroke:#00d4ff; stroke-linecap:round; stroke-linejoin:round; stroke-width:4; stroke-opacity:1; fill:none" points="173.015,979.75 2186.88,979.75 "></polyline>
<polyline clip-path="url(#clip152)" style="stroke:#00d4ff; stroke-linecap:round; stroke-linejoin:round; stroke-width:4; stroke-opacity:1; fill:none" points="173.015,972.105 2189.96,972.105 "></polyline>
<polyline clip-path="url(#clip152)" style="stroke:#ffd400; stroke-linecap:round; stroke-linejoin:round; stroke-width:4; stroke-opacity:1; fill:none" points="173.015,964.459 2063.42,964.459 "></polyline>
<polyline clip-path="url(#clip152)" style="stroke:#ffd400; stroke-linecap:round; stroke-linejoin:round; stroke-width:4; stroke-opacity:1; fill:none" points="173.015,956.814 2110.48,956.814 "></polyline>
<polyline clip-path="url(#clip152)" style="stroke:#ffd400; stroke-linecap:round; stroke-linejoin:round; stroke-width:4; stroke-opacity:1; fill:none" points="173.015,949.169 2136.05,949.169 "></polyline>
<polyline clip-path="url(#clip152)" style="stroke:#ffd400; stroke-linecap:round; stroke-linejoin:round; stroke-width:4; stroke-opacity:1; fill:none" points="173.015,941.523 2148.67,941.523 "></polyline>
<polyline clip-path="url(#clip152)" style="stroke:#ffd400; stroke-linecap:round; stroke-linejoin:round; stroke-width:4; stroke-opacity:1; fill:none" points="173.015,933.878 2159.28,933.878 "></polyline>
<polyline clip-path="url(#clip152)" style="stroke:#ffd400; stroke-linecap:round; stroke-linejoin:round; stroke-width:4; stroke-opacity:1; fill:none" points="173.015,926.233 2162.52,926.233 "></polyline>
<polyline clip-path="url(#clip152)" style="stroke:#ffd400; stroke-linecap:round; stroke-linejoin:round; stroke-width:4; stroke-opacity:1; fill:none" points="173.015,918.587 2163.85,918.587 "></polyline>
<polyline clip-path="url(#clip152)" style="stroke:#ffd400; stroke-linecap:round; stroke-linejoin:round; stroke-width:4; stroke-opacity:1; fill:none" points="173.015,910.942 2164.66,910.942 "></polyline>
<polyline clip-path="url(#clip152)" style="stroke:#ffd400; stroke-linecap:round; stroke-linejoin:round; stroke-width:4; stroke-opacity:1; fill:none" points="173.015,903.297 2169.08,903.297 "></polyline>
<polyline clip-path="url(#clip152)" style="stroke:#ffd400; stroke-linecap:round; stroke-linejoin:round; stroke-width:4; stroke-opacity:1; fill:none" points="173.015,895.651 2172.65,895.651 "></polyline>
<polyline clip-path="url(#clip152)" style="stroke:#ffd400; stroke-linecap:round; stroke-linejoin:round; stroke-width:4; stroke-opacity:1; fill:none" points="173.015,888.006 2174.06,888.006 "></polyline>
<polyline clip-path="url(#clip152)" style="stroke:#ffd400; stroke-linecap:round; stroke-linejoin:round; stroke-width:4; stroke-opacity:1; fill:none" points="173.015,880.361 2174.13,880.361 "></polyline>
<polyline clip-path="url(#clip152)" style="stroke:#ffd400; stroke-linecap:round; stroke-linejoin:round; stroke-width:4; stroke-opacity:1; fill:none" points="173.015,872.715 2174.86,872.715 "></polyline>
<polyline clip-path="url(#clip152)" style="stroke:#ffd400; stroke-linecap:round; stroke-linejoin:round; stroke-width:4; stroke-opacity:1; fill:none" points="173.015,865.07 2176.94,865.07 "></polyline>
<polyline clip-path="url(#clip152)" style="stroke:#ffd400; stroke-linecap:round; stroke-linejoin:round; stroke-width:4; stroke-opacity:1; fill:none" points="173.015,857.425 2178.48,857.425 "></polyline>
<polyline clip-path="url(#clip152)" style="stroke:#ffd400; stroke-linecap:round; stroke-linejoin:round; stroke-width:4; stroke-opacity:1; fill:none" points="173.015,849.779 2180.04,849.779 "></polyline>
<polyline clip-path="url(#clip152)" style="stroke:#ffd400; stroke-linecap:round; stroke-linejoin:round; stroke-width:4; stroke-opacity:1; fill:none" points="173.015,842.134 2184.97,842.134 "></polyline>
<polyline clip-path="url(#clip152)" style="stroke:#ffd400; stroke-linecap:round; stroke-linejoin:round; stroke-width:4; stroke-opacity:1; fill:none" points="173.015,834.489 2185,834.489 "></polyline>
<polyline clip-path="url(#clip152)" style="stroke:#ffd400; stroke-linecap:round; stroke-linejoin:round; stroke-width:4; stroke-opacity:1; fill:none" points="173.015,826.843 2189.41,826.843 "></polyline>
<polyline clip-path="url(#clip152)" style="stroke:#ffd400; stroke-linecap:round; stroke-linejoin:round; stroke-width:4; stroke-opacity:1; fill:none" points="173.015,819.198 2196.88,819.198 "></polyline>
<polyline clip-path="url(#clip152)" style="stroke:#ffd400; stroke-linecap:round; stroke-linejoin:round; stroke-width:4; stroke-opacity:1; fill:none" points="173.015,811.553 2198.92,811.553 "></polyline>
<polyline clip-path="url(#clip152)" style="stroke:#ffd400; stroke-linecap:round; stroke-linejoin:round; stroke-width:4; stroke-opacity:1; fill:none" points="173.015,803.907 2199.9,803.907 "></polyline>
<polyline clip-path="url(#clip152)" style="stroke:#ffd400; stroke-linecap:round; stroke-linejoin:round; stroke-width:4; stroke-opacity:1; fill:none" points="173.015,796.262 2200.27,796.262 "></polyline>
<polyline clip-path="url(#clip152)" style="stroke:#ffd400; stroke-linecap:round; stroke-linejoin:round; stroke-width:4; stroke-opacity:1; fill:none" points="173.015,788.617 2200.48,788.617 "></polyline>
<polyline clip-path="url(#clip152)" style="stroke:#ffd400; stroke-linecap:round; stroke-linejoin:round; stroke-width:4; stroke-opacity:1; fill:none" points="173.015,780.971 2203.24,780.971 "></polyline>
<polyline clip-path="url(#clip152)" style="stroke:#ffd400; stroke-linecap:round; stroke-linejoin:round; stroke-width:4; stroke-opacity:1; fill:none" points="173.015,773.326 2203.33,773.326 "></polyline>
<polyline clip-path="url(#clip152)" style="stroke:#ffd400; stroke-linecap:round; stroke-linejoin:round; stroke-width:4; stroke-opacity:1; fill:none" points="173.015,765.681 2203.58,765.681 "></polyline>
<polyline clip-path="url(#clip152)" style="stroke:#ffd400; stroke-linecap:round; stroke-linejoin:round; stroke-width:4; stroke-opacity:1; fill:none" points="173.015,758.035 2204.35,758.035 "></polyline>
<polyline clip-path="url(#clip152)" style="stroke:#ffd400; stroke-linecap:round; stroke-linejoin:round; stroke-width:4; stroke-opacity:1; fill:none" points="173.015,750.39 2205.06,750.39 "></polyline>
<polyline clip-path="url(#clip152)" style="stroke:#ffd400; stroke-linecap:round; stroke-linejoin:round; stroke-width:4; stroke-opacity:1; fill:none" points="173.015,742.745 2210.66,742.745 "></polyline>
<polyline clip-path="url(#clip152)" style="stroke:#ffd400; stroke-linecap:round; stroke-linejoin:round; stroke-width:4; stroke-opacity:1; fill:none" points="173.015,735.099 2211.59,735.099 "></polyline>
<polyline clip-path="url(#clip152)" style="stroke:#ffd400; stroke-linecap:round; stroke-linejoin:round; stroke-width:4; stroke-opacity:1; fill:none" points="173.015,727.454 2213.75,727.454 "></polyline>
<polyline clip-path="url(#clip152)" style="stroke:#ffd400; stroke-linecap:round; stroke-linejoin:round; stroke-width:4; stroke-opacity:1; fill:none" points="173.015,719.809 2215.23,719.809 "></polyline>
<polyline clip-path="url(#clip152)" style="stroke:#ffd400; stroke-linecap:round; stroke-linejoin:round; stroke-width:4; stroke-opacity:1; fill:none" points="173.015,712.163 2217.64,712.163 "></polyline>
<polyline clip-path="url(#clip152)" style="stroke:#ffd400; stroke-linecap:round; stroke-linejoin:round; stroke-width:4; stroke-opacity:1; fill:none" points="173.015,704.518 2217.95,704.518 "></polyline>
<polyline clip-path="url(#clip152)" style="stroke:#ffd400; stroke-linecap:round; stroke-linejoin:round; stroke-width:4; stroke-opacity:1; fill:none" points="173.015,696.873 2219.03,696.873 "></polyline>
<polyline clip-path="url(#clip152)" style="stroke:#ffd400; stroke-linecap:round; stroke-linejoin:round; stroke-width:4; stroke-opacity:1; fill:none" points="173.015,689.227 2219.36,689.227 "></polyline>
<polyline clip-path="url(#clip152)" style="stroke:#ffd400; stroke-linecap:round; stroke-linejoin:round; stroke-width:4; stroke-opacity:1; fill:none" points="173.015,681.582 2219.73,681.582 "></polyline>
<polyline clip-path="url(#clip152)" style="stroke:#ffd400; stroke-linecap:round; stroke-linejoin:round; stroke-width:4; stroke-opacity:1; fill:none" points="173.015,673.937 2219.91,673.937 "></polyline>
<polyline clip-path="url(#clip152)" style="stroke:#ffd400; stroke-linecap:round; stroke-linejoin:round; stroke-width:4; stroke-opacity:1; fill:none" points="173.015,666.291 2220.26,666.291 "></polyline>
<polyline clip-path="url(#clip152)" style="stroke:#ffd400; stroke-linecap:round; stroke-linejoin:round; stroke-width:4; stroke-opacity:1; fill:none" points="173.015,658.646 2220.32,658.646 "></polyline>
<polyline clip-path="url(#clip152)" style="stroke:#ffd400; stroke-linecap:round; stroke-linejoin:round; stroke-width:4; stroke-opacity:1; fill:none" points="173.015,651.001 2222.44,651.001 "></polyline>
<polyline clip-path="url(#clip152)" style="stroke:#ffd400; stroke-linecap:round; stroke-linejoin:round; stroke-width:4; stroke-opacity:1; fill:none" points="173.015,643.355 2222.72,643.355 "></polyline>
<polyline clip-path="url(#clip152)" style="stroke:#ffd400; stroke-linecap:round; stroke-linejoin:round; stroke-width:4; stroke-opacity:1; fill:none" points="173.015,635.71 2223.25,635.71 "></polyline>
<polyline clip-path="url(#clip152)" style="stroke:#ffd400; stroke-linecap:round; stroke-linejoin:round; stroke-width:4; stroke-opacity:1; fill:none" points="173.015,628.065 2226.38,628.065 "></polyline>
<polyline clip-path="url(#clip152)" style="stroke:#ffd400; stroke-linecap:round; stroke-linejoin:round; stroke-width:4; stroke-opacity:1; fill:none" points="173.015,620.419 2231.35,620.419 "></polyline>
<polyline clip-path="url(#clip152)" style="stroke:#ffd400; stroke-linecap:round; stroke-linejoin:round; stroke-width:4; stroke-opacity:1; fill:none" points="173.015,612.774 2231.45,612.774 "></polyline>
<polyline clip-path="url(#clip152)" style="stroke:#ffd400; stroke-linecap:round; stroke-linejoin:round; stroke-width:4; stroke-opacity:1; fill:none" points="173.015,605.129 2232.85,605.129 "></polyline>
<polyline clip-path="url(#clip152)" style="stroke:#ffd400; stroke-linecap:round; stroke-linejoin:round; stroke-width:4; stroke-opacity:1; fill:none" points="173.015,597.483 2234.49,597.483 "></polyline>
<polyline clip-path="url(#clip152)" style="stroke:#ffd400; stroke-linecap:round; stroke-linejoin:round; stroke-width:4; stroke-opacity:1; fill:none" points="173.015,589.838 2237.41,589.838 "></polyline>
<polyline clip-path="url(#clip152)" style="stroke:#7e0000; stroke-linecap:round; stroke-linejoin:round; stroke-width:4; stroke-opacity:1; fill:none" points="173.015,582.192 1996.42,582.192 "></polyline>
<polyline clip-path="url(#clip152)" style="stroke:#7e0000; stroke-linecap:round; stroke-linejoin:round; stroke-width:4; stroke-opacity:1; fill:none" points="173.015,574.547 2018.72,574.547 "></polyline>
<polyline clip-path="url(#clip152)" style="stroke:#7e0000; stroke-linecap:round; stroke-linejoin:round; stroke-width:4; stroke-opacity:1; fill:none" points="173.015,566.902 2022.42,566.902 "></polyline>
<polyline clip-path="url(#clip152)" style="stroke:#7e0000; stroke-linecap:round; stroke-linejoin:round; stroke-width:4; stroke-opacity:1; fill:none" points="173.015,559.256 2022.96,559.256 "></polyline>
<polyline clip-path="url(#clip152)" style="stroke:#7e0000; stroke-linecap:round; stroke-linejoin:round; stroke-width:4; stroke-opacity:1; fill:none" points="173.015,551.611 2027.63,551.611 "></polyline>
<polyline clip-path="url(#clip152)" style="stroke:#7e0000; stroke-linecap:round; stroke-linejoin:round; stroke-width:4; stroke-opacity:1; fill:none" points="173.015,543.966 2063.97,543.966 "></polyline>
<polyline clip-path="url(#clip152)" style="stroke:#7e0000; stroke-linecap:round; stroke-linejoin:round; stroke-width:4; stroke-opacity:1; fill:none" points="173.015,536.32 2065.18,536.32 "></polyline>
<polyline clip-path="url(#clip152)" style="stroke:#7e0000; stroke-linecap:round; stroke-linejoin:round; stroke-width:4; stroke-opacity:1; fill:none" points="173.015,528.675 2088.08,528.675 "></polyline>
<polyline clip-path="url(#clip152)" style="stroke:#7e0000; stroke-linecap:round; stroke-linejoin:round; stroke-width:4; stroke-opacity:1; fill:none" points="173.015,521.03 2095.03,521.03 "></polyline>
<polyline clip-path="url(#clip152)" style="stroke:#7e0000; stroke-linecap:round; stroke-linejoin:round; stroke-width:4; stroke-opacity:1; fill:none" points="173.015,513.384 2095.27,513.384 "></polyline>
<polyline clip-path="url(#clip152)" style="stroke:#7e0000; stroke-linecap:round; stroke-linejoin:round; stroke-width:4; stroke-opacity:1; fill:none" points="173.015,505.739 2097.23,505.739 "></polyline>
<polyline clip-path="url(#clip152)" style="stroke:#7e0000; stroke-linecap:round; stroke-linejoin:round; stroke-width:4; stroke-opacity:1; fill:none" points="173.015,498.094 2116.01,498.094 "></polyline>
<polyline clip-path="url(#clip152)" style="stroke:#7e0000; stroke-linecap:round; stroke-linejoin:round; stroke-width:4; stroke-opacity:1; fill:none" points="173.015,490.448 2118.54,490.448 "></polyline>
<polyline clip-path="url(#clip152)" style="stroke:#7e0000; stroke-linecap:round; stroke-linejoin:round; stroke-width:4; stroke-opacity:1; fill:none" points="173.015,482.803 2120.26,482.803 "></polyline>
<polyline clip-path="url(#clip152)" style="stroke:#7e0000; stroke-linecap:round; stroke-linejoin:round; stroke-width:4; stroke-opacity:1; fill:none" points="173.015,475.158 2120.43,475.158 "></polyline>
<polyline clip-path="url(#clip152)" style="stroke:#7e0000; stroke-linecap:round; stroke-linejoin:round; stroke-width:4; stroke-opacity:1; fill:none" points="173.015,467.512 2125.13,467.512 "></polyline>
<polyline clip-path="url(#clip152)" style="stroke:#7e0000; stroke-linecap:round; stroke-linejoin:round; stroke-width:4; stroke-opacity:1; fill:none" points="173.015,459.867 2126.92,459.867 "></polyline>
<polyline clip-path="url(#clip152)" style="stroke:#7e0000; stroke-linecap:round; stroke-linejoin:round; stroke-width:4; stroke-opacity:1; fill:none" points="173.015,452.222 2128.17,452.222 "></polyline>
<polyline clip-path="url(#clip152)" style="stroke:#7e0000; stroke-linecap:round; stroke-linejoin:round; stroke-width:4; stroke-opacity:1; fill:none" points="173.015,444.576 2129.34,444.576 "></polyline>
<polyline clip-path="url(#clip152)" style="stroke:#7e0000; stroke-linecap:round; stroke-linejoin:round; stroke-width:4; stroke-opacity:1; fill:none" points="173.015,436.931 2136.65,436.931 "></polyline>
<polyline clip-path="url(#clip152)" style="stroke:#7e0000; stroke-linecap:round; stroke-linejoin:round; stroke-width:4; stroke-opacity:1; fill:none" points="173.015,429.286 2139.11,429.286 "></polyline>
<polyline clip-path="url(#clip152)" style="stroke:#7e0000; stroke-linecap:round; stroke-linejoin:round; stroke-width:4; stroke-opacity:1; fill:none" points="173.015,421.64 2142.51,421.64 "></polyline>
<polyline clip-path="url(#clip152)" style="stroke:#7e0000; stroke-linecap:round; stroke-linejoin:round; stroke-width:4; stroke-opacity:1; fill:none" points="173.015,413.995 2146.01,413.995 "></polyline>
<polyline clip-path="url(#clip152)" style="stroke:#7e0000; stroke-linecap:round; stroke-linejoin:round; stroke-width:4; stroke-opacity:1; fill:none" points="173.015,406.35 2147.8,406.35 "></polyline>
<polyline clip-path="url(#clip152)" style="stroke:#7e0000; stroke-linecap:round; stroke-linejoin:round; stroke-width:4; stroke-opacity:1; fill:none" points="173.015,398.704 2150.2,398.704 "></polyline>
<polyline clip-path="url(#clip152)" style="stroke:#7e0000; stroke-linecap:round; stroke-linejoin:round; stroke-width:4; stroke-opacity:1; fill:none" points="173.015,391.059 2150.66,391.059 "></polyline>
<polyline clip-path="url(#clip152)" style="stroke:#7e0000; stroke-linecap:round; stroke-linejoin:round; stroke-width:4; stroke-opacity:1; fill:none" points="173.015,383.414 2152.83,383.414 "></polyline>
<polyline clip-path="url(#clip152)" style="stroke:#7e0000; stroke-linecap:round; stroke-linejoin:round; stroke-width:4; stroke-opacity:1; fill:none" points="173.015,375.768 2154.54,375.768 "></polyline>
<polyline clip-path="url(#clip152)" style="stroke:#7e0000; stroke-linecap:round; stroke-linejoin:round; stroke-width:4; stroke-opacity:1; fill:none" points="173.015,368.123 2155.77,368.123 "></polyline>
<polyline clip-path="url(#clip152)" style="stroke:#7e0000; stroke-linecap:round; stroke-linejoin:round; stroke-width:4; stroke-opacity:1; fill:none" points="173.015,360.478 2157.09,360.478 "></polyline>
<polyline clip-path="url(#clip152)" style="stroke:#7e0000; stroke-linecap:round; stroke-linejoin:round; stroke-width:4; stroke-opacity:1; fill:none" points="173.015,352.832 2159.45,352.832 "></polyline>
<polyline clip-path="url(#clip152)" style="stroke:#7e0000; stroke-linecap:round; stroke-linejoin:round; stroke-width:4; stroke-opacity:1; fill:none" points="173.015,345.187 2166.05,345.187 "></polyline>
<polyline clip-path="url(#clip152)" style="stroke:#7e0000; stroke-linecap:round; stroke-linejoin:round; stroke-width:4; stroke-opacity:1; fill:none" points="173.015,337.542 2167.86,337.542 "></polyline>
<polyline clip-path="url(#clip152)" style="stroke:#7e0000; stroke-linecap:round; stroke-linejoin:round; stroke-width:4; stroke-opacity:1; fill:none" points="173.015,329.896 2167.91,329.896 "></polyline>
<polyline clip-path="url(#clip152)" style="stroke:#7e0000; stroke-linecap:round; stroke-linejoin:round; stroke-width:4; stroke-opacity:1; fill:none" points="173.015,322.251 2168.39,322.251 "></polyline>
<polyline clip-path="url(#clip152)" style="stroke:#7e0000; stroke-linecap:round; stroke-linejoin:round; stroke-width:4; stroke-opacity:1; fill:none" points="173.015,314.606 2168.94,314.606 "></polyline>
<polyline clip-path="url(#clip152)" style="stroke:#7e0000; stroke-linecap:round; stroke-linejoin:round; stroke-width:4; stroke-opacity:1; fill:none" points="173.015,306.96 2171.76,306.96 "></polyline>
<polyline clip-path="url(#clip152)" style="stroke:#7e0000; stroke-linecap:round; stroke-linejoin:round; stroke-width:4; stroke-opacity:1; fill:none" points="173.015,299.315 2172.05,299.315 "></polyline>
<polyline clip-path="url(#clip152)" style="stroke:#7e0000; stroke-linecap:round; stroke-linejoin:round; stroke-width:4; stroke-opacity:1; fill:none" points="173.015,291.67 2172.92,291.67 "></polyline>
<polyline clip-path="url(#clip152)" style="stroke:#7e0000; stroke-linecap:round; stroke-linejoin:round; stroke-width:4; stroke-opacity:1; fill:none" points="173.015,284.024 2172.96,284.024 "></polyline>
<polyline clip-path="url(#clip152)" style="stroke:#7e0000; stroke-linecap:round; stroke-linejoin:round; stroke-width:4; stroke-opacity:1; fill:none" points="173.015,276.379 2173.28,276.379 "></polyline>
<polyline clip-path="url(#clip152)" style="stroke:#7e0000; stroke-linecap:round; stroke-linejoin:round; stroke-width:4; stroke-opacity:1; fill:none" points="173.015,268.734 2174.97,268.734 "></polyline>
<polyline clip-path="url(#clip152)" style="stroke:#7e0000; stroke-linecap:round; stroke-linejoin:round; stroke-width:4; stroke-opacity:1; fill:none" points="173.015,261.088 2175.35,261.088 "></polyline>
<polyline clip-path="url(#clip152)" style="stroke:#7e0000; stroke-linecap:round; stroke-linejoin:round; stroke-width:4; stroke-opacity:1; fill:none" points="173.015,253.443 2175.5,253.443 "></polyline>
<polyline clip-path="url(#clip152)" style="stroke:#7e0000; stroke-linecap:round; stroke-linejoin:round; stroke-width:4; stroke-opacity:1; fill:none" points="173.015,245.798 2176.23,245.798 "></polyline>
<polyline clip-path="url(#clip152)" style="stroke:#7e0000; stroke-linecap:round; stroke-linejoin:round; stroke-width:4; stroke-opacity:1; fill:none" points="173.015,238.152 2176.9,238.152 "></polyline>
<polyline clip-path="url(#clip152)" style="stroke:#7e0000; stroke-linecap:round; stroke-linejoin:round; stroke-width:4; stroke-opacity:1; fill:none" points="173.015,230.507 2181.23,230.507 "></polyline>
<polyline clip-path="url(#clip152)" style="stroke:#7e0000; stroke-linecap:round; stroke-linejoin:round; stroke-width:4; stroke-opacity:1; fill:none" points="173.015,222.862 2185.17,222.862 "></polyline>
<polyline clip-path="url(#clip152)" style="stroke:#7e0000; stroke-linecap:round; stroke-linejoin:round; stroke-width:4; stroke-opacity:1; fill:none" points="173.015,215.216 2190.95,215.216 "></polyline>
<polyline clip-path="url(#clip152)" style="stroke:#7e0000; stroke-linecap:round; stroke-linejoin:round; stroke-width:4; stroke-opacity:1; fill:none" points="173.015,207.571 2191.93,207.571 "></polyline>
<polyline clip-path="url(#clip152)" style="stroke:#ff0000; stroke-linecap:round; stroke-linejoin:round; stroke-width:8; stroke-opacity:1; fill:none" stroke-dasharray="32, 20" points="2150.95,2722.89 2150.95,-1176.24 "></polyline>
</svg>