<svg xmlns="http://www.w3.org/2000/svg" xmlns:xlink="http://www.w3.org/1999/xlink" width="600" height="400" viewBox="0 0 2400 1600">
<defs>
  <clipPath id="clip030">
    <rect x="0" y="0" width="2400" height="1600"></rect>
  </clipPath>
</defs>
<path clip-path="url(#clip030)" d="M0 1600 L2400 1600 L2400 0 L0 0  Z" fill="#ffffff" fill-rule="evenodd" fill-opacity="1"></path>
<defs>
  <clipPath id="clip031">
    <rect x="480" y="0" width="1681" height="1600"></rect>
  </clipPath>
</defs>
<path clip-path="url(#clip030)" d="M320.196 1360.19 L2289.76 1360.19 L2289.76 110.236 L320.196 110.236  Z" fill="#ffffff" fill-rule="evenodd" fill-opacity="1"></path>
<defs>
  <clipPath id="clip032">
    <rect x="320" y="110" width="1971" height="1251"></rect>
  </clipPath>
</defs>
<polyline clip-path="url(#clip032)" style="stroke:#000000; stroke-linecap:round; stroke-linejoin:round; stroke-width:2; stroke-opacity:0.1; fill:none" points="712.809,1360.19 712.809,110.236 "></polyline>
<polyline clip-path="url(#clip032)" style="stroke:#000000; stroke-linecap:round; stroke-linejoin:round; stroke-width:2; stroke-opacity:0.1; fill:none" points="1109.88,1360.19 1109.88,110.236 "></polyline>
<polyline clip-path="url(#clip032)" style="stroke:#000000; stroke-linecap:round; stroke-linejoin:round; stroke-width:2; stroke-opacity:0.1; fill:none" points="1506.95,1360.19 1506.95,110.236 "></polyline>
<polyline clip-path="url(#clip032)" style="stroke:#000000; stroke-linecap:round; stroke-linejoin:round; stroke-width:2; stroke-opacity:0.1; fill:none" points="1904.02,1360.19 1904.02,110.236 "></polyline>
<polyline clip-path="url(#clip032)" style="stroke:#000000; stroke-linecap:round; stroke-linejoin:round; stroke-width:2; stroke-opacity:0.1; fill:none" points="320.196,1356.84 2289.76,1356.84 "></polyline>
<polyline clip-path="url(#clip032)" style="stroke:#000000; stroke-linecap:round; stroke-linejoin:round; stroke-width:2; stroke-opacity:0.1; fill:none" points="320.196,1099.25 2289.76,1099.25 "></polyline>
<polyline clip-path="url(#clip032)" style="stroke:#000000; stroke-linecap:round; stroke-linejoin:round; stroke-width:2; stroke-opacity:0.1; fill:none" points="320.196,841.656 2289.76,841.656 "></polyline>
<polyline clip-path="url(#clip032)" style="stroke:#000000; stroke-linecap:round; stroke-linejoin:round; stroke-width:2; stroke-opacity:0.1; fill:none" points="320.196,584.063 2289.76,584.063 "></polyline>
<polyline clip-path="url(#clip032)" style="stroke:#000000; stroke-linecap:round; stroke-linejoin:round; stroke-width:2; stroke-opacity:0.1; fill:none" points="320.196,326.47 2289.76,326.47 "></polyline>
<polyline clip-path="url(#clip030)" style="stroke:#000000; stroke-linecap:round; stroke-linejoin:round; stroke-width:4; stroke-opacity:1; fill:none" points="320.196,1360.19 2289.76,1360.19 "></polyline>
<polyline clip-path="url(#clip030)" style="stroke:#000000; stroke-linecap:round; stroke-linejoin:round; stroke-width:4; stroke-opacity:1; fill:none" points="712.809,1360.19 712.809,1341.29 "></polyline>
<polyline clip-path="url(#clip030)" style="stroke:#000000; stroke-linecap:round; stroke-linejoin:round; stroke-width:4; stroke-opacity:1; fill:none" points="1109.88,1360.19 1109.88,1341.29 "></polyline>
<polyline clip-path="url(#clip030)" style="stroke:#000000; stroke-linecap:round; stroke-linejoin:round; stroke-width:4; stroke-opacity:1; fill:none" points="1506.95,1360.19 1506.95,1341.29 "></polyline>
<polyline clip-path="url(#clip030)" style="stroke:#000000; stroke-linecap:round; stroke-linejoin:round; stroke-width:4; stroke-opacity:1; fill:none" points="1904.02,1360.19 1904.02,1341.29 "></polyline>
<path clip-path="url(#clip030)" d="M682.276 1405.76 L711.952 1405.76 L711.952 1409.69 L682.276 1409.69 L682.276 1405.76 Z" fill="#000000" fill-rule="nonzero" fill-opacity="1"></path><path clip-path="url(#clip030)" d="M736.211 1403.95 Q739.568 1404.67 741.443 1406.94 Q743.341 1409.21 743.341 1412.54 Q743.341 1417.66 739.822 1420.46 Q736.304 1423.26 729.822 1423.26 Q727.646 1423.26 725.332 1422.82 Q723.04 1422.4 720.586 1421.55 L720.586 1417.03 Q722.531 1418.17 724.846 1418.75 Q727.16 1419.32 729.683 1419.32 Q734.082 1419.32 736.373 1417.59 Q738.688 1415.85 738.688 1412.54 Q738.688 1409.49 736.535 1407.77 Q734.406 1406.04 730.586 1406.04 L726.558 1406.04 L726.558 1402.19 L730.771 1402.19 Q734.22 1402.19 736.049 1400.83 Q737.878 1399.44 737.878 1396.85 Q737.878 1394.19 735.98 1392.77 Q734.105 1391.34 730.586 1391.34 Q728.665 1391.34 726.466 1391.75 Q724.267 1392.17 721.628 1393.05 L721.628 1388.88 Q724.29 1388.14 726.605 1387.77 Q728.943 1387.4 731.003 1387.4 Q736.327 1387.4 739.429 1389.83 Q742.531 1392.24 742.531 1396.36 Q742.531 1399.23 740.887 1401.22 Q739.244 1403.19 736.211 1403.95 Z" fill="#000000" fill-rule="nonzero" fill-opacity="1"></path><path clip-path="url(#clip030)" d="M1109.88 1391.11 Q1106.27 1391.11 1104.44 1394.67 Q1102.63 1398.21 1102.63 1405.34 Q1102.63 1412.45 1104.44 1416.01 Q1106.27 1419.56 1109.88 1419.56 Q1113.51 1419.56 1115.32 1416.01 Q1117.15 1412.45 1117.15 1405.34 Q1117.15 1398.21 1115.32 1394.67 Q1113.51 1391.11 1109.88 1391.11 M1109.88 1387.4 Q1115.69 1387.4 1118.74 1392.01 Q1121.82 1396.59 1121.82 1405.34 Q1121.82 1414.07 1118.74 1418.68 Q1115.69 1423.26 1109.88 1423.26 Q1104.07 1423.26 1100.99 1418.68 Q1097.93 1414.07 1097.93 1405.34 Q1097.93 1396.59 1100.99 1392.01 Q1104.07 1387.4 1109.88 1387.4 Z" fill="#000000" fill-rule="nonzero" fill-opacity="1"></path><path clip-path="url(#clip030)" d="M1511.2 1403.95 Q1514.55 1404.67 1516.43 1406.94 Q1518.33 1409.21 1518.33 1412.54 Q1518.33 1417.66 1514.81 1420.46 Q1511.29 1423.26 1504.81 1423.26 Q1502.63 1423.26 1500.32 1422.82 Q1498.03 1422.4 1495.57 1421.55 L1495.57 1417.03 Q1497.52 1418.17 1499.83 1418.75 Q1502.15 1419.32 1504.67 1419.32 Q1509.07 1419.32 1511.36 1417.59 Q1513.67 1415.85 1513.67 1412.54 Q1513.67 1409.49 1511.52 1407.77 Q1509.39 1406.04 1505.57 1406.04 L1501.54 1406.04 L1501.54 1402.19 L1505.76 1402.19 Q1509.21 1402.19 1511.03 1400.83 Q1512.86 1399.44 1512.86 1396.85 Q1512.86 1394.19 1510.96 1392.77 Q1509.09 1391.34 1505.57 1391.34 Q1503.65 1391.34 1501.45 1391.75 Q1499.25 1392.17 1496.61 1393.05 L1496.61 1388.88 Q1499.28 1388.14 1501.59 1387.77 Q1503.93 1387.4 1505.99 1387.4 Q1511.31 1387.4 1514.41 1389.83 Q1517.52 1392.24 1517.52 1396.36 Q1517.52 1399.23 1515.87 1401.22 Q1514.23 1403.19 1511.2 1403.95 Z" fill="#000000" fill-rule="nonzero" fill-opacity="1"></path><path clip-path="url(#clip030)" d="M1904.42 1403.44 Q1901.28 1403.44 1899.42 1405.6 Q1897.6 1407.75 1897.6 1411.5 Q1897.6 1415.23 1899.42 1417.4 Q1901.28 1419.56 1904.42 1419.56 Q1907.57 1419.56 1909.4 1417.4 Q1911.25 1415.23 1911.25 1411.5 Q1911.25 1407.75 1909.4 1405.6 Q1907.57 1403.44 1904.42 1403.44 M1913.71 1388.79 L1913.71 1393.05 Q1911.95 1392.22 1910.14 1391.78 Q1908.36 1391.34 1906.6 1391.34 Q1901.97 1391.34 1899.52 1394.46 Q1897.09 1397.59 1896.74 1403.91 Q1898.1 1401.89 1900.16 1400.83 Q1902.22 1399.74 1904.7 1399.74 Q1909.91 1399.74 1912.92 1402.91 Q1915.95 1406.06 1915.95 1411.5 Q1915.95 1416.82 1912.8 1420.04 Q1909.66 1423.26 1904.42 1423.26 Q1898.43 1423.26 1895.26 1418.68 Q1892.09 1414.07 1892.09 1405.34 Q1892.09 1397.15 1895.97 1392.29 Q1899.86 1387.4 1906.41 1387.4 Q1908.17 1387.4 1909.96 1387.75 Q1911.76 1388.1 1913.71 1388.79 Z" fill="#000000" fill-rule="nonzero" fill-opacity="1"></path><path clip-path="url(#clip030)" d="M1156.93 1457.53 L1184.24 1457.53 L1184.24 1462.94 L1163.36 1462.94 L1163.36 1476.95 L1182.2 1476.95 L1182.2 1482.36 L1163.36 1482.36 L1163.36 1505.05 L1156.93 1505.05 L1156.93 1457.53 Z" fill="#000000" fill-rule="nonzero" fill-opacity="1"></path><path clip-path="url(#clip030)" d="M1221.1 1485.76 L1221.1 1488.63 L1194.17 1488.63 Q1194.55 1494.68 1197.8 1497.86 Q1201.08 1501.01 1206.9 1501.01 Q1210.27 1501.01 1213.43 1500.18 Q1216.61 1499.35 1219.73 1497.7 L1219.73 1503.24 Q1216.58 1504.57 1213.27 1505.27 Q1209.96 1505.97 1206.55 1505.97 Q1198.02 1505.97 1193.02 1501.01 Q1188.06 1496.04 1188.06 1487.58 Q1188.06 1478.83 1192.77 1473.7 Q1197.51 1468.54 1205.53 1468.54 Q1212.72 1468.54 1216.89 1473.19 Q1221.1 1477.81 1221.1 1485.76 M1215.24 1484.04 Q1215.18 1479.24 1212.53 1476.37 Q1209.92 1473.51 1205.6 1473.51 Q1200.69 1473.51 1197.73 1476.28 Q1194.81 1479.05 1194.36 1484.08 L1215.24 1484.04 Z" fill="#000000" fill-rule="nonzero" fill-opacity="1"></path><path clip-path="url(#clip030)" d="M1246.91 1487.13 Q1239.81 1487.13 1237.07 1488.76 Q1234.34 1490.38 1234.34 1494.29 Q1234.34 1497.41 1236.37 1499.26 Q1238.44 1501.07 1241.98 1501.07 Q1246.85 1501.07 1249.77 1497.64 Q1252.73 1494.17 1252.73 1488.44 L1252.73 1487.13 L1246.91 1487.13 M1258.59 1484.71 L1258.59 1505.05 L1252.73 1505.05 L1252.73 1499.64 Q1250.73 1502.89 1247.74 1504.45 Q1244.74 1505.97 1240.42 1505.97 Q1234.94 1505.97 1231.69 1502.92 Q1228.48 1499.83 1228.48 1494.68 Q1228.48 1488.66 1232.49 1485.6 Q1236.53 1482.55 1244.52 1482.55 L1252.73 1482.55 L1252.73 1481.98 Q1252.73 1477.93 1250.06 1475.74 Q1247.42 1473.51 1242.61 1473.51 Q1239.56 1473.51 1236.66 1474.24 Q1233.76 1474.97 1231.09 1476.44 L1231.09 1471.03 Q1234.3 1469.79 1237.33 1469.18 Q1240.35 1468.54 1243.22 1468.54 Q1250.95 1468.54 1254.77 1472.55 Q1258.59 1476.57 1258.59 1484.71 Z" fill="#000000" fill-rule="nonzero" fill-opacity="1"></path><path clip-path="url(#clip030)" d="M1276.45 1459.28 L1276.45 1469.4 L1288.51 1469.4 L1288.51 1473.96 L1276.45 1473.96 L1276.45 1493.31 Q1276.45 1497.67 1277.62 1498.91 Q1278.83 1500.15 1282.49 1500.15 L1288.51 1500.15 L1288.51 1505.05 L1282.49 1505.05 Q1275.71 1505.05 1273.14 1502.54 Q1270.56 1499.99 1270.56 1493.31 L1270.56 1473.96 L1266.26 1473.96 L1266.26 1469.4 L1270.56 1469.4 L1270.56 1459.28 L1276.45 1459.28 Z" fill="#000000" fill-rule="nonzero" fill-opacity="1"></path><path clip-path="url(#clip030)" d="M1295.61 1490.98 L1295.61 1469.4 L1301.46 1469.4 L1301.46 1490.76 Q1301.46 1495.82 1303.44 1498.37 Q1305.41 1500.88 1309.36 1500.88 Q1314.1 1500.88 1316.84 1497.86 Q1319.61 1494.83 1319.61 1489.61 L1319.61 1469.4 L1325.46 1469.4 L1325.46 1505.05 L1319.61 1505.05 L1319.61 1499.58 Q1317.47 1502.82 1314.64 1504.42 Q1311.84 1505.97 1308.12 1505.97 Q1301.97 1505.97 1298.79 1502.16 Q1295.61 1498.34 1295.61 1490.98 M1310.34 1468.54 L1310.34 1468.54 Z" fill="#000000" fill-rule="nonzero" fill-opacity="1"></path><path clip-path="url(#clip030)" d="M1358.18 1474.88 Q1357.19 1474.31 1356.02 1474.05 Q1354.87 1473.76 1353.47 1473.76 Q1348.51 1473.76 1345.83 1477.01 Q1343.19 1480.23 1343.19 1486.27 L1343.19 1505.05 L1337.3 1505.05 L1337.3 1469.4 L1343.19 1469.4 L1343.19 1474.94 Q1345.04 1471.7 1348 1470.14 Q1350.96 1468.54 1355.19 1468.54 Q1355.79 1468.54 1356.53 1468.64 Q1357.26 1468.7 1358.15 1468.86 L1358.18 1474.88 Z" fill="#000000" fill-rule="nonzero" fill-opacity="1"></path><path clip-path="url(#clip030)" d="M1393.38 1485.76 L1393.38 1488.63 L1366.46 1488.63 Q1366.84 1494.68 1370.09 1497.86 Q1373.36 1501.01 1379.19 1501.01 Q1382.56 1501.01 1385.71 1500.18 Q1388.9 1499.35 1392.02 1497.7 L1392.02 1503.24 Q1388.86 1504.57 1385.55 1505.27 Q1382.24 1505.97 1378.84 1505.97 Q1370.31 1505.97 1365.31 1501.01 Q1360.35 1496.04 1360.35 1487.58 Q1360.35 1478.83 1365.06 1473.7 Q1369.8 1468.54 1377.82 1468.54 Q1385.01 1468.54 1389.18 1473.19 Q1393.38 1477.81 1393.38 1485.76 M1387.53 1484.04 Q1387.46 1479.24 1384.82 1476.37 Q1382.21 1473.51 1377.88 1473.51 Q1372.98 1473.51 1370.02 1476.28 Q1367.09 1479.05 1366.65 1484.08 L1387.53 1484.04 Z" fill="#000000" fill-rule="nonzero" fill-opacity="1"></path><path clip-path="url(#clip030)" d="M1425.66 1499.64 L1436.16 1499.64 L1436.16 1463.39 L1424.73 1465.68 L1424.73 1459.82 L1436.1 1457.53 L1442.53 1457.53 L1442.53 1499.64 L1453.03 1499.64 L1453.03 1505.05 L1425.66 1505.05 L1425.66 1499.64 Z" fill="#000000" fill-rule="nonzero" fill-opacity="1"></path><polyline clip-path="url(#clip030)" style="stroke:#000000; stroke-linecap:round; stroke-linejoin:round; stroke-width:4; stroke-opacity:1; fill:none" points="320.196,1360.19 320.196,110.236 "></polyline>
<polyline clip-path="url(#clip030)" style="stroke:#000000; stroke-linecap:round; stroke-linejoin:round; stroke-width:4; stroke-opacity:1; fill:none" points="320.196,1356.84 339.094,1356.84 "></polyline>
<polyline clip-path="url(#clip030)" style="stroke:#000000; stroke-linecap:round; stroke-linejoin:round; stroke-width:4; stroke-opacity:1; fill:none" points="320.196,1099.25 339.094,1099.25 "></polyline>
<polyline clip-path="url(#clip030)" style="stroke:#000000; stroke-linecap:round; stroke-linejoin:round; stroke-width:4; stroke-opacity:1; fill:none" points="320.196,841.656 339.094,841.656 "></polyline>
<polyline clip-path="url(#clip030)" style="stroke:#000000; stroke-linecap:round; stroke-linejoin:round; stroke-width:4; stroke-opacity:1; fill:none" points="320.196,584.063 339.094,584.063 "></polyline>
<polyline clip-path="url(#clip030)" style="stroke:#000000; stroke-linecap:round; stroke-linejoin:round; stroke-width:4; stroke-opacity:1; fill:none" points="320.196,326.47 339.094,326.47 "></polyline>
<path clip-path="url(#clip030)" d="M177.252 1357.29 L206.928 1357.29 L206.928 1361.23 L177.252 1361.23 L177.252 1357.29 Z" fill="#000000" fill-rule="nonzero" fill-opacity="1"></path><path clip-path="url(#clip030)" d="M217.067 1339.56 L235.423 1339.56 L235.423 1343.5 L221.349 1343.5 L221.349 1351.97 Q222.368 1351.62 223.386 1351.46 Q224.405 1351.27 225.423 1351.27 Q231.21 1351.27 234.59 1354.45 Q237.97 1357.62 237.97 1363.03 Q237.97 1368.61 234.497 1371.71 Q231.025 1374.79 224.706 1374.79 Q222.53 1374.79 220.261 1374.42 Q218.016 1374.05 215.609 1373.31 L215.609 1368.61 Q217.692 1369.75 219.914 1370.3 Q222.136 1370.86 224.613 1370.86 Q228.618 1370.86 230.956 1368.75 Q233.294 1366.64 233.294 1363.03 Q233.294 1359.42 230.956 1357.32 Q228.618 1355.21 224.613 1355.21 Q222.738 1355.21 220.863 1355.63 Q219.011 1356.04 217.067 1356.92 L217.067 1339.56 Z" fill="#000000" fill-rule="nonzero" fill-opacity="1"></path><path clip-path="url(#clip030)" d="M247.182 1368.24 L252.067 1368.24 L252.067 1374.12 L247.182 1374.12 L247.182 1368.24 Z" fill="#000000" fill-rule="nonzero" fill-opacity="1"></path><path clip-path="url(#clip030)" d="M272.252 1342.64 Q268.641 1342.64 266.812 1346.2 Q265.006 1349.75 265.006 1356.88 Q265.006 1363.98 266.812 1367.55 Q268.641 1371.09 272.252 1371.09 Q275.886 1371.09 277.692 1367.55 Q279.52 1363.98 279.52 1356.88 Q279.52 1349.75 277.692 1346.2 Q275.886 1342.64 272.252 1342.64 M272.252 1338.94 Q278.062 1338.94 281.117 1343.54 Q284.196 1348.13 284.196 1356.88 Q284.196 1365.6 281.117 1370.21 Q278.062 1374.79 272.252 1374.79 Q266.442 1374.79 263.363 1370.21 Q260.307 1365.6 260.307 1356.88 Q260.307 1348.13 263.363 1343.54 Q266.442 1338.94 272.252 1338.94 Z" fill="#000000" fill-rule="nonzero" fill-opacity="1"></path><path clip-path="url(#clip030)" d="M178.248 1099.7 L207.923 1099.7 L207.923 1103.63 L178.248 1103.63 L178.248 1099.7 Z" fill="#000000" fill-rule="nonzero" fill-opacity="1"></path><path clip-path="url(#clip030)" d="M222.044 1112.59 L238.363 1112.59 L238.363 1116.53 L216.419 1116.53 L216.419 1112.59 Q219.081 1109.84 223.664 1105.21 Q228.271 1100.56 229.451 1099.21 Q231.696 1096.69 232.576 1094.95 Q233.479 1093.19 233.479 1091.51 Q233.479 1088.75 231.534 1087.01 Q229.613 1085.28 226.511 1085.28 Q224.312 1085.28 221.859 1086.04 Q219.428 1086.81 216.65 1088.36 L216.65 1083.63 Q219.474 1082.5 221.928 1081.92 Q224.382 1081.34 226.419 1081.34 Q231.789 1081.34 234.983 1084.03 Q238.178 1086.71 238.178 1091.2 Q238.178 1093.33 237.368 1095.26 Q236.581 1097.15 234.474 1099.75 Q233.895 1100.42 230.794 1103.63 Q227.692 1106.83 222.044 1112.59 Z" fill="#000000" fill-rule="nonzero" fill-opacity="1"></path><path clip-path="url(#clip030)" d="M248.178 1110.65 L253.062 1110.65 L253.062 1116.53 L248.178 1116.53 L248.178 1110.65 Z" fill="#000000" fill-rule="nonzero" fill-opacity="1"></path><path clip-path="url(#clip030)" d="M263.293 1081.97 L281.65 1081.97 L281.65 1085.9 L267.576 1085.9 L267.576 1094.38 Q268.594 1094.03 269.613 1093.87 Q270.631 1093.68 271.65 1093.68 Q277.437 1093.68 280.817 1096.85 Q284.196 1100.02 284.196 1105.44 Q284.196 1111.02 280.724 1114.12 Q277.252 1117.2 270.932 1117.2 Q268.756 1117.2 266.488 1116.83 Q264.243 1116.46 261.835 1115.72 L261.835 1111.02 Q263.918 1112.15 266.141 1112.71 Q268.363 1113.26 270.84 1113.26 Q274.844 1113.26 277.182 1111.16 Q279.52 1109.05 279.52 1105.44 Q279.52 1101.83 277.182 1099.72 Q274.844 1097.62 270.84 1097.62 Q268.965 1097.62 267.09 1098.03 Q265.238 1098.45 263.293 1099.33 L263.293 1081.97 Z" fill="#000000" fill-rule="nonzero" fill-opacity="1"></path><path clip-path="url(#clip030)" d="M227.021 827.454 Q223.409 827.454 221.581 831.019 Q219.775 834.561 219.775 841.69 Q219.775 848.797 221.581 852.361 Q223.409 855.903 227.021 855.903 Q230.655 855.903 232.46 852.361 Q234.289 848.797 234.289 841.69 Q234.289 834.561 232.46 831.019 Q230.655 827.454 227.021 827.454 M227.021 823.751 Q232.831 823.751 235.886 828.357 Q238.965 832.94 238.965 841.69 Q238.965 850.417 235.886 855.023 Q232.831 859.607 227.021 859.607 Q221.21 859.607 218.132 855.023 Q215.076 850.417 215.076 841.69 Q215.076 832.94 218.132 828.357 Q221.21 823.751 227.021 823.751 Z" fill="#000000" fill-rule="nonzero" fill-opacity="1"></path><path clip-path="url(#clip030)" d="M247.182 853.056 L252.067 853.056 L252.067 858.936 L247.182 858.936 L247.182 853.056 Z" fill="#000000" fill-rule="nonzero" fill-opacity="1"></path><path clip-path="url(#clip030)" d="M272.252 827.454 Q268.641 827.454 266.812 831.019 Q265.006 834.561 265.006 841.69 Q265.006 848.797 266.812 852.361 Q268.641 855.903 272.252 855.903 Q275.886 855.903 277.692 852.361 Q279.52 848.797 279.52 841.69 Q279.52 834.561 277.692 831.019 Q275.886 827.454 272.252 827.454 M272.252 823.751 Q278.062 823.751 281.117 828.357 Q284.196 832.94 284.196 841.69 Q284.196 850.417 281.117 855.023 Q278.062 859.607 272.252 859.607 Q266.442 859.607 263.363 855.023 Q260.307 850.417 260.307 841.69 Q260.307 832.94 263.363 828.357 Q266.442 823.751 272.252 823.751 Z" fill="#000000" fill-rule="nonzero" fill-opacity="1"></path><path clip-path="url(#clip030)" d="M222.044 597.408 L238.363 597.408 L238.363 601.343 L216.419 601.343 L216.419 597.408 Q219.081 594.653 223.664 590.023 Q228.271 585.371 229.451 584.028 Q231.696 581.505 232.576 579.769 Q233.479 578.01 233.479 576.32 Q233.479 573.565 231.534 571.829 Q229.613 570.093 226.511 570.093 Q224.312 570.093 221.859 570.857 Q219.428 571.621 216.65 573.172 L216.65 568.449 Q219.474 567.315 221.928 566.737 Q224.382 566.158 226.419 566.158 Q231.789 566.158 234.983 568.843 Q238.178 571.528 238.178 576.019 Q238.178 578.149 237.368 580.07 Q236.581 581.968 234.474 584.561 Q233.895 585.232 230.794 588.449 Q227.692 591.644 222.044 597.408 Z" fill="#000000" fill-rule="nonzero" fill-opacity="1"></path><path clip-path="url(#clip030)" d="M248.178 595.463 L253.062 595.463 L253.062 601.343 L248.178 601.343 L248.178 595.463 Z" fill="#000000" fill-rule="nonzero" fill-opacity="1"></path><path clip-path="url(#clip030)" d="M263.293 566.783 L281.65 566.783 L281.65 570.718 L267.576 570.718 L267.576 579.19 Q268.594 578.843 269.613 578.681 Q270.631 578.496 271.65 578.496 Q277.437 578.496 280.817 581.667 Q284.196 584.838 284.196 590.255 Q284.196 595.834 280.724 598.935 Q277.252 602.014 270.932 602.014 Q268.756 602.014 266.488 601.644 Q264.243 601.273 261.835 600.533 L261.835 595.834 Q263.918 596.968 266.141 597.523 Q268.363 598.079 270.84 598.079 Q274.844 598.079 277.182 595.972 Q279.52 593.866 279.52 590.255 Q279.52 586.644 277.182 584.537 Q274.844 582.431 270.84 582.431 Q268.965 582.431 267.09 582.848 Q265.238 583.264 263.293 584.144 L263.293 566.783 Z" fill="#000000" fill-rule="nonzero" fill-opacity="1"></path><path clip-path="url(#clip030)" d="M217.067 309.19 L235.423 309.19 L235.423 313.125 L221.349 313.125 L221.349 321.598 Q222.368 321.25 223.386 321.088 Q224.405 320.903 225.423 320.903 Q231.21 320.903 234.59 324.074 Q237.97 327.246 237.97 332.662 Q237.97 338.241 234.497 341.343 Q231.025 344.421 224.706 344.421 Q222.53 344.421 220.261 344.051 Q218.016 343.681 215.609 342.94 L215.609 338.241 Q217.692 339.375 219.914 339.931 Q222.136 340.486 224.613 340.486 Q228.618 340.486 230.956 338.38 Q233.294 336.273 233.294 332.662 Q233.294 329.051 230.956 326.945 Q228.618 324.838 224.613 324.838 Q222.738 324.838 220.863 325.255 Q219.011 325.672 217.067 326.551 L217.067 309.19 Z" fill="#000000" fill-rule="nonzero" fill-opacity="1"></path><path clip-path="url(#clip030)" d="M247.182 337.871 L252.067 337.871 L252.067 343.75 L247.182 343.75 L247.182 337.871 Z" fill="#000000" fill-rule="nonzero" fill-opacity="1"></path><path clip-path="url(#clip030)" d="M272.252 312.269 Q268.641 312.269 266.812 315.834 Q265.006 319.375 265.006 326.505 Q265.006 333.611 266.812 337.176 Q268.641 340.718 272.252 340.718 Q275.886 340.718 277.692 337.176 Q279.52 333.611 279.52 326.505 Q279.52 319.375 277.692 315.834 Q275.886 312.269 272.252 312.269 M272.252 308.565 Q278.062 308.565 281.117 313.172 Q284.196 317.755 284.196 326.505 Q284.196 335.232 281.117 339.838 Q278.062 344.421 272.252 344.421 Q266.442 344.421 263.363 339.838 Q260.307 335.232 260.307 326.505 Q260.307 317.755 263.363 313.172 Q266.442 308.565 272.252 308.565 Z" fill="#000000" fill-rule="nonzero" fill-opacity="1"></path><path clip-path="url(#clip030)" d="M79.4763 883.008 L79.4763 855.699 L84.8871 855.699 L84.8871 876.578 L98.8917 876.578 L98.8917 857.736 L104.303 857.736 L104.303 876.578 L126.996 876.578 L126.996 883.008 L79.4763 883.008 Z" fill="#000000" fill-rule="nonzero" fill-opacity="1"></path><path clip-path="url(#clip030)" d="M107.708 818.841 L110.573 818.841 L110.573 845.768 Q116.62 845.386 119.803 842.14 Q122.954 838.862 122.954 833.037 Q122.954 829.663 122.127 826.512 Q121.299 823.329 119.644 820.21 L125.182 820.21 Q126.519 823.361 127.219 826.671 Q127.919 829.981 127.919 833.387 Q127.919 841.917 122.954 846.914 Q117.989 851.879 109.522 851.879 Q100.77 851.879 95.6452 847.169 Q90.489 842.426 90.489 834.406 Q90.489 827.212 95.1359 823.043 Q99.7511 818.841 107.708 818.841 M105.989 824.698 Q101.183 824.762 98.3188 827.403 Q95.4542 830.013 95.4542 834.342 Q95.4542 839.244 98.2233 842.204 Q100.992 845.132 106.021 845.577 L105.989 824.698 Z" fill="#000000" fill-rule="nonzero" fill-opacity="1"></path><path clip-path="url(#clip030)" d="M109.077 793.028 Q109.077 800.126 110.7 802.864 Q112.323 805.601 116.238 805.601 Q119.357 805.601 121.203 803.564 Q123.018 801.495 123.018 797.962 Q123.018 793.092 119.58 790.164 Q116.111 787.204 110.382 787.204 L109.077 787.204 L109.077 793.028 M106.658 781.347 L126.996 781.347 L126.996 787.204 L121.585 787.204 Q124.832 789.209 126.392 792.201 Q127.919 795.193 127.919 799.522 Q127.919 804.996 124.864 808.243 Q121.776 811.457 116.62 811.457 Q110.605 811.457 107.549 807.447 Q104.494 803.405 104.494 795.416 L104.494 787.204 L103.921 787.204 Q99.8784 787.204 97.6822 789.877 Q95.4542 792.519 95.4542 797.325 Q95.4542 800.381 96.1863 803.277 Q96.9183 806.174 98.3824 808.847 L92.9716 808.847 Q91.7303 805.633 91.1255 802.609 Q90.489 799.585 90.489 796.721 Q90.489 788.986 94.4994 785.167 Q98.5097 781.347 106.658 781.347 Z" fill="#000000" fill-rule="nonzero" fill-opacity="1"></path><path clip-path="url(#clip030)" d="M81.2269 763.492 L91.3483 763.492 L91.3483 751.429 L95.8998 751.429 L95.8998 763.492 L115.252 763.492 Q119.612 763.492 120.853 762.314 Q122.095 761.104 122.095 757.444 L122.095 751.429 L126.996 751.429 L126.996 757.444 Q126.996 764.224 124.482 766.802 Q121.936 769.38 115.252 769.38 L95.8998 769.38 L95.8998 773.677 L91.3483 773.677 L91.3483 769.38 L81.2269 769.38 L81.2269 763.492 Z" fill="#000000" fill-rule="nonzero" fill-opacity="1"></path><path clip-path="url(#clip030)" d="M112.928 744.331 L91.3483 744.331 L91.3483 738.474 L112.705 738.474 Q117.766 738.474 120.312 736.501 Q122.827 734.528 122.827 730.581 Q122.827 725.838 119.803 723.101 Q116.779 720.332 111.559 720.332 L91.3483 720.332 L91.3483 714.476 L126.996 714.476 L126.996 720.332 L121.522 720.332 Q124.768 722.465 126.36 725.297 Q127.919 728.098 127.919 731.822 Q127.919 737.965 124.1 741.148 Q120.28 744.331 112.928 744.331 M90.489 729.594 L90.489 729.594 Z" fill="#000000" fill-rule="nonzero" fill-opacity="1"></path><path clip-path="url(#clip030)" d="M96.8228 681.756 Q96.2499 682.743 95.9953 683.92 Q95.7088 685.066 95.7088 686.467 Q95.7088 691.432 98.9553 694.105 Q102.17 696.747 108.217 696.747 L126.996 696.747 L126.996 702.635 L91.3483 702.635 L91.3483 696.747 L96.8865 696.747 Q93.64 694.901 92.0804 691.941 Q90.489 688.981 90.489 684.748 Q90.489 684.143 90.5844 683.411 Q90.6481 682.679 90.8072 681.788 L96.8228 681.756 Z" fill="#000000" fill-rule="nonzero" fill-opacity="1"></path><path clip-path="url(#clip030)" d="M107.708 646.554 L110.573 646.554 L110.573 673.481 Q116.62 673.099 119.803 669.852 Q122.954 666.574 122.954 660.749 Q122.954 657.375 122.127 654.224 Q121.299 651.041 119.644 647.922 L125.182 647.922 Q126.519 651.073 127.219 654.383 Q127.919 657.694 127.919 661.099 Q127.919 669.629 122.954 674.626 Q117.989 679.592 109.522 679.592 Q100.77 679.592 95.6452 674.881 Q90.489 670.139 90.489 662.118 Q90.489 654.924 95.1359 650.755 Q99.7511 646.554 107.708 646.554 M105.989 652.41 Q101.183 652.474 98.3188 655.115 Q95.4542 657.725 95.4542 662.054 Q95.4542 666.956 98.2233 669.916 Q100.992 672.844 106.021 673.29 L105.989 652.41 Z" fill="#000000" fill-rule="nonzero" fill-opacity="1"></path><path clip-path="url(#clip030)" d="M121.585 609.855 L121.585 587.416 L126.996 587.416 L126.996 617.59 L121.585 617.59 Q117.798 613.929 111.432 607.627 Q105.035 601.293 103.189 599.67 Q99.7192 596.583 97.3321 595.373 Q94.9131 594.132 92.5896 594.132 Q88.802 594.132 86.4149 596.806 Q84.0278 599.447 84.0278 603.712 Q84.0278 606.736 85.0781 610.11 Q86.1284 613.452 88.261 617.271 L81.7679 617.271 Q80.2083 613.388 79.4126 610.014 Q78.6169 606.641 78.6169 603.84 Q78.6169 596.455 82.309 592.063 Q86.0011 587.671 92.1759 587.671 Q95.1041 587.671 97.7459 588.785 Q100.356 589.867 103.921 592.763 Q104.844 593.559 109.268 597.824 Q113.66 602.089 121.585 609.855 Z" fill="#000000" fill-rule="nonzero" fill-opacity="1"></path><circle clip-path="url(#clip032)" cx="2234.02" cy="531.024" r="21.6" fill="#ffffff" fill-rule="evenodd" fill-opacity="1" stroke="#000000" stroke-opacity="1" stroke-width="3.2"></circle>
<circle clip-path="url(#clip032)" cx="582.199" cy="346.444" r="21.6" fill="#ffffff" fill-rule="evenodd" fill-opacity="1" stroke="#000000" stroke-opacity="1" stroke-width="3.2"></circle>
<circle clip-path="url(#clip032)" cx="722.36" cy="1139.71" r="21.6" fill="#ffffff" fill-rule="evenodd" fill-opacity="1" stroke="#000000" stroke-opacity="1" stroke-width="3.2"></circle>
<circle clip-path="url(#clip032)" cx="2086.22" cy="583.144" r="21.6" fill="#ffffff" fill-rule="evenodd" fill-opacity="1" stroke="#000000" stroke-opacity="1" stroke-width="3.2"></circle>
<circle clip-path="url(#clip032)" cx="644.095" cy="235.363" r="21.6" fill="#ffffff" fill-rule="evenodd" fill-opacity="1" stroke="#000000" stroke-opacity="1" stroke-width="3.2"></circle>
<circle clip-path="url(#clip032)" cx="2217.19" cy="480.775" r="21.6" fill="#ffffff" fill-rule="evenodd" fill-opacity="1" stroke="#000000" stroke-opacity="1" stroke-width="3.2"></circle>
<circle clip-path="url(#clip032)" cx="741.153" cy="1191.27" r="21.6" fill="#ffffff" fill-rule="evenodd" fill-opacity="1" stroke="#000000" stroke-opacity="1" stroke-width="3.2"></circle>
<circle clip-path="url(#clip032)" cx="913.339" cy="1297.02" r="21.6" fill="#ffffff" fill-rule="evenodd" fill-opacity="1" stroke="#000000" stroke-opacity="1" stroke-width="3.2"></circle>
<circle clip-path="url(#clip032)" cx="532.564" cy="201.648" r="21.6" fill="#ffffff" fill-rule="evenodd" fill-opacity="1" stroke="#000000" stroke-opacity="1" stroke-width="3.2"></circle>
<circle clip-path="url(#clip032)" cx="833.215" cy="1299.44" r="21.6" fill="#ffffff" fill-rule="evenodd" fill-opacity="1" stroke="#000000" stroke-opacity="1" stroke-width="3.2"></circle>
<circle clip-path="url(#clip032)" cx="828.935" cy="1104.65" r="21.6" fill="#ffffff" fill-rule="evenodd" fill-opacity="1" stroke="#000000" stroke-opacity="1" stroke-width="3.2"></circle>
<circle clip-path="url(#clip032)" cx="2081.29" cy="538.51" r="21.6" fill="#ffffff" fill-rule="evenodd" fill-opacity="1" stroke="#000000" stroke-opacity="1" stroke-width="3.2"></circle>
<circle clip-path="url(#clip032)" cx="602.588" cy="250.346" r="21.6" fill="#ffffff" fill-rule="evenodd" fill-opacity="1" stroke="#000000" stroke-opacity="1" stroke-width="3.2"></circle>
<circle clip-path="url(#clip032)" cx="733.761" cy="1084.05" r="21.6" fill="#ffffff" fill-rule="evenodd" fill-opacity="1" stroke="#000000" stroke-opacity="1" stroke-width="3.2"></circle>
<circle clip-path="url(#clip032)" cx="1936.1" cy="471.907" r="21.6" fill="#ffffff" fill-rule="evenodd" fill-opacity="1" stroke="#000000" stroke-opacity="1" stroke-width="3.2"></circle>
<circle clip-path="url(#clip032)" cx="797.067" cy="1208.3" r="21.6" fill="#ffffff" fill-rule="evenodd" fill-opacity="1" stroke="#000000" stroke-opacity="1" stroke-width="3.2"></circle>
<circle clip-path="url(#clip032)" cx="711.611" cy="1171.8" r="21.6" fill="#ffffff" fill-rule="evenodd" fill-opacity="1" stroke="#000000" stroke-opacity="1" stroke-width="3.2"></circle>
<circle clip-path="url(#clip032)" cx="557.018" cy="326.631" r="21.6" fill="#ffffff" fill-rule="evenodd" fill-opacity="1" stroke="#000000" stroke-opacity="1" stroke-width="3.2"></circle>
<circle clip-path="url(#clip032)" cx="2020.83" cy="427.928" r="21.6" fill="#ffffff" fill-rule="evenodd" fill-opacity="1" stroke="#000000" stroke-opacity="1" stroke-width="3.2"></circle>
<circle clip-path="url(#clip032)" cx="600.055" cy="247.785" r="21.6" fill="#ffffff" fill-rule="evenodd" fill-opacity="1" stroke="#000000" stroke-opacity="1" stroke-width="3.2"></circle>
<circle clip-path="url(#clip032)" cx="2206.46" cy="563.576" r="21.6" fill="#ffffff" fill-rule="evenodd" fill-opacity="1" stroke="#000000" stroke-opacity="1" stroke-width="3.2"></circle>
<circle clip-path="url(#clip032)" cx="2223.52" cy="510.242" r="21.6" fill="#ffffff" fill-rule="evenodd" fill-opacity="1" stroke="#000000" stroke-opacity="1" stroke-width="3.2"></circle>
<circle clip-path="url(#clip032)" cx="823.792" cy="1158.22" r="21.6" fill="#ffffff" fill-rule="evenodd" fill-opacity="1" stroke="#000000" stroke-opacity="1" stroke-width="3.2"></circle>
<circle clip-path="url(#clip032)" cx="711.717" cy="1163.32" r="21.6" fill="#ffffff" fill-rule="evenodd" fill-opacity="1" stroke="#000000" stroke-opacity="1" stroke-width="3.2"></circle>
<circle clip-path="url(#clip032)" cx="699.892" cy="1197.63" r="21.6" fill="#ffffff" fill-rule="evenodd" fill-opacity="1" stroke="#000000" stroke-opacity="1" stroke-width="3.2"></circle>
<circle clip-path="url(#clip032)" cx="608.613" cy="370.448" r="21.6" fill="#ffffff" fill-rule="evenodd" fill-opacity="1" stroke="#000000" stroke-opacity="1" stroke-width="3.2"></circle>
<circle clip-path="url(#clip032)" cx="714.385" cy="1112.82" r="21.6" fill="#ffffff" fill-rule="evenodd" fill-opacity="1" stroke="#000000" stroke-opacity="1" stroke-width="3.2"></circle>
<circle clip-path="url(#clip032)" cx="2056.07" cy="541.844" r="21.6" fill="#ffffff" fill-rule="evenodd" fill-opacity="1" stroke="#000000" stroke-opacity="1" stroke-width="3.2"></circle>
<circle clip-path="url(#clip032)" cx="770.531" cy="1112.54" r="21.6" fill="#ffffff" fill-rule="evenodd" fill-opacity="1" stroke="#000000" stroke-opacity="1" stroke-width="3.2"></circle>
<circle clip-path="url(#clip032)" cx="711.099" cy="1163.12" r="21.6" fill="#ffffff" fill-rule="evenodd" fill-opacity="1" stroke="#000000" stroke-opacity="1" stroke-width="3.2"></circle>
<circle clip-path="url(#clip032)" cx="2080.83" cy="478.389" r="21.6" fill="#ffffff" fill-rule="evenodd" fill-opacity="1" stroke="#000000" stroke-opacity="1" stroke-width="3.2"></circle>
<circle clip-path="url(#clip032)" cx="2142.89" cy="537.134" r="21.6" fill="#ffffff" fill-rule="evenodd" fill-opacity="1" stroke="#000000" stroke-opacity="1" stroke-width="3.2"></circle>
<circle clip-path="url(#clip032)" cx="496.913" cy="270.375" r="21.6" fill="#ffffff" fill-rule="evenodd" fill-opacity="1" stroke="#000000" stroke-opacity="1" stroke-width="3.2"></circle>
<circle clip-path="url(#clip032)" cx="545.712" cy="351.399" r="21.6" fill="#ffffff" fill-rule="evenodd" fill-opacity="1" stroke="#000000" stroke-opacity="1" stroke-width="3.2"></circle>
<circle clip-path="url(#clip032)" cx="2063.54" cy="452.553" r="21.6" fill="#ffffff" fill-rule="evenodd" fill-opacity="1" stroke="#000000" stroke-opacity="1" stroke-width="3.2"></circle>
<circle clip-path="url(#clip032)" cx="529.152" cy="333.017" r="21.6" fill="#ffffff" fill-rule="evenodd" fill-opacity="1" stroke="#000000" stroke-opacity="1" stroke-width="3.2"></circle>
<circle clip-path="url(#clip032)" cx="819.828" cy="1119.74" r="21.6" fill="#ffffff" fill-rule="evenodd" fill-opacity="1" stroke="#000000" stroke-opacity="1" stroke-width="3.2"></circle>
<circle clip-path="url(#clip032)" cx="2199.89" cy="545.334" r="21.6" fill="#ffffff" fill-rule="evenodd" fill-opacity="1" stroke="#000000" stroke-opacity="1" stroke-width="3.2"></circle>
<circle clip-path="url(#clip032)" cx="2114.23" cy="432.044" r="21.6" fill="#ffffff" fill-rule="evenodd" fill-opacity="1" stroke="#000000" stroke-opacity="1" stroke-width="3.2"></circle>
<circle clip-path="url(#clip032)" cx="511.787" cy="145.612" r="21.6" fill="#ffffff" fill-rule="evenodd" fill-opacity="1" stroke="#000000" stroke-opacity="1" stroke-width="3.2"></circle>
<circle clip-path="url(#clip032)" cx="568.504" cy="352.764" r="21.6" fill="#ffffff" fill-rule="evenodd" fill-opacity="1" stroke="#000000" stroke-opacity="1" stroke-width="3.2"></circle>
<circle clip-path="url(#clip032)" cx="534.43" cy="273.843" r="21.6" fill="#ffffff" fill-rule="evenodd" fill-opacity="1" stroke="#000000" stroke-opacity="1" stroke-width="3.2"></circle>
<circle clip-path="url(#clip032)" cx="1962.76" cy="526.509" r="21.6" fill="#ffffff" fill-rule="evenodd" fill-opacity="1" stroke="#000000" stroke-opacity="1" stroke-width="3.2"></circle>
<circle clip-path="url(#clip032)" cx="682.85" cy="256.664" r="21.6" fill="#ffffff" fill-rule="evenodd" fill-opacity="1" stroke="#000000" stroke-opacity="1" stroke-width="3.2"></circle>
<circle clip-path="url(#clip032)" cx="536.737" cy="235.155" r="21.6" fill="#ffffff" fill-rule="evenodd" fill-opacity="1" stroke="#000000" stroke-opacity="1" stroke-width="3.2"></circle>
<circle clip-path="url(#clip032)" cx="493.853" cy="239.471" r="21.6" fill="#ffffff" fill-rule="evenodd" fill-opacity="1" stroke="#000000" stroke-opacity="1" stroke-width="3.2"></circle>
<circle clip-path="url(#clip032)" cx="553.936" cy="273.938" r="21.6" fill="#ffffff" fill-rule="evenodd" fill-opacity="1" stroke="#000000" stroke-opacity="1" stroke-width="3.2"></circle>
<circle clip-path="url(#clip032)" cx="2073.04" cy="545.862" r="21.6" fill="#ffffff" fill-rule="evenodd" fill-opacity="1" stroke="#000000" stroke-opacity="1" stroke-width="3.2"></circle>
<circle clip-path="url(#clip032)" cx="881.108" cy="1324.81" r="21.6" fill="#ffffff" fill-rule="evenodd" fill-opacity="1" stroke="#000000" stroke-opacity="1" stroke-width="3.2"></circle>
<circle clip-path="url(#clip032)" cx="2220.82" cy="567.289" r="21.6" fill="#ffffff" fill-rule="evenodd" fill-opacity="1" stroke="#000000" stroke-opacity="1" stroke-width="3.2"></circle>
<circle clip-path="url(#clip032)" cx="828.522" cy="1227.42" r="21.6" fill="#ffffff" fill-rule="evenodd" fill-opacity="1" stroke="#000000" stroke-opacity="1" stroke-width="3.2"></circle>
<circle clip-path="url(#clip032)" cx="812.345" cy="1198.88" r="21.6" fill="#ffffff" fill-rule="evenodd" fill-opacity="1" stroke="#000000" stroke-opacity="1" stroke-width="3.2"></circle>
<circle clip-path="url(#clip032)" cx="641.957" cy="239.008" r="21.6" fill="#ffffff" fill-rule="evenodd" fill-opacity="1" stroke="#000000" stroke-opacity="1" stroke-width="3.2"></circle>
<circle clip-path="url(#clip032)" cx="593.154" cy="341.561" r="21.6" fill="#ffffff" fill-rule="evenodd" fill-opacity="1" stroke="#000000" stroke-opacity="1" stroke-width="3.2"></circle>
<circle clip-path="url(#clip032)" cx="495.494" cy="374.515" r="21.6" fill="#ffffff" fill-rule="evenodd" fill-opacity="1" stroke="#000000" stroke-opacity="1" stroke-width="3.2"></circle>
<circle clip-path="url(#clip032)" cx="2166.52" cy="482.395" r="21.6" fill="#ffffff" fill-rule="evenodd" fill-opacity="1" stroke="#000000" stroke-opacity="1" stroke-width="3.2"></circle>
<circle clip-path="url(#clip032)" cx="764.349" cy="1176.3" r="21.6" fill="#ffffff" fill-rule="evenodd" fill-opacity="1" stroke="#000000" stroke-opacity="1" stroke-width="3.2"></circle>
<circle clip-path="url(#clip032)" cx="647.02" cy="1223.49" r="21.6" fill="#ffffff" fill-rule="evenodd" fill-opacity="1" stroke="#000000" stroke-opacity="1" stroke-width="3.2"></circle>
<circle clip-path="url(#clip032)" cx="803.613" cy="1276.63" r="21.6" fill="#ffffff" fill-rule="evenodd" fill-opacity="1" stroke="#000000" stroke-opacity="1" stroke-width="3.2"></circle>
<circle clip-path="url(#clip032)" cx="738.174" cy="1132.49" r="21.6" fill="#ffffff" fill-rule="evenodd" fill-opacity="1" stroke="#000000" stroke-opacity="1" stroke-width="3.2"></circle>
<circle clip-path="url(#clip032)" cx="848.677" cy="1299.17" r="21.6" fill="#ffffff" fill-rule="evenodd" fill-opacity="1" stroke="#000000" stroke-opacity="1" stroke-width="3.2"></circle>
<circle clip-path="url(#clip032)" cx="559.986" cy="224.251" r="21.6" fill="#ffffff" fill-rule="evenodd" fill-opacity="1" stroke="#000000" stroke-opacity="1" stroke-width="3.2"></circle>
<circle clip-path="url(#clip032)" cx="2079.82" cy="579.337" r="21.6" fill="#ffffff" fill-rule="evenodd" fill-opacity="1" stroke="#000000" stroke-opacity="1" stroke-width="3.2"></circle>
<circle clip-path="url(#clip032)" cx="808.031" cy="1188.44" r="21.6" fill="#ffffff" fill-rule="evenodd" fill-opacity="1" stroke="#000000" stroke-opacity="1" stroke-width="3.2"></circle>
<circle clip-path="url(#clip032)" cx="584.616" cy="287.924" r="21.6" fill="#ffffff" fill-rule="evenodd" fill-opacity="1" stroke="#000000" stroke-opacity="1" stroke-width="3.2"></circle>
<circle clip-path="url(#clip032)" cx="2129.69" cy="527.896" r="21.6" fill="#ffffff" fill-rule="evenodd" fill-opacity="1" stroke="#000000" stroke-opacity="1" stroke-width="3.2"></circle>
<circle clip-path="url(#clip032)" cx="726.467" cy="1231.62" r="21.6" fill="#ffffff" fill-rule="evenodd" fill-opacity="1" stroke="#000000" stroke-opacity="1" stroke-width="3.2"></circle>
<circle clip-path="url(#clip032)" cx="2183.08" cy="545.366" r="21.6" fill="#ffffff" fill-rule="evenodd" fill-opacity="1" stroke="#000000" stroke-opacity="1" stroke-width="3.2"></circle>
<circle clip-path="url(#clip032)" cx="601.125" cy="279.444" r="21.6" fill="#ffffff" fill-rule="evenodd" fill-opacity="1" stroke="#000000" stroke-opacity="1" stroke-width="3.2"></circle>
<circle clip-path="url(#clip032)" cx="776.359" cy="1241.4" r="21.6" fill="#ffffff" fill-rule="evenodd" fill-opacity="1" stroke="#000000" stroke-opacity="1" stroke-width="3.2"></circle>
<circle clip-path="url(#clip032)" cx="734.799" cy="1097.37" r="21.6" fill="#ffffff" fill-rule="evenodd" fill-opacity="1" stroke="#000000" stroke-opacity="1" stroke-width="3.2"></circle>
<circle clip-path="url(#clip032)" cx="2060.88" cy="537.33" r="21.6" fill="#ffffff" fill-rule="evenodd" fill-opacity="1" stroke="#000000" stroke-opacity="1" stroke-width="3.2"></circle>
<circle clip-path="url(#clip032)" cx="606.155" cy="247.529" r="21.6" fill="#ffffff" fill-rule="evenodd" fill-opacity="1" stroke="#000000" stroke-opacity="1" stroke-width="3.2"></circle>
<circle clip-path="url(#clip032)" cx="2056.47" cy="489.422" r="21.6" fill="#ffffff" fill-rule="evenodd" fill-opacity="1" stroke="#000000" stroke-opacity="1" stroke-width="3.2"></circle>
<circle clip-path="url(#clip032)" cx="559.448" cy="324.079" r="21.6" fill="#ffffff" fill-rule="evenodd" fill-opacity="1" stroke="#000000" stroke-opacity="1" stroke-width="3.2"></circle>
<circle clip-path="url(#clip032)" cx="872.462" cy="1125.02" r="21.6" fill="#ffffff" fill-rule="evenodd" fill-opacity="1" stroke="#000000" stroke-opacity="1" stroke-width="3.2"></circle>
<circle clip-path="url(#clip032)" cx="2060.37" cy="422.082" r="21.6" fill="#ffffff" fill-rule="evenodd" fill-opacity="1" stroke="#000000" stroke-opacity="1" stroke-width="3.2"></circle>
<circle clip-path="url(#clip032)" cx="469.472" cy="259.436" r="21.6" fill="#ffffff" fill-rule="evenodd" fill-opacity="1" stroke="#000000" stroke-opacity="1" stroke-width="3.2"></circle>
<circle clip-path="url(#clip032)" cx="2036.54" cy="565.94" r="21.6" fill="#ffffff" fill-rule="evenodd" fill-opacity="1" stroke="#000000" stroke-opacity="1" stroke-width="3.2"></circle>
<circle clip-path="url(#clip032)" cx="801.469" cy="1197.14" r="21.6" fill="#ffffff" fill-rule="evenodd" fill-opacity="1" stroke="#000000" stroke-opacity="1" stroke-width="3.2"></circle>
<circle clip-path="url(#clip032)" cx="2086.62" cy="447.003" r="21.6" fill="#ffffff" fill-rule="evenodd" fill-opacity="1" stroke="#000000" stroke-opacity="1" stroke-width="3.2"></circle>
<circle clip-path="url(#clip032)" cx="829.686" cy="1186.34" r="21.6" fill="#ffffff" fill-rule="evenodd" fill-opacity="1" stroke="#000000" stroke-opacity="1" stroke-width="3.2"></circle>
<circle clip-path="url(#clip032)" cx="722.663" cy="1192.49" r="21.6" fill="#ffffff" fill-rule="evenodd" fill-opacity="1" stroke="#000000" stroke-opacity="1" stroke-width="3.2"></circle>
<circle clip-path="url(#clip032)" cx="636.901" cy="1108.79" r="21.6" fill="#ffffff" fill-rule="evenodd" fill-opacity="1" stroke="#000000" stroke-opacity="1" stroke-width="3.2"></circle>
<circle clip-path="url(#clip032)" cx="774.56" cy="1153.17" r="21.6" fill="#ffffff" fill-rule="evenodd" fill-opacity="1" stroke="#000000" stroke-opacity="1" stroke-width="3.2"></circle>
<circle clip-path="url(#clip032)" cx="424.732" cy="356.894" r="21.6" fill="#ffffff" fill-rule="evenodd" fill-opacity="1" stroke="#000000" stroke-opacity="1" stroke-width="3.2"></circle>
<circle clip-path="url(#clip032)" cx="375.939" cy="277.839" r="21.6" fill="#ffffff" fill-rule="evenodd" fill-opacity="1" stroke="#000000" stroke-opacity="1" stroke-width="3.2"></circle>
<circle clip-path="url(#clip032)" cx="2080.3" cy="499.125" r="21.6" fill="#ffffff" fill-rule="evenodd" fill-opacity="1" stroke="#000000" stroke-opacity="1" stroke-width="3.2"></circle>
<circle clip-path="url(#clip032)" cx="445.245" cy="250.615" r="21.6" fill="#ffffff" fill-rule="evenodd" fill-opacity="1" stroke="#000000" stroke-opacity="1" stroke-width="3.2"></circle>
<circle clip-path="url(#clip032)" cx="2115.62" cy="428.775" r="21.6" fill="#ffffff" fill-rule="evenodd" fill-opacity="1" stroke="#000000" stroke-opacity="1" stroke-width="3.2"></circle>
<circle clip-path="url(#clip032)" cx="614.024" cy="277.246" r="21.6" fill="#ffffff" fill-rule="evenodd" fill-opacity="1" stroke="#000000" stroke-opacity="1" stroke-width="3.2"></circle>
<circle clip-path="url(#clip032)" cx="607.459" cy="292.947" r="21.6" fill="#ffffff" fill-rule="evenodd" fill-opacity="1" stroke="#000000" stroke-opacity="1" stroke-width="3.2"></circle>
<circle clip-path="url(#clip032)" cx="786.243" cy="1227.83" r="21.6" fill="#ffffff" fill-rule="evenodd" fill-opacity="1" stroke="#000000" stroke-opacity="1" stroke-width="3.2"></circle>
<circle clip-path="url(#clip032)" cx="513.285" cy="334.156" r="21.6" fill="#ffffff" fill-rule="evenodd" fill-opacity="1" stroke="#000000" stroke-opacity="1" stroke-width="3.2"></circle>
<circle clip-path="url(#clip032)" cx="401.574" cy="175.862" r="21.6" fill="#ffffff" fill-rule="evenodd" fill-opacity="1" stroke="#000000" stroke-opacity="1" stroke-width="3.2"></circle>
<circle clip-path="url(#clip032)" cx="2140.86" cy="444.496" r="21.6" fill="#ffffff" fill-rule="evenodd" fill-opacity="1" stroke="#000000" stroke-opacity="1" stroke-width="3.2"></circle>
<circle clip-path="url(#clip032)" cx="2009.04" cy="520.706" r="21.6" fill="#ffffff" fill-rule="evenodd" fill-opacity="1" stroke="#000000" stroke-opacity="1" stroke-width="3.2"></circle>
<circle clip-path="url(#clip032)" cx="2073.46" cy="451.711" r="21.6" fill="#ffffff" fill-rule="evenodd" fill-opacity="1" stroke="#000000" stroke-opacity="1" stroke-width="3.2"></circle>
<circle clip-path="url(#clip032)" cx="656.284" cy="1079.13" r="21.6" fill="#ffffff" fill-rule="evenodd" fill-opacity="1" stroke="#000000" stroke-opacity="1" stroke-width="3.2"></circle>
<circle clip-path="url(#clip032)" cx="2034.67" cy="553.842" r="21.6" fill="#ffffff" fill-rule="evenodd" fill-opacity="1" stroke="#000000" stroke-opacity="1" stroke-width="3.2"></circle>
<circle clip-path="url(#clip032)" cx="483.63" cy="249.062" r="21.6" fill="#ffffff" fill-rule="evenodd" fill-opacity="1" stroke="#000000" stroke-opacity="1" stroke-width="3.2"></circle>
<circle clip-path="url(#clip032)" cx="539.963" cy="317.744" r="21.6" fill="#ffffff" fill-rule="evenodd" fill-opacity="1" stroke="#000000" stroke-opacity="1" stroke-width="3.2"></circle>
<circle clip-path="url(#clip032)" cx="2057.12" cy="458.153" r="21.6" fill="#ffffff" fill-rule="evenodd" fill-opacity="1" stroke="#000000" stroke-opacity="1" stroke-width="3.2"></circle>
<circle clip-path="url(#clip032)" cx="2144.65" cy="547.773" r="21.6" fill="#ffffff" fill-rule="evenodd" fill-opacity="1" stroke="#000000" stroke-opacity="1" stroke-width="3.2"></circle>
<circle clip-path="url(#clip032)" cx="855.599" cy="1212.62" r="21.6" fill="#ffffff" fill-rule="evenodd" fill-opacity="1" stroke="#000000" stroke-opacity="1" stroke-width="3.2"></circle>
<circle clip-path="url(#clip032)" cx="721.054" cy="1240.78" r="21.6" fill="#ffffff" fill-rule="evenodd" fill-opacity="1" stroke="#000000" stroke-opacity="1" stroke-width="3.2"></circle>
<circle clip-path="url(#clip032)" cx="872.965" cy="1122.67" r="21.6" fill="#ffffff" fill-rule="evenodd" fill-opacity="1" stroke="#000000" stroke-opacity="1" stroke-width="3.2"></circle>
<circle clip-path="url(#clip032)" cx="2009.03" cy="493.936" r="21.6" fill="#ffffff" fill-rule="evenodd" fill-opacity="1" stroke="#000000" stroke-opacity="1" stroke-width="3.2"></circle>
<circle clip-path="url(#clip032)" cx="824.253" cy="1171.31" r="21.6" fill="#ffffff" fill-rule="evenodd" fill-opacity="1" stroke="#000000" stroke-opacity="1" stroke-width="3.2"></circle>
<circle clip-path="url(#clip032)" cx="2138.97" cy="484.146" r="21.6" fill="#ffffff" fill-rule="evenodd" fill-opacity="1" stroke="#000000" stroke-opacity="1" stroke-width="3.2"></circle>
<circle clip-path="url(#clip032)" cx="830.807" cy="1223.12" r="21.6" fill="#ffffff" fill-rule="evenodd" fill-opacity="1" stroke="#000000" stroke-opacity="1" stroke-width="3.2"></circle>
<circle clip-path="url(#clip032)" cx="836.946" cy="1183.44" r="21.6" fill="#ffffff" fill-rule="evenodd" fill-opacity="1" stroke="#000000" stroke-opacity="1" stroke-width="3.2"></circle>
<circle clip-path="url(#clip032)" cx="2059.7" cy="509.582" r="21.6" fill="#ffffff" fill-rule="evenodd" fill-opacity="1" stroke="#000000" stroke-opacity="1" stroke-width="3.2"></circle>
<circle clip-path="url(#clip032)" cx="839.529" cy="1150.4" r="21.6" fill="#ffffff" fill-rule="evenodd" fill-opacity="1" stroke="#000000" stroke-opacity="1" stroke-width="3.2"></circle>
<circle clip-path="url(#clip032)" cx="454.577" cy="212.157" r="21.6" fill="#ffffff" fill-rule="evenodd" fill-opacity="1" stroke="#000000" stroke-opacity="1" stroke-width="3.2"></circle>
<circle clip-path="url(#clip032)" cx="498.363" cy="234.649" r="21.6" fill="#ffffff" fill-rule="evenodd" fill-opacity="1" stroke="#000000" stroke-opacity="1" stroke-width="3.2"></circle>
<circle clip-path="url(#clip032)" cx="2190.92" cy="483.88" r="21.6" fill="#ffffff" fill-rule="evenodd" fill-opacity="1" stroke="#000000" stroke-opacity="1" stroke-width="3.2"></circle>
<circle clip-path="url(#clip032)" cx="534.533" cy="302.748" r="21.6" fill="#ffffff" fill-rule="evenodd" fill-opacity="1" stroke="#000000" stroke-opacity="1" stroke-width="3.2"></circle>
<circle clip-path="url(#clip032)" cx="632.875" cy="1143.13" r="21.6" fill="#ffffff" fill-rule="evenodd" fill-opacity="1" stroke="#000000" stroke-opacity="1" stroke-width="3.2"></circle>
<circle clip-path="url(#clip032)" cx="462.787" cy="227.22" r="21.6" fill="#ffffff" fill-rule="evenodd" fill-opacity="1" stroke="#000000" stroke-opacity="1" stroke-width="3.2"></circle>
<circle clip-path="url(#clip032)" cx="568.411" cy="303.76" r="21.6" fill="#ffffff" fill-rule="evenodd" fill-opacity="1" stroke="#000000" stroke-opacity="1" stroke-width="3.2"></circle>
<circle clip-path="url(#clip032)" cx="2141.7" cy="542.271" r="21.6" fill="#ffffff" fill-rule="evenodd" fill-opacity="1" stroke="#000000" stroke-opacity="1" stroke-width="3.2"></circle>
<circle clip-path="url(#clip032)" cx="744.887" cy="1168.56" r="21.6" fill="#ffffff" fill-rule="evenodd" fill-opacity="1" stroke="#000000" stroke-opacity="1" stroke-width="3.2"></circle>
<circle clip-path="url(#clip032)" cx="468.78" cy="231.556" r="21.6" fill="#ffffff" fill-rule="evenodd" fill-opacity="1" stroke="#000000" stroke-opacity="1" stroke-width="3.2"></circle>
<circle clip-path="url(#clip032)" cx="469.385" cy="293.664" r="21.6" fill="#ffffff" fill-rule="evenodd" fill-opacity="1" stroke="#000000" stroke-opacity="1" stroke-width="3.2"></circle>
<circle clip-path="url(#clip032)" cx="597.09" cy="224.763" r="21.6" fill="#ffffff" fill-rule="evenodd" fill-opacity="1" stroke="#000000" stroke-opacity="1" stroke-width="3.2"></circle>
<circle clip-path="url(#clip032)" cx="799.02" cy="1200.43" r="21.6" fill="#ffffff" fill-rule="evenodd" fill-opacity="1" stroke="#000000" stroke-opacity="1" stroke-width="3.2"></circle>
<circle clip-path="url(#clip032)" cx="2133.98" cy="461.476" r="21.6" fill="#ffffff" fill-rule="evenodd" fill-opacity="1" stroke="#000000" stroke-opacity="1" stroke-width="3.2"></circle>
<circle clip-path="url(#clip032)" cx="507.399" cy="232.351" r="21.6" fill="#ffffff" fill-rule="evenodd" fill-opacity="1" stroke="#000000" stroke-opacity="1" stroke-width="3.2"></circle>
<circle clip-path="url(#clip032)" cx="639.552" cy="238.886" r="21.6" fill="#ffffff" fill-rule="evenodd" fill-opacity="1" stroke="#000000" stroke-opacity="1" stroke-width="3.2"></circle>
<circle clip-path="url(#clip032)" cx="2125" cy="511.88" r="21.6" fill="#ffffff" fill-rule="evenodd" fill-opacity="1" stroke="#000000" stroke-opacity="1" stroke-width="3.2"></circle>
<circle clip-path="url(#clip032)" cx="720.42" cy="1203.79" r="21.6" fill="#ffffff" fill-rule="evenodd" fill-opacity="1" stroke="#000000" stroke-opacity="1" stroke-width="3.2"></circle>
<circle clip-path="url(#clip032)" cx="2170.78" cy="457.613" r="21.6" fill="#ffffff" fill-rule="evenodd" fill-opacity="1" stroke="#000000" stroke-opacity="1" stroke-width="3.2"></circle>
<circle clip-path="url(#clip032)" cx="2126.28" cy="461.414" r="21.6" fill="#ffffff" fill-rule="evenodd" fill-opacity="1" stroke="#000000" stroke-opacity="1" stroke-width="3.2"></circle>
<circle clip-path="url(#clip032)" cx="2087.18" cy="494.929" r="21.6" fill="#ffffff" fill-rule="evenodd" fill-opacity="1" stroke="#000000" stroke-opacity="1" stroke-width="3.2"></circle>
<circle clip-path="url(#clip032)" cx="624.613" cy="258.84" r="21.6" fill="#ffffff" fill-rule="evenodd" fill-opacity="1" stroke="#000000" stroke-opacity="1" stroke-width="3.2"></circle>
<circle clip-path="url(#clip032)" cx="563.055" cy="215.649" r="21.6" fill="#ffffff" fill-rule="evenodd" fill-opacity="1" stroke="#000000" stroke-opacity="1" stroke-width="3.2"></circle>
<circle clip-path="url(#clip032)" cx="2136.26" cy="540.133" r="21.6" fill="#ffffff" fill-rule="evenodd" fill-opacity="1" stroke="#000000" stroke-opacity="1" stroke-width="3.2"></circle>
<circle clip-path="url(#clip032)" cx="732.061" cy="1116.13" r="21.6" fill="#ffffff" fill-rule="evenodd" fill-opacity="1" stroke="#000000" stroke-opacity="1" stroke-width="3.2"></circle>
<circle clip-path="url(#clip032)" cx="2176.49" cy="520.211" r="21.6" fill="#ffffff" fill-rule="evenodd" fill-opacity="1" stroke="#000000" stroke-opacity="1" stroke-width="3.2"></circle>
<circle clip-path="url(#clip032)" cx="781.331" cy="1198.37" r="21.6" fill="#ffffff" fill-rule="evenodd" fill-opacity="1" stroke="#000000" stroke-opacity="1" stroke-width="3.2"></circle>
<circle clip-path="url(#clip032)" cx="773.224" cy="1242.01" r="21.6" fill="#ffffff" fill-rule="evenodd" fill-opacity="1" stroke="#000000" stroke-opacity="1" stroke-width="3.2"></circle>
<circle clip-path="url(#clip032)" cx="2162.68" cy="474.846" r="21.6" fill="#ffffff" fill-rule="evenodd" fill-opacity="1" stroke="#000000" stroke-opacity="1" stroke-width="3.2"></circle>
<circle clip-path="url(#clip032)" cx="503.693" cy="235.859" r="21.6" fill="#ffffff" fill-rule="evenodd" fill-opacity="1" stroke="#000000" stroke-opacity="1" stroke-width="3.2"></circle>
<circle clip-path="url(#clip032)" cx="675.027" cy="1208.35" r="21.6" fill="#ffffff" fill-rule="evenodd" fill-opacity="1" stroke="#000000" stroke-opacity="1" stroke-width="3.2"></circle>
<circle clip-path="url(#clip032)" cx="608.915" cy="194.462" r="21.6" fill="#ffffff" fill-rule="evenodd" fill-opacity="1" stroke="#000000" stroke-opacity="1" stroke-width="3.2"></circle>
<circle clip-path="url(#clip032)" cx="2171.52" cy="512.298" r="21.6" fill="#ffffff" fill-rule="evenodd" fill-opacity="1" stroke="#000000" stroke-opacity="1" stroke-width="3.2"></circle>
<circle clip-path="url(#clip032)" cx="2039.54" cy="522.343" r="21.6" fill="#ffffff" fill-rule="evenodd" fill-opacity="1" stroke="#000000" stroke-opacity="1" stroke-width="3.2"></circle>
<circle clip-path="url(#clip032)" cx="583.535" cy="244.127" r="21.6" fill="#ffffff" fill-rule="evenodd" fill-opacity="1" stroke="#000000" stroke-opacity="1" stroke-width="3.2"></circle>
<circle clip-path="url(#clip032)" cx="2007.57" cy="498.879" r="21.6" fill="#ffffff" fill-rule="evenodd" fill-opacity="1" stroke="#000000" stroke-opacity="1" stroke-width="3.2"></circle>
</svg>